<?xml version='1.0' encoding='UTF-8' standalone='no'?>
<!-- Created with Fritzing (http://www.fritzing.org/) -->
<svg width="8.16019in" x="0in" version="1.2" y="0in" xmlns="http://www.w3.org/2000/svg" height="4.96888in" viewBox="0 0 587.534 357.759" baseProfile="tiny" xmlns:svg="http://www.w3.org/2000/svg">
 <g  id="watermark" stroke-width="0">
  <g  stroke-width="0">
   <path fill="#8C8C8C"  stroke-width="0" d="M479.717,355.431L477.792,349.867L477.757,349.867c0.017,0.214,0.032,0.427,0.044,0.64c0.012,0.183,0.021,0.375,0.028,0.574c0.007,0.203,0.011,0.385,0.011,0.551l0,3.8L477.092,355.432L477.092,349.076l1.199,0l1.791,5.181l0.025,0l1.8,-5.181L483.107,349.076l0,6.354L482.298,355.43l0,-3.854c0,-0.15,0.003,-0.324,0.009,-0.518s0.013,-0.38,0.021,-0.557c0.012,-0.207,0.021,-0.416,0.029,-0.625L482.325,349.876L480.381,355.431L479.717,355.431z"/>
   <path fill="#8C8C8C"  stroke-width="0" d="M487.417,355.431l-0.16,-0.661l-0.035,0c-0.095,0.131,-0.19,0.243,-0.286,0.338c-0.095,0.095,-0.2,0.172,-0.313,0.231c-0.113,0.062,-0.239,0.106,-0.378,0.136c-0.141,0.028,-0.3,0.042,-0.482,0.042c-0.2,0,-0.384,-0.026,-0.552,-0.084c-0.168,-0.057,-0.314,-0.144,-0.438,-0.261c-0.122,-0.116,-0.219,-0.265,-0.288,-0.443S484.381,354.341,484.381,354.096c0,-0.475,0.167,-0.841,0.501,-1.095c0.335,-0.256,0.845,-0.394,1.528,-0.418l0.799,-0.029l0,-0.301c0,-0.193,-0.021,-0.356,-0.063,-0.486s-0.103,-0.234,-0.183,-0.314s-0.178,-0.138,-0.295,-0.172c-0.117,-0.035,-0.251,-0.052,-0.402,-0.052c-0.241,0,-0.464,0.034,-0.671,0.104c-0.207,0.068,-0.407,0.152,-0.597,0.25L484.719,350.99c0.214,-0.117,0.453,-0.217,0.717,-0.298c0.264,-0.079,0.54,-0.12,0.83,-0.12c0.296,0,0.551,0.029,0.768,0.09c0.216,0.059,0.395,0.151,0.534,0.28c0.141,0.13,0.247,0.294,0.316,0.494c0.07,0.199,0.104,0.44,0.104,0.726l0,3.269L487.417,355.431L487.417,355.431zM485.966,354.88c0.178,0,0.341,-0.028,0.491,-0.084c0.149,-0.055,0.282,-0.138,0.391,-0.249c0.11,-0.111,0.196,-0.252,0.258,-0.422c0.063,-0.17,0.094,-0.369,0.094,-0.599l0,-0.43l-0.621,0.03c-0.262,0.012,-0.48,0.041,-0.656,0.086c-0.175,0.047,-0.317,0.113,-0.423,0.193c-0.105,0.084,-0.183,0.185,-0.229,0.301c-0.046,0.117,-0.068,0.25,-0.068,0.398c0,0.268,0.069,0.462,0.211,0.586C485.553,354.817,485.737,354.88,485.966,354.88z"/>
   <path fill="#8C8C8C"  stroke-width="0" d="M492.399,354.792l-0.034,0c-0.063,0.099,-0.139,0.191,-0.224,0.281c-0.085,0.088,-0.184,0.165,-0.296,0.231c-0.111,0.066,-0.237,0.118,-0.376,0.156c-0.139,0.037,-0.295,0.056,-0.47,0.056c-0.271,0,-0.517,-0.051,-0.738,-0.154c-0.223,-0.105,-0.416,-0.262,-0.575,-0.469s-0.282,-0.464,-0.369,-0.771c-0.087,-0.309,-0.13,-0.664,-0.13,-1.069c0,-0.408,0.043,-0.767,0.13,-1.076c0.086,-0.31,0.209,-0.567,0.369,-0.774c0.159,-0.209,0.352,-0.367,0.575,-0.473c0.222,-0.105,0.469,-0.158,0.738,-0.158c0.171,0,0.327,0.02,0.466,0.057s0.264,0.088,0.376,0.152c0.112,0.063,0.211,0.137,0.297,0.221s0.163,0.172,0.227,0.266l0.052,0c-0.009,-0.1,-0.018,-0.191,-0.026,-0.283c-0.006,-0.074,-0.012,-0.152,-0.018,-0.232c-0.005,-0.078,-0.009,-0.143,-0.009,-0.188L492.364,348.668l0.792,0l0,6.763l-0.641,0L492.399,354.792zM491.151,354.863c0.221,0,0.407,-0.033,0.56,-0.102c0.151,-0.065,0.274,-0.168,0.37,-0.304c0.094,-0.136,0.163,-0.308,0.209,-0.512c0.044,-0.204,0.069,-0.442,0.076,-0.716l0,-0.177c0,-0.292,-0.02,-0.552,-0.059,-0.78c-0.04,-0.229,-0.105,-0.418,-0.2,-0.574c-0.094,-0.154,-0.219,-0.271,-0.376,-0.351c-0.156,-0.08,-0.352,-0.119,-0.586,-0.119c-0.391,0,-0.679,0.157,-0.861,0.474c-0.185,0.315,-0.277,0.771,-0.277,1.359c0,0.605,0.092,1.058,0.277,1.354C490.464,354.713,490.754,354.863,491.151,354.863z"/>
   <path fill="#8C8C8C"  stroke-width="0" d="M496.553,355.517c-0.318,0,-0.609,-0.053,-0.874,-0.16c-0.263,-0.106,-0.49,-0.264,-0.68,-0.469c-0.19,-0.207,-0.338,-0.461,-0.442,-0.766c-0.104,-0.306,-0.156,-0.651,-0.156,-1.045s0.049,-0.744,0.144,-1.055c0.096,-0.311,0.229,-0.574,0.405,-0.789c0.174,-0.216,0.382,-0.381,0.623,-0.492c0.241,-0.113,0.51,-0.17,0.802,-0.17c0.287,0,0.545,0.051,0.772,0.153c0.229,0.104,0.423,0.248,0.583,0.435c0.159,0.188,0.282,0.412,0.367,0.674c0.087,0.263,0.13,0.554,0.13,0.873l0,0.49l-3.008,0c0.015,0.559,0.133,0.971,0.354,1.234c0.222,0.263,0.551,0.396,0.987,0.396c0.149,0,0.285,-0.008,0.411,-0.021s0.248,-0.035,0.365,-0.063c0.118,-0.026,0.23,-0.063,0.342,-0.104s0.222,-0.089,0.334,-0.142l0,0.704c-0.116,0.055,-0.229,0.104,-0.341,0.144c-0.112,0.041,-0.226,0.074,-0.343,0.102c-0.117,0.024,-0.239,0.045,-0.365,0.056S496.702,355.517,496.553,355.517zM496.358,351.229c-0.331,0,-0.592,0.112,-0.783,0.339c-0.193,0.227,-0.307,0.555,-0.338,0.985l2.14,0c0,-0.196,-0.021,-0.378,-0.06,-0.541c-0.039,-0.164,-0.1,-0.304,-0.183,-0.419s-0.187,-0.205,-0.315,-0.27C496.691,351.259,496.538,351.229,496.358,351.229z"/>
   <path fill="#8C8C8C"  stroke-width="0" d="M505.367,355.431l-0.729,-2.678c-0.012,-0.053,-0.026,-0.111,-0.044,-0.176c-0.017,-0.065,-0.034,-0.136,-0.051,-0.207c-0.019,-0.072,-0.036,-0.146,-0.055,-0.223c-0.02,-0.074,-0.037,-0.148,-0.055,-0.222c-0.041,-0.169,-0.083,-0.341,-0.126,-0.521l-0.024,0c-0.041,0.182,-0.08,0.356,-0.117,0.524c-0.032,0.146,-0.066,0.294,-0.104,0.448c-0.037,0.152,-0.069,0.283,-0.103,0.391l-0.75,2.66l-0.917,0l-1.221,-4.771l0.83,0l0.57,2.539c0.029,0.129,0.059,0.27,0.086,0.423c0.028,0.151,0.057,0.303,0.082,0.452c0.026,0.148,0.05,0.288,0.07,0.421c0.02,0.132,0.037,0.238,0.049,0.322l0.025,0c0.015,-0.074,0.034,-0.177,0.059,-0.302c0.025,-0.126,0.052,-0.26,0.083,-0.399c0.031,-0.141,0.063,-0.28,0.093,-0.417c0.032,-0.139,0.063,-0.254,0.091,-0.351l0.778,-2.69l0.853,0l0.748,2.69c0.025,0.098,0.056,0.215,0.089,0.348c0.033,0.135,0.065,0.27,0.098,0.407c0.032,0.139,0.061,0.271,0.087,0.397c0.025,0.127,0.045,0.231,0.056,0.315l0.026,0c0.01,-0.074,0.022,-0.177,0.042,-0.302c0.02,-0.126,0.042,-0.265,0.067,-0.415c0.025,-0.149,0.054,-0.306,0.084,-0.464c0.03,-0.157,0.062,-0.306,0.094,-0.44L506.727,350.658l0.809,0l-1.234,4.771L505.367,355.429L505.367,355.431z"/>
   <path fill="#8C8C8C"  stroke-width="0" d="M508.322,349.368c0,-0.175,0.045,-0.3,0.133,-0.379c0.088,-0.078,0.197,-0.117,0.328,-0.117c0.063,0,0.123,0.011,0.181,0.028c0.056,0.019,0.104,0.049,0.147,0.089c0.042,0.041,0.075,0.092,0.101,0.154c0.023,0.063,0.037,0.137,0.037,0.224c0,0.168,-0.045,0.293,-0.138,0.376c-0.092,0.083,-0.2,0.123,-0.327,0.123c-0.131,0,-0.24,-0.04,-0.328,-0.12C508.368,349.665,508.322,349.538,508.322,349.368zM509.174,355.431l-0.791,0L508.383,350.658l0.791,0L509.174,355.431z"/>
   <path fill="#8C8C8C"  stroke-width="0" d="M512.13,354.87c0.052,0,0.111,-0.003,0.176,-0.01c0.066,-0.006,0.128,-0.013,0.189,-0.021c0.061,-0.009,0.116,-0.019,0.167,-0.031c0.051,-0.011,0.089,-0.021,0.115,-0.028l0,0.6c-0.037,0.017,-0.085,0.035,-0.144,0.052c-0.059,0.018,-0.122,0.033,-0.191,0.046c-0.068,0.015,-0.142,0.022,-0.217,0.03s-0.148,0.011,-0.221,0.011c-0.18,0,-0.347,-0.021,-0.5,-0.068c-0.153,-0.048,-0.286,-0.126,-0.397,-0.239c-0.111,-0.112,-0.198,-0.267,-0.263,-0.458c-0.063,-0.192,-0.095,-0.437,-0.095,-0.729L510.749,351.254l-0.674,0L510.075,350.902l0.673,-0.339l0.339,-0.999l0.456,0l0,1.096l1.199,0l0,0.596l-1.199,0l0,2.769c0,0.281,0.045,0.492,0.137,0.636C511.772,354.799,511.921,354.87,512.13,354.87z"/>
   <path fill="#8C8C8C"  stroke-width="0" d="M516.685,355.431l0,-3.073c0,-0.377,-0.076,-0.659,-0.228,-0.848c-0.152,-0.188,-0.391,-0.282,-0.715,-0.282c-0.234,0,-0.433,0.037,-0.592,0.111c-0.158,0.076,-0.286,0.188,-0.384,0.336c-0.097,0.148,-0.166,0.328,-0.208,0.544c-0.042,0.214,-0.063,0.461,-0.063,0.739l0,2.473l-0.791,0L513.704,348.668l0.791,0l0,2.008l-0.034,0.626l0.044,0c0.072,-0.124,0.158,-0.232,0.258,-0.323s0.209,-0.167,0.328,-0.229c0.118,-0.061,0.245,-0.104,0.378,-0.135c0.133,-0.027,0.27,-0.043,0.408,-0.043c0.531,0,0.93,0.139,1.198,0.416c0.268,0.275,0.401,0.719,0.401,1.326l0,3.117L516.685,355.431L516.685,355.431z"/>
  </g>
  <g  stroke-width="0">
   <path fill="#8C8C8C"  stroke-width="0" d="M538.445,355.415l-1.324,0L537.121,349.061l3.642,0l0,1.104l-2.316,0l0,1.639l2.156,0l0,1.1l-2.156,0L538.445,355.415L538.445,355.415z"/>
   <path fill="#8C8C8C"  stroke-width="0" d="M544.478,350.465c0.035,0,0.074,0.002,0.116,0.002c0.042,0.002,0.083,0.006,0.12,0.01c0.041,0.005,0.076,0.009,0.11,0.014c0.031,0.004,0.059,0.01,0.075,0.016l0,1.244c-0.022,-0.008,-0.056,-0.012,-0.095,-0.018c-0.04,-0.007,-0.083,-0.012,-0.128,-0.018c-0.045,-0.004,-0.09,-0.006,-0.133,-0.008c-0.044,-0.002,-0.08,-0.002,-0.108,-0.002c-0.171,0,-0.328,0.021,-0.472,0.064c-0.146,0.043,-0.269,0.113,-0.37,0.211s-0.183,0.225,-0.239,0.383c-0.057,0.157,-0.084,0.352,-0.084,0.581l0,2.474l-1.326,0L541.944,350.556l1.005,0l0.194,0.73l0.066,0c0.068,-0.125,0.145,-0.238,0.226,-0.34c0.081,-0.103,0.172,-0.189,0.272,-0.259c0.1,-0.071,0.212,-0.126,0.338,-0.165C544.171,350.485,544.317,350.465,544.478,350.465z"/>
   <path fill="#8C8C8C"  stroke-width="0" d="M545.796,349.3c0,-0.125,0.018,-0.228,0.056,-0.311c0.038,-0.084,0.089,-0.15,0.154,-0.2c0.065,-0.051,0.142,-0.086,0.229,-0.106c0.088,-0.02,0.184,-0.03,0.281,-0.03c0.099,0,0.191,0.01,0.277,0.03c0.088,0.02,0.164,0.055,0.229,0.106c0.066,0.05,0.117,0.116,0.156,0.2c0.04,0.083,0.059,0.186,0.059,0.311c0,0.122,-0.019,0.225,-0.059,0.309c-0.039,0.084,-0.09,0.151,-0.156,0.203c-0.063,0.05,-0.142,0.086,-0.229,0.108c-0.086,0.021,-0.18,0.032,-0.277,0.032c-0.099,0,-0.191,-0.012,-0.281,-0.032c-0.088,-0.021,-0.164,-0.059,-0.229,-0.108c-0.065,-0.051,-0.116,-0.119,-0.154,-0.203C545.815,349.525,545.796,349.422,545.796,349.3zM547.178,355.415l-1.325,0L545.853,350.556l1.325,0L547.178,355.415z"/>
   <path fill="#8C8C8C"  stroke-width="0" d="M550.587,354.446c0.13,0,0.254,-0.016,0.371,-0.045c0.117,-0.027,0.235,-0.064,0.357,-0.107l0,0.986c-0.124,0.063,-0.278,0.116,-0.463,0.157c-0.184,0.042,-0.385,0.063,-0.603,0.063c-0.211,0,-0.408,-0.024,-0.59,-0.073c-0.185,-0.05,-0.342,-0.137,-0.476,-0.259c-0.133,-0.123,-0.237,-0.288,-0.313,-0.495c-0.077,-0.208,-0.114,-0.468,-0.114,-0.781L548.756,351.551l-0.636,0L548.12,350.99l0.729,-0.443l0.383,-1.024l0.848,0l0,1.034l1.184,0l0,0.995l-1.184,0l0,2.343c0,0.188,0.048,0.327,0.141,0.417C550.314,354.401,550.436,354.446,550.587,354.446z"/>
   <path fill="#8C8C8C"  stroke-width="0" d="M555.46,355.415L551.887,355.415l0,-0.781l1.985,-3.064l-1.853,0L552.019,350.556l3.355,0l0,0.859l-1.92,2.985l2.004,0L555.46,355.415L555.46,355.415z"/>
   <path fill="#8C8C8C"  stroke-width="0" d="M556.399,349.3c0,-0.125,0.02,-0.228,0.057,-0.311c0.038,-0.084,0.09,-0.15,0.153,-0.2c0.065,-0.051,0.144,-0.086,0.23,-0.106s0.182,-0.03,0.28,-0.03c0.098,0,0.19,0.01,0.277,0.03c0.088,0.02,0.164,0.055,0.229,0.106c0.064,0.05,0.117,0.116,0.156,0.2c0.038,0.083,0.059,0.186,0.059,0.311c0,0.122,-0.021,0.225,-0.059,0.309c-0.039,0.084,-0.092,0.151,-0.156,0.203c-0.064,0.05,-0.143,0.086,-0.229,0.108c-0.086,0.021,-0.18,0.032,-0.277,0.032c-0.099,0,-0.192,-0.012,-0.28,-0.032c-0.088,-0.021,-0.165,-0.059,-0.23,-0.108c-0.063,-0.051,-0.115,-0.119,-0.153,-0.203C556.418,349.525,556.399,349.422,556.399,349.3zM557.781,355.415L556.457,355.415L556.457,350.556l1.324,0L557.781,355.415z"/>
   <path fill="#8C8C8C"  stroke-width="0" d="M563.431,355.415L562.107,355.415l0,-2.839c0,-0.351,-0.053,-0.613,-0.158,-0.787c-0.105,-0.176,-0.274,-0.265,-0.508,-0.265c-0.173,0,-0.317,0.035,-0.434,0.104c-0.116,0.07,-0.209,0.173,-0.276,0.31c-0.066,0.136,-0.115,0.304,-0.146,0.504c-0.029,0.2,-0.043,0.429,-0.043,0.687l0,2.286L559.217,355.415L559.217,350.556l1.012,0l0.181,0.621l0.073,0c0.069,-0.124,0.153,-0.23,0.253,-0.321c0.102,-0.089,0.21,-0.163,0.328,-0.221s0.245,-0.103,0.378,-0.128c0.136,-0.028,0.271,-0.043,0.409,-0.043c0.237,0,0.454,0.033,0.647,0.104c0.194,0.067,0.36,0.174,0.5,0.318c0.141,0.146,0.247,0.328,0.321,0.555c0.075,0.225,0.113,0.492,0.113,0.807l0,3.168L563.431,355.415L563.431,355.415z"/>
   <path fill="#8C8C8C"  stroke-width="0" d="M568.861,350.565l0,0.722l-0.708,0.221c0.059,0.1,0.1,0.201,0.122,0.308c0.021,0.106,0.033,0.22,0.033,0.343c0,0.246,-0.039,0.471,-0.116,0.676c-0.078,0.203,-0.193,0.379,-0.349,0.522c-0.152,0.146,-0.346,0.258,-0.578,0.337c-0.23,0.08,-0.5,0.119,-0.808,0.119c-0.067,0,-0.141,-0.003,-0.218,-0.012c-0.078,-0.007,-0.137,-0.015,-0.175,-0.021c-0.057,0.049,-0.104,0.101,-0.137,0.152c-0.033,0.054,-0.049,0.117,-0.049,0.193c0,0.061,0.018,0.108,0.056,0.146s0.087,0.065,0.147,0.087c0.06,0.022,0.133,0.036,0.214,0.044s0.165,0.012,0.251,0.012l0.756,0c0.236,0,0.446,0.025,0.631,0.081c0.186,0.055,0.342,0.135,0.472,0.246c0.129,0.109,0.229,0.249,0.299,0.419c0.069,0.169,0.104,0.372,0.104,0.605c0,0.275,-0.054,0.523,-0.164,0.745c-0.109,0.224,-0.274,0.41,-0.494,0.565c-0.219,0.154,-0.488,0.273,-0.813,0.355c-0.324,0.082,-0.699,0.123,-1.126,0.123c-0.329,0,-0.618,-0.031,-0.864,-0.094c-0.247,-0.063,-0.451,-0.15,-0.617,-0.27c-0.165,-0.116,-0.288,-0.258,-0.371,-0.424c-0.084,-0.164,-0.125,-0.353,-0.125,-0.561c0,-0.177,0.031,-0.33,0.093,-0.46c0.061,-0.131,0.143,-0.243,0.243,-0.336c0.102,-0.093,0.218,-0.168,0.347,-0.227c0.129,-0.058,0.262,-0.103,0.396,-0.134c-0.061,-0.026,-0.12,-0.063,-0.181,-0.109c-0.059,-0.047,-0.113,-0.1,-0.161,-0.159c-0.047,-0.063,-0.086,-0.129,-0.116,-0.203c-0.031,-0.072,-0.047,-0.15,-0.047,-0.23c0,-0.093,0.015,-0.178,0.04,-0.252c0.029,-0.076,0.068,-0.146,0.12,-0.212c0.052,-0.064,0.117,-0.126,0.196,-0.184c0.078,-0.06,0.166,-0.117,0.264,-0.18c-0.254,-0.11,-0.456,-0.287,-0.604,-0.53c-0.15,-0.244,-0.225,-0.529,-0.225,-0.859c0,-0.26,0.04,-0.494,0.121,-0.699c0.081,-0.207,0.2,-0.381,0.356,-0.523c0.155,-0.144,0.35,-0.252,0.582,-0.328c0.231,-0.076,0.499,-0.113,0.801,-0.113c0.057,0,0.122,0.004,0.194,0.012s0.145,0.018,0.216,0.025c0.07,0.01,0.137,0.021,0.196,0.033c0.061,0.01,0.109,0.021,0.146,0.029L568.861,350.565L568.861,350.565zM565.384,356.102c0,0.073,0.017,0.145,0.047,0.211c0.03,0.068,0.08,0.129,0.15,0.182c0.068,0.052,0.16,0.094,0.272,0.124c0.113,0.03,0.252,0.046,0.417,0.046c0.452,0,0.792,-0.063,1.021,-0.191c0.229,-0.127,0.343,-0.298,0.343,-0.514c0,-0.183,-0.07,-0.304,-0.213,-0.364c-0.143,-0.06,-0.361,-0.091,-0.66,-0.091l-0.613,0c-0.077,0,-0.162,0.009,-0.252,0.027c-0.09,0.018,-0.172,0.052,-0.248,0.099c-0.075,0.046,-0.139,0.108,-0.188,0.184S565.384,355.987,565.384,356.102zM565.863,352.147c0,0.263,0.049,0.468,0.147,0.612c0.098,0.146,0.248,0.217,0.447,0.217c0.209,0,0.358,-0.07,0.451,-0.217c0.094,-0.145,0.14,-0.35,0.14,-0.612c0,-0.261,-0.046,-0.468,-0.137,-0.622c-0.092,-0.152,-0.243,-0.229,-0.454,-0.229C566.06,351.295,565.863,351.578,565.863,352.147z"/>
   <path fill="#8C8C8C"  stroke-width="0" d="M569.611,354.794c0,-0.136,0.02,-0.251,0.059,-0.346c0.04,-0.095,0.094,-0.172,0.163,-0.229c0.069,-0.058,0.149,-0.101,0.244,-0.126c0.092,-0.026,0.191,-0.039,0.299,-0.039c0.102,0,0.198,0.013,0.289,0.039c0.092,0.025,0.172,0.068,0.242,0.126c0.068,0.057,0.123,0.134,0.163,0.229c0.041,0.095,0.062,0.21,0.062,0.346c0,0.13,-0.021,0.242,-0.062,0.335c-0.04,0.093,-0.095,0.17,-0.163,0.229c-0.07,0.062,-0.15,0.104,-0.242,0.133c-0.091,0.027,-0.188,0.042,-0.289,0.042c-0.106,0,-0.207,-0.015,-0.299,-0.042c-0.095,-0.027,-0.175,-0.071,-0.244,-0.133c-0.069,-0.061,-0.123,-0.138,-0.163,-0.229C569.629,355.036,569.611,354.924,569.611,354.794z"/>
   <path fill="#8C8C8C"  stroke-width="0" d="M576.57,352.976c0,0.406,-0.052,0.767,-0.153,1.079c-0.104,0.313,-0.251,0.576,-0.443,0.79c-0.192,0.215,-0.428,0.378,-0.704,0.489c-0.277,0.111,-0.587,0.167,-0.933,0.167c-0.321,0,-0.617,-0.056,-0.886,-0.167c-0.271,-0.112,-0.503,-0.274,-0.698,-0.489c-0.195,-0.214,-0.35,-0.479,-0.458,-0.79c-0.11,-0.313,-0.165,-0.673,-0.165,-1.079c0,-0.402,0.051,-0.76,0.154,-1.072c0.103,-0.314,0.25,-0.576,0.442,-0.789C572.918,350.901,573.152,350.74,573.427,350.631s0.587,-0.164,0.937,-0.164c0.319,0,0.615,0.055,0.886,0.164c0.27,0.111,0.502,0.271,0.695,0.484c0.197,0.213,0.351,0.477,0.459,0.789C576.514,352.216,576.57,352.574,576.57,352.976zM573.484,352.976c0,0.484,0.068,0.851,0.205,1.093c0.137,0.246,0.357,0.368,0.664,0.368c0.306,0,0.524,-0.123,0.66,-0.37c0.137,-0.245,0.205,-0.608,0.205,-1.091s-0.068,-0.846,-0.205,-1.084c-0.136,-0.238,-0.358,-0.357,-0.668,-0.357c-0.305,0,-0.523,0.119,-0.659,0.357C573.551,352.131,573.484,352.494,573.484,352.976z"/>
   <path fill="#8C8C8C"  stroke-width="0" d="M580.29,350.465c0.035,0,0.073,0.002,0.115,0.002c0.042,0.002,0.083,0.006,0.12,0.01c0.04,0.005,0.076,0.009,0.109,0.014c0.033,0.004,0.059,0.01,0.076,0.016l0,1.244c-0.023,-0.008,-0.055,-0.012,-0.095,-0.018c-0.041,-0.007,-0.083,-0.012,-0.13,-0.018c-0.045,-0.004,-0.089,-0.006,-0.132,-0.008c-0.045,-0.002,-0.08,-0.002,-0.108,-0.002c-0.171,0,-0.328,0.021,-0.473,0.064c-0.144,0.043,-0.267,0.113,-0.37,0.211c-0.102,0.098,-0.182,0.225,-0.237,0.383c-0.058,0.157,-0.084,0.352,-0.084,0.581l0,2.474l-1.326,0L577.755,350.556l1.004,0l0.195,0.73l0.065,0c0.068,-0.125,0.146,-0.238,0.226,-0.34c0.081,-0.103,0.172,-0.189,0.271,-0.259c0.101,-0.071,0.213,-0.126,0.339,-0.165C579.984,350.485,580.128,350.465,580.29,350.465z"/>
   <path fill="#8C8C8C"  stroke-width="0" d="M585.598,350.565l0,0.722l-0.708,0.221c0.058,0.1,0.099,0.201,0.121,0.308s0.034,0.22,0.034,0.343c0,0.246,-0.039,0.471,-0.116,0.676c-0.079,0.203,-0.194,0.379,-0.349,0.522c-0.153,0.146,-0.348,0.258,-0.578,0.337c-0.232,0.08,-0.501,0.119,-0.809,0.119c-0.067,0,-0.141,-0.003,-0.219,-0.012c-0.078,-0.007,-0.135,-0.015,-0.173,-0.021c-0.058,0.049,-0.104,0.101,-0.137,0.152c-0.034,0.054,-0.05,0.117,-0.05,0.193c0,0.061,0.019,0.108,0.057,0.146c0.037,0.037,0.086,0.065,0.146,0.087c0.062,0.021,0.133,0.036,0.215,0.044c0.08,0.008,0.164,0.012,0.251,0.012l0.756,0c0.234,0,0.445,0.025,0.63,0.081c0.186,0.055,0.343,0.135,0.472,0.246c0.129,0.109,0.229,0.249,0.298,0.419c0.07,0.169,0.104,0.372,0.104,0.605c0,0.275,-0.054,0.523,-0.165,0.745c-0.109,0.224,-0.275,0.41,-0.493,0.565c-0.219,0.154,-0.489,0.273,-0.815,0.355c-0.323,0.082,-0.698,0.123,-1.125,0.123c-0.329,0,-0.617,-0.031,-0.864,-0.094c-0.246,-0.063,-0.451,-0.15,-0.617,-0.27c-0.164,-0.116,-0.287,-0.258,-0.371,-0.424c-0.083,-0.164,-0.124,-0.353,-0.124,-0.561c0,-0.177,0.03,-0.33,0.091,-0.46c0.063,-0.131,0.144,-0.243,0.244,-0.336c0.103,-0.093,0.217,-0.168,0.346,-0.227c0.129,-0.058,0.263,-0.103,0.398,-0.134c-0.062,-0.026,-0.121,-0.063,-0.182,-0.109c-0.06,-0.047,-0.113,-0.1,-0.16,-0.159c-0.047,-0.063,-0.087,-0.129,-0.117,-0.203c-0.03,-0.073,-0.045,-0.151,-0.045,-0.231c0,-0.093,0.014,-0.178,0.04,-0.252c0.027,-0.076,0.067,-0.146,0.12,-0.212c0.051,-0.064,0.117,-0.126,0.194,-0.184c0.078,-0.06,0.166,-0.117,0.266,-0.18c-0.255,-0.109,-0.456,-0.287,-0.606,-0.529c-0.148,-0.244,-0.223,-0.531,-0.223,-0.861c0,-0.26,0.039,-0.493,0.121,-0.698c0.081,-0.207,0.199,-0.382,0.354,-0.524c0.156,-0.143,0.351,-0.252,0.583,-0.328c0.231,-0.074,0.499,-0.111,0.8,-0.111c0.059,0,0.123,0.003,0.195,0.011s0.146,0.017,0.215,0.026c0.072,0.009,0.138,0.021,0.198,0.031c0.062,0.012,0.108,0.021,0.145,0.03L585.598,350.564L585.598,350.565zM582.122,356.102c0,0.073,0.017,0.145,0.046,0.211c0.031,0.068,0.081,0.129,0.149,0.182c0.07,0.052,0.161,0.094,0.273,0.124c0.114,0.03,0.252,0.046,0.418,0.046c0.451,0,0.792,-0.063,1.021,-0.191c0.229,-0.127,0.343,-0.298,0.343,-0.514c0,-0.183,-0.071,-0.304,-0.214,-0.364s-0.361,-0.091,-0.66,-0.091l-0.612,0c-0.079,0,-0.163,0.009,-0.252,0.027c-0.09,0.019,-0.173,0.052,-0.248,0.099c-0.076,0.046,-0.139,0.108,-0.188,0.184C582.148,355.889,582.122,355.987,582.122,356.102zM582.599,352.147c0,0.263,0.049,0.468,0.148,0.612c0.099,0.146,0.248,0.217,0.447,0.217c0.209,0,0.358,-0.07,0.451,-0.217c0.094,-0.145,0.141,-0.35,0.141,-0.612c0,-0.261,-0.046,-0.468,-0.138,-0.622c-0.092,-0.152,-0.243,-0.229,-0.454,-0.229C582.797,351.295,582.599,351.578,582.599,352.147z"/>
  </g>
  <g  stroke-width="0">
   <path fill="#8C8C8C"  stroke-width="0" d="M531.192,347.685l-8.146,0c-0.532,0,-0.965,0.432,-0.965,0.964l0,8.146c0,0.531,0.433,0.964,0.965,0.964l5.55,0l3.557,-3.558L532.153,348.649C532.156,348.116,531.724,347.685,531.192,347.685zM529.515,351.414l-1.075,0l0,0.401l1.075,0l0,1.601l-2.196,0l0,2.058l-2.572,0l0,-4.67l0.988,-0.99l3.779,0l0,1.603l0.001,0L529.515,351.414z"/>
  </g>
 </g>
 <g transform="translate(0,184.941)">
  <g  id="copper0" stroke-width="0">
   <circle fill="none" cx="1.98"  cy="2.484" stroke="#FFBF00" id="connector30pin" r="1.98" stroke-width="1.5"/>
   <circle fill="none" cx="9.18"  cy="2.484" stroke="#FFBF00" id="connector31pin" r="1.98" stroke-width="1.5"/>
   <circle fill="none" cx="16.884"  cy="2.484" stroke="#FFBF00" id="connector0pin" r="1.98" stroke-width="1.5"/>
   <circle fill="none" cx="24.084"  cy="2.484" stroke="#FFBF00" id="connector1pin" r="1.98" stroke-width="1.5"/>
   <circle fill="none" cx="31.284"  cy="2.484" stroke="#FFBF00" id="connector2pin" r="1.98" stroke-width="1.5"/>
   <circle fill="none" cx="38.485"  cy="2.484" stroke="#FFBF00" id="connector3pin" r="1.98" stroke-width="1.5"/>
   <circle fill="none" cx="45.685"  cy="2.484" stroke="#FFBF00" id="connector4pin" r="1.98" stroke-width="1.5"/>
   <circle fill="none" cx="52.884"  cy="2.484" stroke="#FFBF00" id="connector5pin" r="1.98" stroke-width="1.5"/>
   <circle fill="none" cx="60.084"  cy="2.484" stroke="#FFBF00" id="connector6pin" r="1.98" stroke-width="1.5"/>
   <circle fill="none" cx="67.284"  cy="2.484" stroke="#FFBF00" id="connector7pin" r="1.98" stroke-width="1.5"/>
   <circle fill="none" cx="79.525"  cy="2.484" stroke="#FFBF00" id="connector8pin" r="1.98" stroke-width="1.5"/>
   <circle fill="none" cx="86.725"  cy="2.484" stroke="#FFBF00" id="connector9pin" r="1.98" stroke-width="1.5"/>
   <circle fill="none" cx="93.924"  cy="2.484" stroke="#FFBF00" id="connector10pin" r="1.98" stroke-width="1.5"/>
   <circle fill="none" cx="101.124"  cy="2.484" stroke="#FFBF00" id="connector11pin" r="1.98" stroke-width="1.5"/>
   <circle fill="none" cx="108.324"  cy="2.484" stroke="#FFBF00" id="connector12pin" r="1.98" stroke-width="1.5"/>
   <circle fill="none" cx="115.525"  cy="2.484" stroke="#FFBF00" id="connector13pin" r="1.98" stroke-width="1.5"/>
   <circle fill="none" cx="122.725"  cy="2.484" stroke="#FFBF00" id="connector14pin" r="1.98" stroke-width="1.5"/>
   <circle fill="none" cx="129.924"  cy="2.484" stroke="#FFBF00" id="connector15pin" r="1.98" stroke-width="1.5"/>
   <circle fill="none" cx="29.124"  cy="139.284" stroke="#FFBF00" id="connector28pin" r="1.98" stroke-width="1.5"/>
   <circle fill="none" cx="36.324"  cy="139.284" stroke="#FFBF00" id="connector29pin" r="1.98" stroke-width="1.5"/>
   <circle fill="none" cx="43.525"  cy="139.284" stroke="#FFBF00" id="connector16pin" r="1.98" stroke-width="1.5"/>
   <circle fill="none" cx="50.725"  cy="139.284" stroke="#FFBF00" id="connector17pin" r="1.98" stroke-width="1.5"/>
   <circle fill="none" cx="57.924"  cy="139.284" stroke="#FFBF00" id="connector18pin" r="1.98" stroke-width="1.5"/>
   <circle fill="none" cx="65.124"  cy="139.284" stroke="#FFBF00" id="connector19pin" r="1.98" stroke-width="1.5"/>
   <circle fill="none" cx="72.324"  cy="139.284" stroke="#FFBF00" id="connector20pin" r="1.98" stroke-width="1.5"/>
   <circle fill="none" cx="79.525"  cy="139.284" stroke="#FFBF00" id="connector21pin" r="1.98" stroke-width="1.5"/>
   <circle fill="none" cx="93.924"  cy="139.284" stroke="#FFBF00" id="connector22pin" r="1.98" stroke-width="1.5"/>
   <circle fill="none" cx="101.124"  cy="139.284" stroke="#FFBF00" id="connector23pin" r="1.98" stroke-width="1.5"/>
   <circle fill="none" cx="108.324"  cy="139.284" stroke="#FFBF00" id="connector24pin" r="1.98" stroke-width="1.5"/>
   <circle fill="none" cx="115.525"  cy="139.284" stroke="#FFBF00" id="connector25pin" r="1.98" stroke-width="1.5"/>
   <circle fill="none" cx="122.725"  cy="139.284" stroke="#FFBF00" id="connector26pin" r="1.98" stroke-width="1.5"/>
   <circle fill="none" cx="129.924"  cy="139.284" stroke="#FFBF00" id="connector27pin" r="1.98" stroke-width="1.5"/>
  </g>
 </g>
 <g transform="translate(341.694,5.6)">
  <g  id="copper0" stroke-width="0">
   <circle fill="none" cx="2.56464"  cy="10.2182" stroke="#ff9400" r="1.4274" id="connector0pad" stroke-width="1.4148"/>
   <circle fill="none" cx="8.23824"  cy="10.2182" stroke="#ff9400" r="1.4274" id="connector1pad" stroke-width="1.4148"/>
   <circle fill="none" cx="13.8974"  cy="10.2182" stroke="#ff9400" r="1.4274" id="connector2pad" stroke-width="1.4148"/>
   <circle fill="none" cx="19.571"  cy="10.2182" stroke="#ff9400" r="1.4274" id="connector3pad" stroke-width="1.4148"/>
  </g>
 </g>
 <g transform="translate(30.9,39.4452)">
  <g  id="copper0" stroke-width="0">
   <g  id="copper1" stroke-width="0">
    <rect width="3.96" x="0.72" y="1.116" fill="none"  height="3.96" stroke="rgb(255, 191, 0)" stroke-width="1.44"/>
    <circle fill="none" cx="2.7"  cy="3.096" stroke="rgb(255, 191, 0)" r="1.98" id="connector0pin" stroke-width="1.44"/>
    <circle fill="none" cx="31.5"  cy="3.096" stroke="rgb(255, 191, 0)" r="1.98" id="connector1pin" stroke-width="1.44"/>
   </g>
  </g>
 </g>
 <g transform="translate(30.9,39.4452)">
  <g  id="copper0" stroke-width="0">
   <g  id="copper1" stroke-width="0">
    <rect width="3.96" x="0.72" y="1.116" fill="none"  height="3.96" stroke="rgb(255, 191, 0)" stroke-width="1.44"/>
    <circle fill="none" cx="2.7"  cy="3.096" stroke="rgb(255, 191, 0)" r="1.98" id="connector0pin" stroke-width="1.44"/>
    <circle fill="none" cx="31.5"  cy="3.096" stroke="rgb(255, 191, 0)" r="1.98" id="connector1pin" stroke-width="1.44"/>
   </g>
  </g>
 </g>
 <g transform="translate(546.134,86.6478)">
  <g  id="copper0" stroke-width="0">
   <g  id="copper1" stroke-width="0">
    <rect width="3.96" x="0.72" y="1.116" fill="none"  height="3.96" stroke="rgb(255, 191, 0)" stroke-width="1.44"/>
    <circle fill="none" cx="2.7"  cy="3.096" stroke="rgb(255, 191, 0)" r="1.98" id="connector0pin" stroke-width="1.44"/>
    <circle fill="none" cx="31.5"  cy="3.096" stroke="rgb(255, 191, 0)" r="1.98" id="connector1pin" stroke-width="1.44"/>
   </g>
  </g>
 </g>
 <line stroke="#157de6" stroke-linecap="round" y1="16.1565" x1="345.327" y2="89.2426" stroke-width="0.56" x2="576.051"/>
 <line stroke="#ffe24d" stroke-linecap="round" y1="187.115" x1="47.2851" y2="90.0602" stroke-width="0.56" x2="547.204"/>
 <line stroke="#47cc79" stroke-linecap="round" y1="15.918" x1="360.15" y2="42.3934" stroke-width="0.56" x2="64.0534"/>
 <line stroke="#ff7033" stroke-linecap="round" y1="185.822" x1="59.7909" y2="44.1741" stroke-width="0.56" x2="33.8985"/>
 <line stroke="#ab58a2" stroke-linecap="round" y1="15.9199" x1="354.476" y2="42.3905" stroke-width="0.56" x2="64.0531"/>
 <line stroke="#8c3b00" stroke-linecap="round" y1="185.809" x1="52.6689" y2="44.1867" stroke-width="0.56" x2="33.819"/>
 <line stroke="#000000" stroke-linecap="round" y1="186.666" x1="25.5262" y2="16.3401" stroke-width="0.56" x2="348.942"/>
 <g transform="translate(212.8,294.541)">
  <g  id="silkscreen" stroke-width="0">
   <path fill="none"  stroke="#FFFFFF" stroke-width="0.576" d="M0.288,46.512L0.288,0.288l125.424,0l0,46.224L0.288,46.512"/>
   <g  stroke-width="0">
    <title >element:JP3</title>
    <g  stroke-width="0">
     <title >package:1X06</title>
    </g>
   </g>
   <g  stroke-width="0">
    <title >element:U$1</title>
    <g  stroke-width="0">
     <title >package:SFE-NEW-WEBLOGO</title>
    </g>
   </g>
   <g  stroke-width="0">
    <title >element:U1</title>
    <g  stroke-width="0">
     <title >package:RN41</title>
     <line fill="none"  stroke="#FFFFFF" stroke-linecap="round" y1="5.375" stroke-width="0.576" x1="22.751" y2="5.375" x2="17.932"/>
     <line fill="none"  stroke="#FFFFFF" stroke-linecap="round" y1="42.792" stroke-width="0.576" x1="22.751" y2="42.792" x2="17.932"/>
     <line fill="none"  stroke="#FFFFFF" stroke-linecap="round" y1="5.375" stroke-width="0.576" x1="73.491" y2="8.209" x2="73.491"/>
     <line fill="none"  stroke="#FFFFFF" stroke-linecap="round" y1="5.375" stroke-width="0.576" x1="73.491" y2="5.375" x2="70.656"/>
     <line fill="none"  stroke="#FFFFFF" stroke-linecap="round" y1="42.792" stroke-width="0.576" x1="73.491" y2="39.957" x2="73.491"/>
     <line fill="none"  stroke="#FFFFFF" stroke-linecap="round" y1="42.792" stroke-width="0.576" x1="73.491" y2="42.792" x2="70.656"/>
     <line fill="none"  stroke="#FFFFFF" stroke-linecap="round" y1="42.792" stroke-width="0.576" x1="0.357" y2="39.957" x2="0.357"/>
     <line fill="none"  stroke="#FFFFFF" stroke-linecap="round" y1="42.792" stroke-width="0.576" x1="0.357" y2="42.792" x2="3.192"/>
     <line fill="none"  stroke="#FFFFFF" stroke-linecap="round" y1="5.375" stroke-width="0.576" x1="0.357" y2="8.209" x2="0.357"/>
     <line fill="none"  stroke="#FFFFFF" stroke-linecap="round" y1="5.375" stroke-width="0.576" x1="0.357" y2="5.375" x2="3.192"/>
    </g>
   </g>
  </g>
 </g>
 <g transform="translate(341.694,5.6)">
  <g  id="silkscreen" stroke-width="0">
   <path stroke-opacity="1" fill="none"  stroke="#ffffff" style="stroke-miterlimit:4;stroke-dasharray:none" id="path3607" stroke-width="0.0072" d="M0.17865,0.063225C0.166575,0.0264816,0.131896,0,0.091125,0,0.0591927,0,0.031119,0.0162472,0.014625,0.04095l0,0.022275m0,0.0576,0,0.02205c0.0164932,0.0247078,0.0445639,0.041175,0.0765,0.041175,0.0407713,0,0.0754496,-0.0264816,0.087525,-0.063225" transform="scale(111.11111,111.11111)"/>
  </g>
 </g>
 <g transform="translate(30.9,39.4452)">
  <g  id="silkscreen" stroke-width="0">
   <line  stroke="white" y1="3.096" x1="5.4" y2="3.096" stroke-width="0.72" x2="10.584"/>
   <line  stroke="white" y1="3.096" x1="24.984" y2="3.096" stroke-width="0.72" x2="28.8"/>
   <line  stroke="white" y1="0.72" x1="10.584" y2="0.72" stroke-width="0.72" x2="24.984"/>
   <line  stroke="white" y1="0.72" x1="24.984" y2="5.472" stroke-width="0.72" x2="24.984"/>
   <line  stroke="white" y1="5.472" x1="24.984" y2="5.472" stroke-width="0.72" x2="10.584"/>
   <line  stroke="white" y1="5.472" x1="10.584" y2="0.72" stroke-width="0.72" x2="10.584"/>
  </g>
 </g>
 <g transform="translate(30.9,39.4452)">
  <g  id="silkscreen" stroke-width="0">
   <line  stroke="white" y1="3.096" x1="5.4" y2="3.096" stroke-width="0.72" x2="10.584"/>
   <line  stroke="white" y1="3.096" x1="24.984" y2="3.096" stroke-width="0.72" x2="28.8"/>
   <line  stroke="white" y1="0.72" x1="10.584" y2="0.72" stroke-width="0.72" x2="24.984"/>
   <line  stroke="white" y1="0.72" x1="24.984" y2="5.472" stroke-width="0.72" x2="24.984"/>
   <line  stroke="white" y1="5.472" x1="24.984" y2="5.472" stroke-width="0.72" x2="10.584"/>
   <line  stroke="white" y1="5.472" x1="10.584" y2="0.72" stroke-width="0.72" x2="10.584"/>
  </g>
 </g>
 <g transform="translate(546.134,86.6478)">
  <g  id="silkscreen" stroke-width="0">
   <line  stroke="white" y1="3.096" x1="5.4" y2="3.096" stroke-width="0.72" x2="10.584"/>
   <line  stroke="white" y1="3.096" x1="24.984" y2="3.096" stroke-width="0.72" x2="28.8"/>
   <line  stroke="white" y1="0.72" x1="10.584" y2="0.72" stroke-width="0.72" x2="24.984"/>
   <line  stroke="white" y1="0.72" x1="24.984" y2="5.472" stroke-width="0.72" x2="24.984"/>
   <line  stroke="white" y1="5.472" x1="24.984" y2="5.472" stroke-width="0.72" x2="10.584"/>
   <line  stroke="white" y1="5.472" x1="10.584" y2="0.72" stroke-width="0.72" x2="10.584"/>
  </g>
 </g>
 <g transform="translate(133.754,179.341)">
  <g fill="#ffffff" font-family="'OCRA'" stroke="none" font-style="normal" fill-opacity="1" font-weight="normal" id="silkscreenLabel" font-size="5">
   <text x="0" y="3.75">Arduino1</text>
  </g>
 </g>
 <g transform="translate(338.8,288.941)">
  <g fill="#ffffff" font-family="'OCRA'" stroke="none" font-style="normal" fill-opacity="1" font-weight="normal" id="silkscreenLabel" font-size="5">
   <text x="0" y="3.75">Bluetooth Modem - BlueSMiRF Gold1</text>
  </g>
 </g>
 <g transform="translate(65.6336,33.9518)">
  <g fill="#ffffff" font-family="'OCRA'" stroke="none" font-style="normal" fill-opacity="1" font-weight="normal" id="silkscreenLabel" font-size="5">
   <text x="0" y="3.75">R2</text>
  </g>
 </g>
 <g transform="translate(580.334,81.0478)">
  <g fill="#ffffff" font-family="'OCRA'" stroke="none" font-style="normal" fill-opacity="1" font-weight="normal" id="silkscreenLabel" font-size="5">
   <text x="0" y="3.75">R1</text>
  </g>
 </g>
 <g transform="translate(66.1336,34.0558)">
  <g fill="#ffffff" font-family="'OCRA'" stroke="none" font-style="normal" fill-opacity="1" font-weight="normal" id="silkscreenLabel" font-size="5">
   <text x="0" y="3.75">R3</text>
  </g>
 </g>
 <g transform="translate(363.4,0)">
  <g fill="#ffffff" font-family="'OCRA'" stroke="none" font-style="normal" fill-opacity="1" font-weight="normal" id="silkscreenLabel" font-size="5">
   <text x="0" y="3.75">LED4</text>
  </g>
 </g>
</svg>
