<?xml version='1.0' encoding='utf-8'?>
<!DOCTYPE svg PUBLIC '-//W3C//DTD SVG 1.1//EN' 'http://www.w3.org/Graphics/SVG/1.1/DTD/svg11.dtd'>
<!-- Generator: Adobe Illustrator 15.0.0, SVG Export Plug-In . SVG Version: 6.00 Build 0)  -->
<svg xmlns="http://www.w3.org/2000/svg" width="1.75in" xml:space="preserve" xmlns:xml="http://www.w3.org/XML/1998/namespace" x="0px" version="1.1" y="0px" height="0.65in" viewBox="0 0 126 46.8" id="Layer_1" enable-background="new 0 0 126 46.8">
 <desc >Fritzing breadboard generated by brd2svg</desc>
 <path  fill="#C62717" d="M0,46.8V0h126v46.8H0 M120.96,5.4c-0.001,0.795,0.643,1.441,1.438,1.442c0.795,0.001,1.44-0.643,1.441-1.438c0-0.001,0-0.002,0-0.004c0.002-0.795-0.643-1.441-1.438-1.442s-1.441,0.643-1.442,1.438C120.96,5.397,120.96,5.398,120.96,5.4z M120.96,12.6c-0.001,0.795,0.643,1.441,1.438,1.442c0.795,0.001,1.44-0.643,1.441-1.438c0-0.001,0-0.002,0-0.004c0.002-0.795-0.643-1.441-1.438-1.442c-0.795-0.001-1.441,0.643-1.442,1.438C120.96,12.597,120.96,12.599,120.96,12.6z M120.96,19.8c-0.001,0.795,0.643,1.441,1.438,1.442c0.795,0.001,1.44-0.643,1.441-1.438c0-0.001,0-0.003,0-0.004c0.002-0.795-0.643-1.44-1.438-1.442c-0.795-0.001-1.441,0.643-1.442,1.438C120.96,19.797,120.96,19.799,120.96,19.8z M120.96,27c-0.001,0.796,0.643,1.441,1.438,1.442c0.795,0.001,1.44-0.643,1.441-1.438c0,0,0-0.002,0-0.004c0.002-0.795-0.643-1.44-1.438-1.441c-0.795-0.002-1.441,0.643-1.442,1.438C120.96,26.998,120.96,26.999,120.96,27z M120.96,34.201c-0.001,0.795,0.643,1.439,1.438,1.441c0.795,0.001,1.44-0.643,1.441-1.438c0-0.002,0-0.004,0-0.004c0.002-0.796-0.643-1.441-1.438-1.443c-0.795,0-1.441,0.644-1.442,1.438C120.96,34.197,120.96,34.199,120.96,34.201z M120.96,41.4c-0.001,0.795,0.643,1.441,1.438,1.441c0.795,0.002,1.44-0.643,1.441-1.438c0-0.001,0-0.002,0-0.004c0.002-0.795-0.643-1.441-1.438-1.441c-0.795-0.002-1.441,0.643-1.442,1.438C120.96,41.398,120.96,41.398,120.96,41.4z"/>
 <title >layer 21</title>
 <g >
  <title >text:Stat</title>
  <text  fill="#FFFFFF" font-family="DroidSans" transform="matrix(1 0 0 1 97.5605 44.2798)" font-size="2.6726">Stat</text>
 </g>
 <g >
  <title >text:Connect</title>
  <text  fill="#FFFFFF" font-family="DroidSans" transform="matrix(1 0 0 1 93.96 5.0396)" font-size="2.6726">Connect</text>
 </g>
 <g >
  <title >element:C1</title>
  <g >
   <title >package:EIA3216</title>
   <line  fill="none" stroke="#FFFFFF" stroke-linecap="round" y1="17.802" stroke-width="0.576" x1="83.565" y2="17.802" x2="79.312"/>
   <line  fill="none" stroke="#FFFFFF" stroke-linecap="round" y1="17.802" stroke-width="0.576" x1="79.312" y2="10.999" x2="79.312"/>
   <line  fill="none" stroke="#FFFFFF" stroke-linecap="round" y1="10.999" stroke-width="0.576" x1="79.312" y2="10.999" x2="83.565"/>
   <line  fill="none" stroke="#FFFFFF" stroke-linecap="round" y1="17.802" stroke-width="0.576" x1="89.234" y2="17.802" x2="92.354"/>
   <line  fill="none" stroke="#FFFFFF" stroke-linecap="round" y1="17.802" stroke-width="0.576" x1="92.354" y2="16.668" x2="93.486"/>
   <line  fill="none" stroke="#FFFFFF" stroke-linecap="round" y1="16.668" stroke-width="0.576" x1="93.486" y2="12.132" x2="93.486"/>
   <line  fill="none" stroke="#FFFFFF" stroke-linecap="round" y1="12.132" stroke-width="0.576" x1="93.486" y2="10.999" x2="92.354"/>
   <line  fill="none" stroke="#FFFFFF" stroke-linecap="round" y1="10.999" stroke-width="0.576" x1="92.354" y2="10.999" x2="89.234"/>
  </g>
 </g>
 <g >
  <title >element:C3</title>
  <g >
   <title >package:EIA3216</title>
   <line  fill="none" stroke="#FFFFFF" stroke-linecap="round" y1="43.001" stroke-width="0.576" x1="83.565" y2="43.001" x2="79.312"/>
   <line  fill="none" stroke="#FFFFFF" stroke-linecap="round" y1="43.001" stroke-width="0.576" x1="79.312" y2="36.199" x2="79.312"/>
   <line  fill="none" stroke="#FFFFFF" stroke-linecap="round" y1="36.199" stroke-width="0.576" x1="79.312" y2="36.199" x2="83.565"/>
   <line  fill="none" stroke="#FFFFFF" stroke-linecap="round" y1="43.001" stroke-width="0.576" x1="89.234" y2="43.001" x2="92.354"/>
   <line  fill="none" stroke="#FFFFFF" stroke-linecap="round" y1="43.001" stroke-width="0.576" x1="92.354" y2="41.868" x2="93.486"/>
   <line  fill="none" stroke="#FFFFFF" stroke-linecap="round" y1="41.868" stroke-width="0.576" x1="93.486" y2="37.332" x2="93.486"/>
   <line  fill="none" stroke="#FFFFFF" stroke-linecap="round" y1="37.332" stroke-width="0.576" x1="93.486" y2="36.199" x2="92.354"/>
   <line  fill="none" stroke="#FFFFFF" stroke-linecap="round" y1="36.199" stroke-width="0.576" x1="92.354" y2="36.199" x2="89.234"/>
  </g>
 </g>
 <g >
  <title >element:C4</title>
  <g >
   <title >package:0402-CAP</title>
   <line  fill="none" stroke="#FFFFFF" stroke-linecap="round" y1="32.847" stroke-width="1.152" x1="86.4" y2="32.673" x2="86.4"/>
  </g>
 </g>
 <g >
  <title >element:D1</title>
  <g >
   <title >package:LED-0603</title>
   <line  fill="none" stroke="#FFFFFF" stroke-linecap="round" y1="40.904" stroke-width="0.576" x1="101.282" y2="39.6" x2="101.282"/>
   <line  fill="none" stroke="#FFFFFF" stroke-linecap="round" y1="38.296" stroke-width="0.576" x1="101.282" y2="39.6" x2="101.282"/>
   <line  fill="none" stroke="#FFFFFF" stroke-linecap="round" y1="39.6" stroke-width="0.576" x1="101.282" y2="40.263" x2="100.402"/>
   <line  fill="none" stroke="#FFFFFF" stroke-linecap="round" y1="39.528" stroke-width="0.576" x1="101.238" y2="38.981" x2="100.402"/>
  </g>
 </g>
 <g >
  <title >element:D2</title>
  <g >
   <title >package:LED-0603</title>
   <line  fill="none" stroke="#FFFFFF" stroke-linecap="round" y1="8.504" stroke-width="0.576" x1="101.282" y2="7.2" x2="101.282"/>
   <line  fill="none" stroke="#FFFFFF" stroke-linecap="round" y1="5.896" stroke-width="0.576" x1="101.282" y2="7.2" x2="101.282"/>
   <line  fill="none" stroke="#FFFFFF" stroke-linecap="round" y1="7.2" stroke-width="0.576" x1="101.282" y2="7.863" x2="100.402"/>
   <line  fill="none" stroke="#FFFFFF" stroke-linecap="round" y1="7.128" stroke-width="0.576" x1="101.238" y2="6.581" x2="100.402"/>
  </g>
 </g>
 <g >
  <title >element:JP1</title>
  <g >
   <title >package:FIDUCIAL-1X2</title>
  </g>
 </g>
 <g >
  <title >element:JP2</title>
  <g >
   <title >package:1X01NS</title>
  </g>
 </g>
 <g >
  <title >element:JP3</title>
  <g >
   <title >package:1X06</title>
  </g>
 </g>
 <g >
  <title >element:JP4</title>
  <g >
   <title >package:FIDUCIAL-1X2</title>
  </g>
 </g>
 <g >
  <title >element:Q1</title>
  <g >
   <title >package:SOT23-3</title>
   <line  fill="none" stroke="#FFFFFF" stroke-linecap="round" y1="22.918" stroke-width="0.576" x1="101.467" y2="24.62" x2="101.467"/>
   <line  fill="none" stroke="#FFFFFF" stroke-linecap="round" y1="24.62" stroke-width="0.576" x1="101.467" y2="24.62" x2="103.734"/>
   <line  fill="none" stroke="#FFFFFF" stroke-linecap="round" y1="18.382" stroke-width="0.576" x1="101.467" y2="16.682" x2="101.467"/>
   <line  fill="none" stroke="#FFFFFF" stroke-linecap="round" y1="16.682" stroke-width="0.576" x1="101.467" y2="16.682" x2="103.734"/>
  </g>
 </g>
 <g >
  <title >element:Q2</title>
  <g >
   <title >package:SOT23-3</title>
   <line  fill="none" stroke="#FFFFFF" stroke-linecap="round" y1="33.718" stroke-width="0.576" x1="101.466" y2="35.419" x2="101.466"/>
   <line  fill="none" stroke="#FFFFFF" stroke-linecap="round" y1="35.419" stroke-width="0.576" x1="101.466" y2="35.419" x2="103.733"/>
   <line  fill="none" stroke="#FFFFFF" stroke-linecap="round" y1="29.183" stroke-width="0.576" x1="101.467" y2="27.482" x2="101.467"/>
   <line  fill="none" stroke="#FFFFFF" stroke-linecap="round" y1="27.482" stroke-width="0.576" x1="101.467" y2="27.482" x2="103.734"/>
  </g>
 </g>
 <g >
  <title >element:R1</title>
  <g >
   <title >package:0402-RES</title>
  </g>
 </g>
 <g >
  <title >element:R2</title>
  <g >
   <title >package:0402-RES</title>
  </g>
 </g>
 <g >
  <title >element:R3</title>
  <g >
   <title >package:0402-RES</title>
  </g>
 </g>
 <g >
  <title >element:R4</title>
  <g >
   <title >package:0402-RES</title>
  </g>
 </g>
 <g >
  <title >element:R5</title>
  <g >
   <title >package:0402-RES</title>
  </g>
 </g>
 <g >
  <title >element:R6</title>
  <g >
   <title >package:0402-RES</title>
  </g>
 </g>
 <g >
  <title >element:R7</title>
  <g >
   <title >package:0402-RES</title>
  </g>
 </g>
 <g >
  <title >element:R8</title>
  <g >
   <title >package:0402-RES</title>
  </g>
 </g>
 <g >
  <title >element:R9</title>
  <g >
   <title >package:0402-RES</title>
  </g>
 </g>
 <g >
  <title >element:SJ1</title>
  <g >
   <title >package:SJ_2S-NO</title>
  </g>
 </g>
 <g >
  <title >element:U$1</title>
  <g >
   <title >package:SFE-NEW-WEBLOGO</title>
  </g>
 </g>
 <g >
  <title >element:U1</title>
  <g >
   <title >package:RN41</title>
   <line  fill="none" stroke="#FFFFFF" stroke-linecap="round" y1="5.375" stroke-width="0.576" x1="22.751" y2="5.375" x2="17.932"/>
   <line  fill="none" stroke="#FFFFFF" stroke-linecap="round" y1="42.792" stroke-width="0.576" x1="22.751" y2="42.792" x2="17.932"/>
   <line  fill="none" stroke="#FFFFFF" stroke-linecap="round" y1="5.375" stroke-width="0.576" x1="73.491" y2="8.209" x2="73.491"/>
   <line  fill="none" stroke="#FFFFFF" stroke-linecap="round" y1="5.375" stroke-width="0.576" x1="73.491" y2="5.375" x2="70.656"/>
   <line  fill="none" stroke="#FFFFFF" stroke-linecap="round" y1="42.792" stroke-width="0.576" x1="73.491" y2="39.957" x2="73.491"/>
   <line  fill="none" stroke="#FFFFFF" stroke-linecap="round" y1="42.792" stroke-width="0.576" x1="73.491" y2="42.792" x2="70.656"/>
   <line  fill="none" stroke="#FFFFFF" stroke-linecap="round" y1="42.792" stroke-width="0.576" x1="0.357" y2="39.957" x2="0.357"/>
   <line  fill="none" stroke="#FFFFFF" stroke-linecap="round" y1="42.792" stroke-width="0.576" x1="0.357" y2="42.792" x2="3.192"/>
   <line  fill="none" stroke="#FFFFFF" stroke-linecap="round" y1="5.375" stroke-width="0.576" x1="0.357" y2="8.209" x2="0.357"/>
   <line  fill="none" stroke="#FFFFFF" stroke-linecap="round" y1="5.375" stroke-width="0.576" x1="0.357" y2="5.375" x2="3.192"/>
  </g>
 </g>
 <g >
  <title >element:U3</title>
  <g >
   <title >package:SOT23-5</title>
   <line  fill="none" stroke="#FFFFFF" stroke-linecap="round" y1="21.708" stroke-width="0.576" x1="80.723" y2="21.708" x2="83.157"/>
   <line  fill="none" stroke="#FFFFFF" stroke-linecap="round" y1="29.772" stroke-width="0.576" x1="83.157" y2="29.772" x2="80.723"/>
   <line  fill="none" stroke="#FFFFFF" stroke-linecap="round" y1="26.501" stroke-width="0.576" x1="79.643" y2="24.979" x2="79.643"/>
  </g>
 </g>
 <rect  width="14.174" x="79.312" y="10.999" fill="#333333" height="6.803"/>
 <rect  width="14.174" x="79.312" y="36.199" fill="#333333" height="6.803"/>
 <rect  width="0.879" x="100.402" y="38.296" fill="#FFFFFF" height="2.607" fill-opacity="0.15"/>
 <rect  width="0.879" x="100.402" y="5.896" fill="#FFFFFF" height="2.608" fill-opacity="0.15"/>
 <rect  width="2.268" x="101.466" y="16.682" fill="#333333" height="7.937"/>
 <rect  width="2.268" x="101.466" y="27.482" fill="#333333" height="7.937"/>
 <rect  width="1.152" x="107.424" y="38.591" fill="#FFFFFF" height="2.017" fill-opacity="0.15"/>
 <rect  width="1.152" x="107.424" y="13.392" fill="#FFFFFF" height="2.016" fill-opacity="0.15"/>
 <rect  width="1.151" x="96.624" y="16.992" fill="#FFFFFF" height="2.016" fill-opacity="0.15"/>
 <rect  width="1.151" x="96.624" y="31.392" fill="#FFFFFF" height="2.016" fill-opacity="0.15"/>
 <rect  width="1.152" x="89.424" y="6.192" fill="#FFFFFF" height="2.016" fill-opacity="0.15"/>
 <rect  width="1.152" x="107.424" y="6.192" fill="#FFFFFF" height="2.016" fill-opacity="0.15"/>
 <rect  width="1.152" x="107.424" y="16.992" fill="#FFFFFF" height="2.016" fill-opacity="0.15"/>
 <rect  width="1.152" x="107.424" y="31.392" fill="#FFFFFF" height="2.016" fill-opacity="0.15"/>
 <rect  width="1.151" x="82.225" y="6.192" fill="#FFFFFF" height="2.016" fill-opacity="0.15"/>
 <rect  width="3.515" x="79.643" y="21.708" fill="#333333" height="8.063"/>
 <circle  fill="none" cx="122.4" cy="5.4" stroke="#9A916C" id="connector12pin" r="2.052" stroke-width="1.224"/>
 <circle  fill="none" cx="122.4" cy="12.6" stroke="#9A916C" id="connector13pin" r="2.052" stroke-width="1.224"/>
 <circle  fill="none" cx="122.4" cy="19.8" stroke="#9A916C" id="connector14pin" r="2.052" stroke-width="1.224"/>
 <circle  fill="none" cx="122.4" cy="27" stroke="#9A916C" id="connector15pin" r="2.052" stroke-width="1.224"/>
 <circle  fill="none" cx="122.4" cy="34.2" stroke="#9A916C" id="connector16pin" r="2.052" stroke-width="1.224"/>
 <circle  fill="none" cx="122.4" cy="41.4" stroke="#9A916C" id="connector17pin" r="2.052" stroke-width="1.224"/>
 <g  id="rn41" transform="matrix(1, 0, 0, 1, 0.368793, 5.34128)">
  <g >
   <g >
    <rect  width="18.699" x="0" y="0.001" fill="#0F4560" height="37.271"/>
    <rect  width="2.998" x="15.701" y="0.001" fill="#7B7F7E" height="4.98"/>
    <rect  width="2.998" x="15.701" y="32.29" fill="#7B7F7E" height="4.979"/>
    <rect  width="2.998" x="70.139" y="0.001" fill="#7B7F7E" height="4.98"/>
    <rect  width="2.998" x="70.139" y="32.29" fill="#7B7F7E" height="4.979"/>
    <rect  width="2.998" x="15.701" y="14.297" fill="#BA9F38" height="14.497"/>
    <rect  width="3.693" x="15.701" y="9.812" fill="#FFFFFF" height="1.382"/>
   </g>
   <rect  width="2.131" x="16.568" opacity="0.2" y="0.001" height="37.271" enable-background="new    "/>
   <g >
    <g >
     <polygon  fill="#606060" points="71.2,0.439 71.2,0 17.635,0 17.635,0.439 17.196,0.439 17.196,36.831 17.635,36.831 17.635,37.272 71.2,37.272 71.2,36.831 71.639,36.831 71.639,0.439 "/>
     <g >
      <g  opacity="0.5">
       <path  fill="#FFFFFF" d="M70.723,0.481H18.11c-0.112,0-0.203-0.091-0.203-0.203c0-0.112,0.091-0.203,0.203-0.203h52.613c0.111,0,0.203,0.091,0.203,0.203C70.926,0.39,70.834,0.481,70.723,0.481z"/>
      </g>
      <g  opacity="0.5">
       <path  fill="#FFFFFF" d="M70.723,37.195H18.11c-0.112,0-0.203-0.092-0.203-0.203c0-0.112,0.091-0.203,0.203-0.203h52.613c0.111,0,0.203,0.091,0.203,0.203C70.926,37.104,70.834,37.195,70.723,37.195z"/>
      </g>
     </g>
    </g>
    <g >
     <path  fill="#FFFFFF" d="M70.61,34.048c0,0.793-0.648,1.442-1.441,1.442h-49.52c-0.793,0-1.442-0.649-1.442-1.442V3.225c0-0.793,0.649-1.442,1.442-1.442h49.52c0.793,0,1.441,0.649,1.441,1.442V34.048z"/>
    </g>
    <g  opacity="0.3">
     <path  fill="#FFFFFF" d="M17.385,36.671c-0.042,0-0.076-0.034-0.076-0.075V0.678c0-0.042,0.034-0.076,0.076-0.076s0.076,0.034,0.076,0.076v35.917C17.461,36.637,17.427,36.671,17.385,36.671z"/>
    </g>
    <g  opacity="0.3">
     <path  fill="#FFFFFF" d="M71.465,36.671c-0.042,0-0.076-0.034-0.076-0.075V0.678c0-0.042,0.034-0.076,0.076-0.076s0.076,0.034,0.076,0.076v35.917C71.541,36.637,71.507,36.671,71.465,36.671z"/>
    </g>
    <text  font-family="DroidSans" transform="matrix(1 0 0 1 305.6312 390.6582)" font-size="12">BlueSMiRF Gold</text>
    <g enable-background="new    " transform="matrix(1 0 0 1 33.5267 10.4219)">
     <text x="0" y="0" fill="#606060" font-family="DroidSans" font-size="6.7682">BlueSMiRF</text>
     <text x="19.928" y="8.122" fill="#606060" font-family="DroidSans" font-size="6.7682">Gold</text>
    </g>
   </g>
  </g>
 </g>
 <circle  fill="#FFFFFF" cx="78.035" cy="5.483" stroke="#9A916C" id="connector14pin_1_" r="2.052" stroke-width="1.224"/>
</svg>
