<?xml version='1.0' encoding='utf-8'?>
<!DOCTYPE svg PUBLIC '-//W3C//DTD SVG 1.1//EN' 'http://www.w3.org/Graphics/SVG/1.1/DTD/svg11.dtd'>
<!-- Generator: Adobe Illustrator 15.0.0, SVG Export Plug-In . SVG Version: 6.00 Build 0)  -->
<svg xmlns="http://www.w3.org/2000/svg" width="2.38772in" xml:space="preserve" xmlns:xml="http://www.w3.org/XML/1998/namespace" x="0px" version="1.1" y="0px" height="4.24979in" viewBox="0 0 171.916 305.985" id="Layer_1" enable-background="new 0 0 171.916 305.985">
 <path  fill="#FFFFFF" d="M162.842,296.569H35.583V5.902h127.259V296.569z M39.583,292.569h119.259V9.902H39.583V292.569z"/>
 <path  fill="#FFFFFF" d="M98.416,108.236c-23.251,0-42.167-18.916-42.167-42.167c0-23.251,18.916-42.167,42.167-42.167c23.25,0,42.166,18.916,42.166,42.167C140.582,89.32,121.666,108.236,98.416,108.236z M98.416,27.902c-21.045,0-38.167,17.122-38.167,38.167c0,21.045,17.122,38.167,38.167,38.167s38.166-17.122,38.166-38.167C136.582,45.024,119.461,27.902,98.416,27.902z"/>
 <path  fill="#FFFFFF" d="M98.416,282.983c-23.251,0-42.167-18.916-42.167-42.167s18.916-42.167,42.167-42.167c23.25,0,42.166,18.916,42.166,42.167S121.666,282.983,98.416,282.983z M98.416,202.649c-21.045,0-38.167,17.122-38.167,38.167s17.122,38.167,38.167,38.167s38.166-17.122,38.166-38.167S119.461,202.649,98.416,202.649z"/>
 <path  fill="#F7BD13" d="M49.417,153.042c-1.469,0-2.664-1.195-2.664-2.665c0-1.469,1.195-2.663,2.664-2.663s2.664,1.194,2.664,2.663C52.081,151.847,50.886,153.042,49.417,153.042z M49.417,148.938c-0.794,0-1.439,0.646-1.439,1.438c0,0.794,0.646,1.44,1.439,1.44s1.439-0.646,1.439-1.44C50.856,149.584,50.211,148.938,49.417,148.938z"/>
 <path  fill="#F7BD13" d="M49.417,166.042c-1.469,0-2.664-1.195-2.664-2.665c0-1.469,1.195-2.663,2.664-2.663s2.664,1.194,2.664,2.663C52.081,164.847,50.886,166.042,49.417,166.042z M49.417,161.938c-0.794,0-1.439,0.646-1.439,1.438c0,0.794,0.646,1.44,1.439,1.44s1.439-0.646,1.439-1.44C50.856,162.584,50.211,161.938,49.417,161.938z"/>
 <path  fill="#F7BD13" d="M49.417,140.041c-1.469,0-2.664-1.195-2.664-2.664s1.195-2.664,2.664-2.664s2.664,1.195,2.664,2.664S50.886,140.041,49.417,140.041z M49.417,135.938c-0.794,0-1.439,0.646-1.439,1.44s0.646,1.44,1.439,1.44s1.439-0.646,1.439-1.44S50.211,135.938,49.417,135.938z"/>
</svg>
