<?xml version='1.0' encoding='utf-8'?>
<!DOCTYPE svg PUBLIC '-//W3C//DTD SVG 1.1//EN' 'http://www.w3.org/Graphics/SVG/1.1/DTD/svg11.dtd'>
<!-- Generator: Adobe Illustrator 15.0.0, SVG Export Plug-In . SVG Version: 6.00 Build 0)  -->
<svg xmlns="http://www.w3.org/2000/svg" width="2.98608in" xml:space="preserve" xmlns:xml="http://www.w3.org/XML/1998/namespace" x="0px" version="1.1" y="0px" height="2.39554in" viewBox="0 0 214.998 172.479" id="Layer_1" enable-background="new 0 0 214.998 172.479">
 <desc >Fritzing schematic generated by brd2svg</desc>
 <rect  width="170.078" x="22.46" y="22.46" fill="none" height="127.559" stroke="#000000" stroke-linejoin="round" stroke-linecap="round" stroke-width="2.4"/>
 <text  font-family="DroidSans" id="label" transform="matrix(1 0 0 1 55.4695 72.9797)" font-size="18">Bluetooth</text>
 <text  font-family="DroidSans" id="label_1_" transform="matrix(1 0 0 1 49.4915 94.2395)" font-size="18">BlueSMiRF</text>
 <text  font-family="DroidSans" id="label_2_" transform="matrix(1 0 0 1 73.9954 115.4993)" font-size="18">Gold</text>
 <rect  width="2.4" x="0" y="63.78" fill="none" height="2.4" id="connector16terminal"/>
 <line  fill="none" stroke="#000000" stroke-linejoin="round" stroke-linecap="round" y1="94.98" stroke-width="2.4" x1="192.539" y2="94.98" x2="213.798"/>
 <rect  width="21.26" x="193.739" y="63.78" fill="none" height="2.4" id="connector14pin"/>
 <rect  width="2.4" x="212.599" y="63.78" fill="none" height="2.4" id="connector14terminal"/>
 <text  font-family="DroidSans" id="label14" transform="matrix(1 0 0 1 157.5071 98.3801)" font-size="9.936">TX_5V</text>
 <line  fill="none" stroke="#000000" stroke-linejoin="round" stroke-linecap="round" y1="116.24" stroke-width="2.4" x1="192.539" y2="116.24" x2="213.798"/>
 <rect  width="21.26" x="193.739" y="85.039" fill="none" height="2.4" id="connector13pin"/>
 <rect  width="2.4" x="212.599" y="85.039" fill="none" height="2.4" id="connector13terminal"/>
 <text  font-family="DroidSans" id="label13" transform="matrix(1 0 0 1 156.2942 119.6399)" font-size="9.936">RX_5V</text>
 <line  fill="none" stroke="#000000" stroke-linejoin="round" stroke-linecap="round" y1="137.499" stroke-width="2.4" x1="192.539" y2="137.499" x2="213.798"/>
 <rect  width="21.26" x="193.739" y="106.299" fill="none" height="2.4" id="connector12pin"/>
 <rect  width="2.4" x="212.599" y="106.299" fill="none" height="2.4" id="connector12terminal"/>
 <text  font-family="DroidSans" id="label12" transform="matrix(1 0 0 1 150.3352 141.8997)" font-size="9.936">RTS_5V</text>
 <line  fill="none" stroke="#000000" stroke-linejoin="round" stroke-linecap="round" y1="33.861" stroke-width="2.4" x1="192.65" y2="33.861" x2="213.908"/>
 <text  font-family="DroidSans" id="label14_1_" transform="matrix(1 0 0 1 150.4426 37.261)" font-size="9.936">CTS_5V</text>
 <line  fill="none" stroke="#000000" stroke-linejoin="round" stroke-linecap="round" y1="55.12" stroke-width="2.4" x1="192.65" y2="55.12" x2="213.908"/>
 <text  font-family="DroidSans" id="label13_1_" transform="matrix(1 0 0 1 166.9094 58.5208)" font-size="9.936">VCC</text>
 <line  fill="none" stroke="#000000" stroke-linejoin="round" stroke-linecap="round" y1="76.38" stroke-width="2.4" x1="192.65" y2="76.38" x2="213.908"/>
 <text  font-family="DroidSans" id="label12_1_" transform="matrix(1 0 0 1 165.9172 80.7805)" font-size="9.936">GND</text>
 <line  fill="none" stroke="#000000" stroke-linejoin="round" stroke-linecap="round" y1="1.2" stroke-width="2.4" x1="107.499" y2="21.26" x2="107.499"/>
 <rect  width="2.4" x="106.299" y="0" fill="none" height="21.26" id="connector15pin"/>
 <polygon  fill="none" points="106.299,0 108.699,0 108.699,0 " id="connector15terminal"/>
 <text  font-family="DroidSans" id="label15" transform="matrix(1 0 0 1 96.0105 33.8606)" font-size="9.936">PIO4</text>
 <rect  width="2.4" x="106.299" y="151.219" fill="none" height="21.26" id="connector17pin"/>
 <polygon  fill="none" points="106.299,172.479 108.699,172.479 108.699,172.479 " id="connector17terminal"/>
 <rect  width="21.26" x="96" y="91.78" fill="none" height="2.4" id="connector16pin_1_"/>
</svg>
