<?xml version='1.0' encoding='UTF-8' standalone='no'?>
<!-- Created with Fritzing (http://www.fritzing.org/) -->
<svg width="6.66665in" x="0in" version="1.2" y="0in" xmlns="http://www.w3.org/2000/svg" height="5.64782in" viewBox="0 0 479.999 406.643" baseProfile="tiny" xmlns:svg="http://www.w3.org/2000/svg">
 <g  id="watermark" stroke-width="0">
  <g  stroke-width="0">
   <path fill="#8C8C8C"  stroke-width="0" d="M372.182,404.315L370.257,398.751L370.222,398.751c0.017,0.214,0.032,0.427,0.044,0.64c0.012,0.183,0.021,0.375,0.028,0.574c0.007,0.203,0.011,0.385,0.011,0.551l0,3.8L369.557,404.316L369.557,397.96l1.199,0l1.791,5.181l0.025,0l1.8,-5.181L375.572,397.96l0,6.354L374.763,404.314l0,-3.854c0,-0.15,0.003,-0.324,0.009,-0.518s0.013,-0.38,0.021,-0.557c0.012,-0.207,0.021,-0.416,0.029,-0.625L374.79,398.76L372.846,404.315L372.182,404.315z"/>
   <path fill="#8C8C8C"  stroke-width="0" d="M379.882,404.315l-0.16,-0.661l-0.035,0c-0.095,0.131,-0.19,0.243,-0.286,0.338c-0.095,0.095,-0.2,0.172,-0.313,0.231c-0.113,0.062,-0.239,0.106,-0.378,0.136c-0.141,0.028,-0.3,0.042,-0.482,0.042c-0.2,0,-0.384,-0.026,-0.552,-0.084c-0.168,-0.057,-0.314,-0.144,-0.438,-0.261c-0.122,-0.116,-0.219,-0.265,-0.288,-0.443S376.846,403.225,376.846,402.98c0,-0.475,0.167,-0.841,0.501,-1.095c0.335,-0.256,0.845,-0.394,1.528,-0.418l0.799,-0.029l0,-0.301c0,-0.193,-0.021,-0.356,-0.063,-0.486s-0.103,-0.234,-0.183,-0.314s-0.178,-0.138,-0.295,-0.172c-0.117,-0.035,-0.251,-0.052,-0.402,-0.052c-0.241,0,-0.464,0.034,-0.671,0.104c-0.207,0.068,-0.407,0.152,-0.597,0.25L377.184,399.874c0.214,-0.117,0.453,-0.217,0.717,-0.298c0.264,-0.079,0.54,-0.12,0.83,-0.12c0.296,0,0.551,0.029,0.768,0.09c0.216,0.059,0.395,0.151,0.534,0.28c0.141,0.13,0.247,0.294,0.316,0.494c0.07,0.199,0.104,0.44,0.104,0.726l0,3.269L379.882,404.315L379.882,404.315zM378.431,403.764c0.178,0,0.341,-0.028,0.491,-0.084c0.149,-0.055,0.282,-0.138,0.391,-0.249c0.11,-0.111,0.196,-0.252,0.258,-0.422c0.063,-0.17,0.094,-0.369,0.094,-0.599l0,-0.43l-0.621,0.03c-0.262,0.012,-0.48,0.041,-0.656,0.086c-0.175,0.047,-0.317,0.113,-0.423,0.193c-0.105,0.084,-0.183,0.185,-0.229,0.301c-0.046,0.117,-0.068,0.25,-0.068,0.398c0,0.268,0.069,0.462,0.211,0.586C378.018,403.701,378.202,403.764,378.431,403.764z"/>
   <path fill="#8C8C8C"  stroke-width="0" d="M384.864,403.676l-0.034,0c-0.063,0.099,-0.139,0.191,-0.224,0.281c-0.085,0.088,-0.184,0.165,-0.296,0.231c-0.111,0.066,-0.237,0.118,-0.376,0.156c-0.139,0.037,-0.295,0.056,-0.47,0.056c-0.271,0,-0.517,-0.051,-0.738,-0.154c-0.223,-0.105,-0.416,-0.262,-0.575,-0.469s-0.282,-0.464,-0.369,-0.771c-0.087,-0.309,-0.13,-0.664,-0.13,-1.069c0,-0.408,0.043,-0.767,0.13,-1.076c0.086,-0.31,0.209,-0.567,0.369,-0.774c0.159,-0.209,0.352,-0.367,0.575,-0.473c0.222,-0.105,0.469,-0.158,0.738,-0.158c0.171,0,0.327,0.02,0.466,0.057s0.264,0.088,0.376,0.152c0.112,0.063,0.211,0.137,0.297,0.221s0.163,0.172,0.227,0.266l0.052,0c-0.009,-0.1,-0.018,-0.191,-0.026,-0.283c-0.006,-0.074,-0.012,-0.152,-0.018,-0.232c-0.005,-0.078,-0.009,-0.143,-0.009,-0.188L384.829,397.552l0.792,0l0,6.763l-0.641,0L384.864,403.676zM383.616,403.747c0.221,0,0.407,-0.033,0.56,-0.102c0.151,-0.065,0.274,-0.168,0.37,-0.304c0.094,-0.136,0.163,-0.308,0.209,-0.512c0.044,-0.204,0.069,-0.442,0.076,-0.716l0,-0.177c0,-0.292,-0.02,-0.552,-0.059,-0.78c-0.04,-0.229,-0.105,-0.418,-0.2,-0.574c-0.094,-0.154,-0.219,-0.271,-0.376,-0.351c-0.156,-0.08,-0.352,-0.119,-0.586,-0.119c-0.391,0,-0.679,0.157,-0.861,0.474c-0.185,0.315,-0.277,0.771,-0.277,1.359c0,0.605,0.092,1.058,0.277,1.354C382.929,403.597,383.219,403.747,383.616,403.747z"/>
   <path fill="#8C8C8C"  stroke-width="0" d="M389.018,404.401c-0.318,0,-0.609,-0.053,-0.874,-0.16c-0.263,-0.106,-0.49,-0.264,-0.68,-0.469c-0.19,-0.207,-0.338,-0.461,-0.442,-0.766c-0.104,-0.306,-0.156,-0.651,-0.156,-1.045s0.049,-0.744,0.144,-1.055c0.096,-0.311,0.229,-0.574,0.405,-0.789c0.174,-0.216,0.382,-0.381,0.623,-0.492c0.241,-0.113,0.51,-0.17,0.802,-0.17c0.287,0,0.545,0.051,0.772,0.153c0.229,0.104,0.423,0.248,0.583,0.435c0.159,0.188,0.282,0.412,0.367,0.674c0.087,0.263,0.13,0.554,0.13,0.873l0,0.49l-3.008,0c0.015,0.559,0.133,0.971,0.354,1.234c0.222,0.263,0.551,0.396,0.987,0.396c0.149,0,0.285,-0.008,0.411,-0.021s0.248,-0.035,0.365,-0.063c0.118,-0.026,0.23,-0.063,0.342,-0.104s0.222,-0.089,0.334,-0.142l0,0.704c-0.116,0.055,-0.229,0.104,-0.341,0.144c-0.112,0.041,-0.226,0.074,-0.343,0.102c-0.117,0.024,-0.239,0.045,-0.365,0.056S389.167,404.401,389.018,404.401zM388.823,400.113c-0.331,0,-0.592,0.112,-0.783,0.339c-0.193,0.227,-0.307,0.555,-0.338,0.985l2.14,0c0,-0.196,-0.021,-0.378,-0.06,-0.541c-0.039,-0.164,-0.1,-0.304,-0.183,-0.419s-0.187,-0.205,-0.315,-0.27C389.156,400.143,389.003,400.113,388.823,400.113z"/>
   <path fill="#8C8C8C"  stroke-width="0" d="M397.832,404.315l-0.729,-2.678c-0.012,-0.053,-0.026,-0.111,-0.044,-0.176c-0.017,-0.065,-0.034,-0.136,-0.051,-0.207c-0.019,-0.072,-0.036,-0.146,-0.055,-0.223c-0.02,-0.074,-0.037,-0.148,-0.055,-0.222c-0.041,-0.169,-0.083,-0.341,-0.126,-0.521l-0.024,0c-0.041,0.182,-0.08,0.356,-0.117,0.524c-0.032,0.146,-0.066,0.294,-0.104,0.448c-0.037,0.152,-0.069,0.283,-0.103,0.391l-0.75,2.66l-0.917,0l-1.221,-4.771l0.83,0l0.57,2.539c0.029,0.129,0.059,0.27,0.086,0.423c0.028,0.151,0.057,0.303,0.082,0.452c0.026,0.148,0.05,0.288,0.07,0.421c0.02,0.132,0.037,0.238,0.049,0.322l0.025,0c0.015,-0.074,0.034,-0.177,0.059,-0.302c0.025,-0.126,0.052,-0.26,0.083,-0.399c0.031,-0.141,0.063,-0.28,0.093,-0.417c0.032,-0.139,0.063,-0.254,0.091,-0.351l0.778,-2.69l0.853,0l0.748,2.69c0.025,0.098,0.056,0.215,0.089,0.348c0.033,0.135,0.065,0.27,0.098,0.407c0.032,0.139,0.061,0.271,0.087,0.397c0.025,0.127,0.045,0.231,0.056,0.315l0.026,0c0.01,-0.074,0.022,-0.177,0.042,-0.302c0.02,-0.126,0.042,-0.265,0.067,-0.415c0.025,-0.149,0.054,-0.306,0.084,-0.464c0.03,-0.157,0.062,-0.306,0.094,-0.44L399.192,399.542l0.809,0l-1.234,4.771L397.832,404.313L397.832,404.315z"/>
   <path fill="#8C8C8C"  stroke-width="0" d="M400.787,398.252c0,-0.175,0.045,-0.3,0.133,-0.379c0.088,-0.078,0.197,-0.117,0.328,-0.117c0.063,0,0.123,0.011,0.181,0.028c0.056,0.019,0.104,0.049,0.147,0.089c0.042,0.041,0.075,0.092,0.101,0.154c0.023,0.063,0.037,0.137,0.037,0.224c0,0.168,-0.045,0.293,-0.138,0.376c-0.092,0.083,-0.2,0.123,-0.327,0.123c-0.131,0,-0.24,-0.04,-0.328,-0.12C400.833,398.549,400.787,398.422,400.787,398.252zM401.639,404.315l-0.791,0L400.848,399.542l0.791,0L401.639,404.315z"/>
   <path fill="#8C8C8C"  stroke-width="0" d="M404.595,403.754c0.052,0,0.111,-0.003,0.176,-0.01c0.066,-0.006,0.128,-0.013,0.189,-0.021c0.061,-0.009,0.116,-0.019,0.167,-0.031c0.051,-0.011,0.089,-0.021,0.115,-0.028l0,0.6c-0.037,0.017,-0.085,0.035,-0.144,0.052c-0.059,0.018,-0.122,0.033,-0.191,0.046c-0.068,0.015,-0.142,0.022,-0.217,0.03s-0.148,0.011,-0.221,0.011c-0.18,0,-0.347,-0.021,-0.5,-0.068c-0.153,-0.048,-0.286,-0.126,-0.397,-0.239c-0.111,-0.112,-0.198,-0.267,-0.263,-0.458c-0.063,-0.192,-0.095,-0.437,-0.095,-0.729L403.214,400.138l-0.674,0L402.54,399.786l0.673,-0.339l0.339,-0.999l0.456,0l0,1.096l1.199,0l0,0.596l-1.199,0l0,2.769c0,0.281,0.045,0.492,0.137,0.636C404.237,403.683,404.386,403.754,404.595,403.754z"/>
   <path fill="#8C8C8C"  stroke-width="0" d="M409.15,404.315l0,-3.073c0,-0.377,-0.076,-0.659,-0.228,-0.848c-0.152,-0.188,-0.391,-0.282,-0.715,-0.282c-0.234,0,-0.433,0.037,-0.592,0.111c-0.158,0.076,-0.286,0.188,-0.384,0.336c-0.097,0.148,-0.166,0.328,-0.208,0.544c-0.042,0.214,-0.063,0.461,-0.063,0.739l0,2.473l-0.791,0L406.169,397.552l0.791,0l0,2.008l-0.034,0.626l0.044,0c0.072,-0.124,0.158,-0.232,0.258,-0.323s0.209,-0.167,0.328,-0.229c0.118,-0.061,0.245,-0.104,0.378,-0.135c0.133,-0.027,0.27,-0.043,0.408,-0.043c0.531,0,0.93,0.139,1.198,0.416c0.268,0.275,0.401,0.719,0.401,1.326l0,3.117L409.15,404.315L409.15,404.315z"/>
  </g>
  <g  stroke-width="0">
   <path fill="#8C8C8C"  stroke-width="0" d="M430.91,404.299l-1.324,0L429.586,397.945l3.642,0l0,1.104l-2.316,0l0,1.639l2.156,0l0,1.1l-2.156,0L430.91,404.299L430.91,404.299z"/>
   <path fill="#8C8C8C"  stroke-width="0" d="M436.943,399.349c0.035,0,0.074,0.002,0.116,0.002c0.042,0.002,0.083,0.006,0.12,0.01c0.041,0.005,0.076,0.009,0.11,0.014c0.031,0.004,0.059,0.01,0.075,0.016l0,1.244c-0.022,-0.008,-0.056,-0.012,-0.095,-0.018c-0.04,-0.007,-0.083,-0.012,-0.128,-0.018c-0.045,-0.004,-0.09,-0.006,-0.133,-0.008c-0.044,-0.002,-0.08,-0.002,-0.108,-0.002c-0.171,0,-0.328,0.021,-0.472,0.064c-0.146,0.043,-0.269,0.113,-0.37,0.211s-0.183,0.225,-0.239,0.383c-0.057,0.157,-0.084,0.352,-0.084,0.581l0,2.474l-1.326,0L434.409,399.44l1.005,0l0.194,0.73l0.066,0c0.068,-0.125,0.145,-0.238,0.226,-0.34c0.081,-0.103,0.172,-0.189,0.272,-0.259c0.1,-0.071,0.212,-0.126,0.338,-0.165C436.636,399.369,436.782,399.349,436.943,399.349z"/>
   <path fill="#8C8C8C"  stroke-width="0" d="M438.261,398.184c0,-0.125,0.018,-0.228,0.056,-0.311c0.038,-0.084,0.089,-0.15,0.154,-0.2c0.065,-0.051,0.142,-0.086,0.229,-0.106c0.088,-0.02,0.184,-0.03,0.281,-0.03c0.099,0,0.191,0.01,0.277,0.03c0.088,0.02,0.164,0.055,0.229,0.106c0.066,0.05,0.117,0.116,0.156,0.2c0.04,0.083,0.059,0.186,0.059,0.311c0,0.122,-0.019,0.225,-0.059,0.309c-0.039,0.084,-0.09,0.151,-0.156,0.203c-0.063,0.05,-0.142,0.086,-0.229,0.108c-0.086,0.021,-0.18,0.032,-0.277,0.032c-0.099,0,-0.191,-0.012,-0.281,-0.032c-0.088,-0.021,-0.164,-0.059,-0.229,-0.108c-0.065,-0.051,-0.116,-0.119,-0.154,-0.203C438.28,398.409,438.261,398.306,438.261,398.184zM439.643,404.299l-1.325,0L438.318,399.44l1.325,0L439.643,404.299z"/>
   <path fill="#8C8C8C"  stroke-width="0" d="M443.052,403.33c0.13,0,0.254,-0.016,0.371,-0.045c0.117,-0.027,0.235,-0.064,0.357,-0.107l0,0.986c-0.124,0.063,-0.278,0.116,-0.463,0.157c-0.184,0.042,-0.385,0.063,-0.603,0.063c-0.211,0,-0.408,-0.024,-0.59,-0.073c-0.185,-0.05,-0.342,-0.137,-0.476,-0.259c-0.133,-0.123,-0.237,-0.288,-0.313,-0.495c-0.077,-0.208,-0.114,-0.468,-0.114,-0.781L441.221,400.435l-0.636,0L440.585,399.874l0.729,-0.443l0.383,-1.024l0.848,0l0,1.034l1.184,0l0,0.995l-1.184,0l0,2.343c0,0.188,0.048,0.327,0.141,0.417C442.779,403.285,442.901,403.33,443.052,403.33z"/>
   <path fill="#8C8C8C"  stroke-width="0" d="M447.925,404.299L444.352,404.299l0,-0.781l1.985,-3.064l-1.853,0L444.484,399.44l3.355,0l0,0.859l-1.92,2.985l2.004,0L447.925,404.299L447.925,404.299z"/>
   <path fill="#8C8C8C"  stroke-width="0" d="M448.864,398.184c0,-0.125,0.02,-0.228,0.057,-0.311c0.038,-0.084,0.09,-0.15,0.153,-0.2c0.065,-0.051,0.144,-0.086,0.23,-0.106s0.182,-0.03,0.28,-0.03c0.098,0,0.19,0.01,0.277,0.03c0.088,0.02,0.164,0.055,0.229,0.106c0.064,0.05,0.117,0.116,0.156,0.2c0.038,0.083,0.059,0.186,0.059,0.311c0,0.122,-0.021,0.225,-0.059,0.309c-0.039,0.084,-0.092,0.151,-0.156,0.203c-0.064,0.05,-0.143,0.086,-0.229,0.108c-0.086,0.021,-0.18,0.032,-0.277,0.032c-0.099,0,-0.192,-0.012,-0.28,-0.032c-0.088,-0.021,-0.165,-0.059,-0.23,-0.108c-0.063,-0.051,-0.115,-0.119,-0.153,-0.203C448.883,398.409,448.864,398.306,448.864,398.184zM450.246,404.299L448.922,404.299L448.922,399.44l1.324,0L450.246,404.299z"/>
   <path fill="#8C8C8C"  stroke-width="0" d="M455.896,404.299L454.572,404.299l0,-2.839c0,-0.351,-0.053,-0.613,-0.158,-0.787c-0.105,-0.176,-0.274,-0.265,-0.508,-0.265c-0.173,0,-0.317,0.035,-0.434,0.104c-0.116,0.07,-0.209,0.173,-0.276,0.31c-0.066,0.136,-0.115,0.304,-0.146,0.504c-0.029,0.2,-0.043,0.429,-0.043,0.687l0,2.286L451.682,404.299L451.682,399.44l1.012,0l0.181,0.621l0.073,0c0.069,-0.124,0.153,-0.23,0.253,-0.321c0.102,-0.089,0.21,-0.163,0.328,-0.221s0.245,-0.103,0.378,-0.128c0.136,-0.028,0.271,-0.043,0.409,-0.043c0.237,0,0.454,0.033,0.647,0.104c0.194,0.067,0.36,0.174,0.5,0.318c0.141,0.146,0.247,0.328,0.321,0.555c0.075,0.225,0.113,0.492,0.113,0.807l0,3.168L455.896,404.299L455.896,404.299z"/>
   <path fill="#8C8C8C"  stroke-width="0" d="M461.326,399.449l0,0.722l-0.708,0.221c0.059,0.1,0.1,0.201,0.122,0.308c0.021,0.106,0.033,0.22,0.033,0.343c0,0.246,-0.039,0.471,-0.116,0.676c-0.078,0.203,-0.193,0.379,-0.349,0.522c-0.152,0.146,-0.346,0.258,-0.578,0.337c-0.23,0.08,-0.5,0.119,-0.808,0.119c-0.067,0,-0.141,-0.003,-0.218,-0.012c-0.078,-0.007,-0.137,-0.015,-0.175,-0.021c-0.057,0.049,-0.104,0.101,-0.137,0.152c-0.033,0.054,-0.049,0.117,-0.049,0.193c0,0.061,0.018,0.108,0.056,0.146s0.087,0.065,0.147,0.087c0.06,0.022,0.133,0.036,0.214,0.044s0.165,0.012,0.251,0.012l0.756,0c0.236,0,0.446,0.025,0.631,0.081c0.186,0.055,0.342,0.135,0.472,0.246c0.129,0.109,0.229,0.249,0.299,0.419c0.069,0.169,0.104,0.372,0.104,0.605c0,0.275,-0.054,0.523,-0.164,0.745c-0.109,0.224,-0.274,0.41,-0.494,0.565c-0.219,0.154,-0.488,0.273,-0.813,0.355c-0.324,0.082,-0.699,0.123,-1.126,0.123c-0.329,0,-0.618,-0.031,-0.864,-0.094c-0.247,-0.063,-0.451,-0.15,-0.617,-0.27c-0.165,-0.116,-0.288,-0.258,-0.371,-0.424c-0.084,-0.164,-0.125,-0.353,-0.125,-0.561c0,-0.177,0.031,-0.33,0.093,-0.46c0.061,-0.131,0.143,-0.243,0.243,-0.336c0.102,-0.093,0.218,-0.168,0.347,-0.227c0.129,-0.058,0.262,-0.103,0.396,-0.134c-0.061,-0.026,-0.12,-0.063,-0.181,-0.109c-0.059,-0.047,-0.113,-0.1,-0.161,-0.159c-0.047,-0.063,-0.086,-0.129,-0.116,-0.203c-0.031,-0.072,-0.047,-0.15,-0.047,-0.23c0,-0.093,0.015,-0.178,0.04,-0.252c0.029,-0.076,0.068,-0.146,0.12,-0.212c0.052,-0.064,0.117,-0.126,0.196,-0.184c0.078,-0.06,0.166,-0.117,0.264,-0.18c-0.254,-0.11,-0.456,-0.287,-0.604,-0.53c-0.15,-0.244,-0.225,-0.529,-0.225,-0.859c0,-0.26,0.04,-0.494,0.121,-0.699c0.081,-0.207,0.2,-0.381,0.356,-0.523c0.155,-0.144,0.35,-0.252,0.582,-0.328c0.231,-0.076,0.499,-0.113,0.801,-0.113c0.057,0,0.122,0.004,0.194,0.012s0.145,0.018,0.216,0.025c0.07,0.01,0.137,0.021,0.196,0.033c0.061,0.01,0.109,0.021,0.146,0.029L461.326,399.449L461.326,399.449zM457.849,404.986c0,0.073,0.017,0.145,0.047,0.211c0.03,0.068,0.08,0.129,0.15,0.182c0.068,0.052,0.16,0.094,0.272,0.124c0.113,0.03,0.252,0.046,0.417,0.046c0.452,0,0.792,-0.063,1.021,-0.191c0.229,-0.127,0.343,-0.298,0.343,-0.514c0,-0.183,-0.07,-0.304,-0.213,-0.364c-0.143,-0.06,-0.361,-0.091,-0.66,-0.091l-0.613,0c-0.077,0,-0.162,0.009,-0.252,0.027c-0.09,0.018,-0.172,0.052,-0.248,0.099c-0.075,0.046,-0.139,0.108,-0.188,0.184S457.849,404.871,457.849,404.986zM458.328,401.031c0,0.263,0.049,0.468,0.147,0.612c0.098,0.146,0.248,0.217,0.447,0.217c0.209,0,0.358,-0.07,0.451,-0.217c0.094,-0.145,0.14,-0.35,0.14,-0.612c0,-0.261,-0.046,-0.468,-0.137,-0.622c-0.092,-0.152,-0.243,-0.229,-0.454,-0.229C458.525,400.179,458.328,400.462,458.328,401.031z"/>
   <path fill="#8C8C8C"  stroke-width="0" d="M462.076,403.678c0,-0.136,0.02,-0.251,0.059,-0.346c0.04,-0.095,0.094,-0.172,0.163,-0.229c0.069,-0.058,0.149,-0.101,0.244,-0.126c0.092,-0.026,0.191,-0.039,0.299,-0.039c0.102,0,0.198,0.013,0.289,0.039c0.092,0.025,0.172,0.068,0.242,0.126c0.068,0.057,0.123,0.134,0.163,0.229c0.041,0.095,0.062,0.21,0.062,0.346c0,0.13,-0.021,0.242,-0.062,0.335c-0.04,0.093,-0.095,0.17,-0.163,0.229c-0.07,0.062,-0.15,0.104,-0.242,0.133c-0.091,0.027,-0.188,0.042,-0.289,0.042c-0.106,0,-0.207,-0.015,-0.299,-0.042c-0.095,-0.027,-0.175,-0.071,-0.244,-0.133c-0.069,-0.061,-0.123,-0.138,-0.163,-0.229C462.094,403.92,462.076,403.808,462.076,403.678z"/>
   <path fill="#8C8C8C"  stroke-width="0" d="M469.035,401.86c0,0.406,-0.052,0.767,-0.153,1.079c-0.104,0.313,-0.251,0.576,-0.443,0.79c-0.192,0.215,-0.428,0.378,-0.704,0.489c-0.277,0.111,-0.587,0.167,-0.933,0.167c-0.321,0,-0.617,-0.056,-0.886,-0.167c-0.271,-0.112,-0.503,-0.274,-0.698,-0.489c-0.195,-0.214,-0.35,-0.479,-0.458,-0.79c-0.11,-0.313,-0.165,-0.673,-0.165,-1.079c0,-0.402,0.051,-0.76,0.154,-1.072c0.103,-0.314,0.25,-0.576,0.442,-0.789C465.383,399.785,465.617,399.624,465.892,399.515s0.587,-0.164,0.937,-0.164c0.319,0,0.615,0.055,0.886,0.164c0.27,0.111,0.502,0.271,0.695,0.484c0.197,0.213,0.351,0.477,0.459,0.789C468.979,401.1,469.035,401.458,469.035,401.86zM465.949,401.86c0,0.484,0.068,0.851,0.205,1.093c0.137,0.246,0.357,0.368,0.664,0.368c0.306,0,0.524,-0.123,0.66,-0.37c0.137,-0.245,0.205,-0.608,0.205,-1.091s-0.068,-0.846,-0.205,-1.084c-0.136,-0.238,-0.358,-0.357,-0.668,-0.357c-0.305,0,-0.523,0.119,-0.659,0.357C466.016,401.015,465.949,401.378,465.949,401.86z"/>
   <path fill="#8C8C8C"  stroke-width="0" d="M472.755,399.349c0.035,0,0.073,0.002,0.115,0.002c0.042,0.002,0.083,0.006,0.12,0.01c0.04,0.005,0.076,0.009,0.109,0.014c0.033,0.004,0.059,0.01,0.076,0.016l0,1.244c-0.023,-0.008,-0.055,-0.012,-0.095,-0.018c-0.041,-0.007,-0.083,-0.012,-0.13,-0.018c-0.045,-0.004,-0.089,-0.006,-0.132,-0.008c-0.045,-0.002,-0.08,-0.002,-0.108,-0.002c-0.171,0,-0.328,0.021,-0.473,0.064c-0.144,0.043,-0.267,0.113,-0.37,0.211c-0.102,0.098,-0.182,0.225,-0.237,0.383c-0.058,0.157,-0.084,0.352,-0.084,0.581l0,2.474l-1.326,0L470.22,399.44l1.004,0l0.195,0.73l0.065,0c0.068,-0.125,0.146,-0.238,0.226,-0.34c0.081,-0.103,0.172,-0.189,0.271,-0.259c0.101,-0.071,0.213,-0.126,0.339,-0.165C472.449,399.369,472.593,399.349,472.755,399.349z"/>
   <path fill="#8C8C8C"  stroke-width="0" d="M478.063,399.449l0,0.722l-0.708,0.221c0.058,0.1,0.099,0.201,0.121,0.308s0.034,0.22,0.034,0.343c0,0.246,-0.039,0.471,-0.116,0.676c-0.079,0.203,-0.194,0.379,-0.349,0.522c-0.153,0.146,-0.348,0.258,-0.578,0.337c-0.232,0.08,-0.501,0.119,-0.809,0.119c-0.067,0,-0.141,-0.003,-0.219,-0.012c-0.078,-0.007,-0.135,-0.015,-0.173,-0.021c-0.058,0.049,-0.104,0.101,-0.137,0.152c-0.034,0.054,-0.05,0.117,-0.05,0.193c0,0.061,0.019,0.108,0.057,0.146c0.037,0.037,0.086,0.065,0.146,0.087c0.062,0.021,0.133,0.036,0.215,0.044c0.08,0.008,0.164,0.012,0.251,0.012l0.756,0c0.234,0,0.445,0.025,0.63,0.081c0.186,0.055,0.343,0.135,0.472,0.246c0.129,0.109,0.229,0.249,0.298,0.419c0.07,0.169,0.104,0.372,0.104,0.605c0,0.275,-0.054,0.523,-0.165,0.745c-0.109,0.224,-0.275,0.41,-0.493,0.565c-0.219,0.154,-0.489,0.273,-0.815,0.355c-0.323,0.082,-0.698,0.123,-1.125,0.123c-0.329,0,-0.617,-0.031,-0.864,-0.094c-0.246,-0.063,-0.451,-0.15,-0.617,-0.27c-0.164,-0.116,-0.287,-0.258,-0.371,-0.424c-0.083,-0.164,-0.124,-0.353,-0.124,-0.561c0,-0.177,0.03,-0.33,0.091,-0.46c0.063,-0.131,0.144,-0.243,0.244,-0.336c0.103,-0.093,0.217,-0.168,0.346,-0.227c0.129,-0.058,0.263,-0.103,0.398,-0.134c-0.062,-0.026,-0.121,-0.063,-0.182,-0.109c-0.06,-0.047,-0.113,-0.1,-0.16,-0.159c-0.047,-0.063,-0.087,-0.129,-0.117,-0.203c-0.03,-0.073,-0.045,-0.151,-0.045,-0.231c0,-0.093,0.014,-0.178,0.04,-0.252c0.027,-0.076,0.067,-0.146,0.12,-0.212c0.051,-0.064,0.117,-0.126,0.194,-0.184c0.078,-0.06,0.166,-0.117,0.266,-0.18c-0.255,-0.109,-0.456,-0.287,-0.606,-0.529c-0.148,-0.244,-0.223,-0.531,-0.223,-0.861c0,-0.26,0.039,-0.493,0.121,-0.698c0.081,-0.207,0.199,-0.382,0.354,-0.524c0.156,-0.143,0.351,-0.252,0.583,-0.328c0.231,-0.074,0.499,-0.111,0.8,-0.111c0.059,0,0.123,0.003,0.195,0.011s0.146,0.017,0.215,0.026c0.072,0.009,0.138,0.021,0.198,0.031c0.062,0.012,0.108,0.021,0.145,0.03L478.063,399.448L478.063,399.449zM474.587,404.986c0,0.073,0.017,0.145,0.046,0.211c0.031,0.068,0.081,0.129,0.149,0.182c0.07,0.052,0.161,0.094,0.273,0.124c0.114,0.03,0.252,0.046,0.418,0.046c0.451,0,0.792,-0.063,1.021,-0.191c0.229,-0.127,0.343,-0.298,0.343,-0.514c0,-0.183,-0.071,-0.304,-0.214,-0.364s-0.361,-0.091,-0.66,-0.091l-0.612,0c-0.079,0,-0.163,0.009,-0.252,0.027c-0.09,0.019,-0.173,0.052,-0.248,0.099c-0.076,0.046,-0.139,0.108,-0.188,0.184C474.613,404.773,474.587,404.871,474.587,404.986zM475.064,401.031c0,0.263,0.049,0.468,0.148,0.612c0.099,0.146,0.248,0.217,0.447,0.217c0.209,0,0.358,-0.07,0.451,-0.217c0.094,-0.145,0.141,-0.35,0.141,-0.612c0,-0.261,-0.046,-0.468,-0.138,-0.622c-0.092,-0.152,-0.243,-0.229,-0.454,-0.229C475.262,400.179,475.064,400.462,475.064,401.031z"/>
  </g>
  <g  stroke-width="0">
   <path fill="#8C8C8C"  stroke-width="0" d="M423.657,396.569l-8.146,0c-0.532,0,-0.965,0.432,-0.965,0.964l0,8.146c0,0.531,0.433,0.964,0.965,0.964l5.55,0l3.557,-3.558L424.618,397.533C424.621,397,424.189,396.569,423.657,396.569zM421.98,400.298l-1.075,0l0,0.401l1.075,0l0,1.601l-2.196,0l0,2.058l-2.572,0l0,-4.67l0.988,-0.99l3.779,0l0,1.603l0.001,0L421.98,400.298z"/>
  </g>
 </g>
 <g transform="translate(0,230.225)">
  <g  id="board" stroke-width="0">
   <rect width="479.423" x="0.287999" y="0.288" stroke-opacity="1" fill="#338040"  height="159.424" stroke="#338040" fill-opacity="0.5" id="boardoutline" stroke-width="0.575999"/>
  </g>
 </g>
 <g transform="translate(234.4,73.4252)">
  <g  id="copper0" stroke-width="0">
   <circle fill="none" cx="1.98"  cy="2.484" stroke="#FFBF00" id="connector30pin" r="1.98" stroke-width="1.5"/>
   <circle fill="none" cx="9.18"  cy="2.484" stroke="#FFBF00" id="connector31pin" r="1.98" stroke-width="1.5"/>
   <circle fill="none" cx="16.884"  cy="2.484" stroke="#FFBF00" id="connector0pin" r="1.98" stroke-width="1.5"/>
   <circle fill="none" cx="24.084"  cy="2.484" stroke="#FFBF00" id="connector1pin" r="1.98" stroke-width="1.5"/>
   <circle fill="none" cx="31.284"  cy="2.484" stroke="#FFBF00" id="connector2pin" r="1.98" stroke-width="1.5"/>
   <circle fill="none" cx="38.485"  cy="2.484" stroke="#FFBF00" id="connector3pin" r="1.98" stroke-width="1.5"/>
   <circle fill="none" cx="45.685"  cy="2.484" stroke="#FFBF00" id="connector4pin" r="1.98" stroke-width="1.5"/>
   <circle fill="none" cx="52.884"  cy="2.484" stroke="#FFBF00" id="connector5pin" r="1.98" stroke-width="1.5"/>
   <circle fill="none" cx="60.084"  cy="2.484" stroke="#FFBF00" id="connector6pin" r="1.98" stroke-width="1.5"/>
   <circle fill="none" cx="67.284"  cy="2.484" stroke="#FFBF00" id="connector7pin" r="1.98" stroke-width="1.5"/>
   <circle fill="none" cx="79.525"  cy="2.484" stroke="#FFBF00" id="connector8pin" r="1.98" stroke-width="1.5"/>
   <circle fill="none" cx="86.725"  cy="2.484" stroke="#FFBF00" id="connector9pin" r="1.98" stroke-width="1.5"/>
   <circle fill="none" cx="93.924"  cy="2.484" stroke="#FFBF00" id="connector10pin" r="1.98" stroke-width="1.5"/>
   <circle fill="none" cx="101.124"  cy="2.484" stroke="#FFBF00" id="connector11pin" r="1.98" stroke-width="1.5"/>
   <circle fill="none" cx="108.324"  cy="2.484" stroke="#FFBF00" id="connector12pin" r="1.98" stroke-width="1.5"/>
   <circle fill="none" cx="115.525"  cy="2.484" stroke="#FFBF00" id="connector13pin" r="1.98" stroke-width="1.5"/>
   <circle fill="none" cx="122.725"  cy="2.484" stroke="#FFBF00" id="connector14pin" r="1.98" stroke-width="1.5"/>
   <circle fill="none" cx="129.924"  cy="2.484" stroke="#FFBF00" id="connector15pin" r="1.98" stroke-width="1.5"/>
   <circle fill="none" cx="29.124"  cy="139.284" stroke="#FFBF00" id="connector28pin" r="1.98" stroke-width="1.5"/>
   <circle fill="none" cx="36.324"  cy="139.284" stroke="#FFBF00" id="connector29pin" r="1.98" stroke-width="1.5"/>
   <circle fill="none" cx="43.525"  cy="139.284" stroke="#FFBF00" id="connector16pin" r="1.98" stroke-width="1.5"/>
   <circle fill="none" cx="50.725"  cy="139.284" stroke="#FFBF00" id="connector17pin" r="1.98" stroke-width="1.5"/>
   <circle fill="none" cx="57.924"  cy="139.284" stroke="#FFBF00" id="connector18pin" r="1.98" stroke-width="1.5"/>
   <circle fill="none" cx="65.124"  cy="139.284" stroke="#FFBF00" id="connector19pin" r="1.98" stroke-width="1.5"/>
   <circle fill="none" cx="72.324"  cy="139.284" stroke="#FFBF00" id="connector20pin" r="1.98" stroke-width="1.5"/>
   <circle fill="none" cx="79.525"  cy="139.284" stroke="#FFBF00" id="connector21pin" r="1.98" stroke-width="1.5"/>
   <circle fill="none" cx="93.924"  cy="139.284" stroke="#FFBF00" id="connector22pin" r="1.98" stroke-width="1.5"/>
   <circle fill="none" cx="101.124"  cy="139.284" stroke="#FFBF00" id="connector23pin" r="1.98" stroke-width="1.5"/>
   <circle fill="none" cx="108.324"  cy="139.284" stroke="#FFBF00" id="connector24pin" r="1.98" stroke-width="1.5"/>
   <circle fill="none" cx="115.525"  cy="139.284" stroke="#FFBF00" id="connector25pin" r="1.98" stroke-width="1.5"/>
   <circle fill="none" cx="122.725"  cy="139.284" stroke="#FFBF00" id="connector26pin" r="1.98" stroke-width="1.5"/>
   <circle fill="none" cx="129.924"  cy="139.284" stroke="#FFBF00" id="connector27pin" r="1.98" stroke-width="1.5"/>
  </g>
 </g>
 <g transform="translate(107.362,224.463)">
  <g transform="matrix(0,1,-1,0,0,0)">
   <g  id="copper0" stroke-width="0">
    <circle fill="none" cx="110.324"  cy="68.4" connectorname="GNDT" stroke="#F7BD13" r="1.872" id="connector8pad" stroke-width="0.864001"/>
    <rect width="3.74401" x="108.452" y="66.528" fill="none"  height="3.744" stroke="#F7BD13" stroke-width="0.864001"/>
    <circle fill="none" cx="110.324"  cy="61.2" connectorname="CP" stroke="#F7BD13" r="1.872" id="connector9pad" stroke-width="0.864001"/>
    <circle fill="none" cx="110.324"  cy="54" connectorname="ANT2" stroke="#F7BD13" r="1.872" id="connector10pad" stroke-width="0.864001"/>
    <circle fill="none" cx="110.324"  cy="46.8" connectorname="ANT1" stroke="#F7BD13" r="1.872" id="connector11pad" stroke-width="0.864001"/>
    <circle fill="none" cx="110.324"  cy="39.6" connectorname="TX-O-RS232" stroke="#F7BD13" r="1.872" id="connector12pad" stroke-width="0.864001"/>
    <circle fill="none" cx="110.324"  cy="32.4" connectorname="TX-O" stroke="#F7BD13" r="1.872" id="connector13pad" stroke-width="0.864001"/>
    <circle fill="none" cx="110.324"  cy="25.2" connectorname="GND" stroke="#F7BD13" r="1.872" id="connector14pad" stroke-width="0.864001"/>
    <circle fill="none" cx="110.324"  cy="18" connectorname="VCC" stroke="#F7BD13" r="1.872" id="connector15pad" stroke-width="0.864001"/>
   </g>
  </g>
 </g>
 <g transform="translate(7.2,346.388)">
  <g  id="copper0" stroke-width="0">
   <g  id="copper1" stroke-width="0">
    <circle fill="none" cx="8.7876"  cy="10.6336" stroke="#F7BD13" id="connector1pad" r="1.7008" stroke-width="1.13384"/>
    <rect width="3.4016" x="7.0868" y="8.9328" fill="none"  height="3.4016" stroke="#F7BD13" stroke-width="1.13384"/>
    <circle fill="none" cx="8.7876"  cy="3.5464" stroke="#F7BD13" id="connector0pad" r="1.7008" stroke-width="1.13384"/>
   </g>
  </g>
 </g>
 <g transform="translate(230.412,5.4376)">
  <g  id="copper0" stroke-width="0">
   <g  id="copper1" stroke-width="0">
    <circle fill="none" cx="8.7876"  cy="10.6336" stroke="#F7BD13" id="connector1pad" r="1.7008" stroke-width="1.13384"/>
    <rect width="3.4016" x="7.0868" y="8.9328" fill="none"  height="3.4016" stroke="#F7BD13" stroke-width="1.13384"/>
    <circle fill="none" cx="8.7876"  cy="3.5464" stroke="#F7BD13" id="connector0pad" r="1.7008" stroke-width="1.13384"/>
   </g>
  </g>
 </g>
 <g transform="translate(97.7984,346.388)">
  <g  id="copper0" stroke-width="0">
   <g  id="copper1" stroke-width="0">
    <rect width="3.96" x="0.72" y="1.116" fill="none"  height="3.96" stroke="rgb(255, 191, 0)" stroke-width="1.44"/>
    <circle fill="none" cx="2.7"  cy="3.096" stroke="rgb(255, 191, 0)" r="1.98" id="connector0pin" stroke-width="1.44"/>
    <circle fill="none" cx="31.5"  cy="3.096" stroke="rgb(255, 191, 0)" r="1.98" id="connector1pin" stroke-width="1.44"/>
   </g>
  </g>
 </g>
 <g transform="translate(222.1,11.1292)">
  <g  id="copper0" stroke-width="0">
   <g  id="copper1" stroke-width="0">
    <rect width="3.96" x="0.72" y="1.116" fill="none"  height="3.96" stroke="rgb(255, 191, 0)" stroke-width="1.44"/>
    <circle fill="none" cx="2.7"  cy="3.096" stroke="rgb(255, 191, 0)" r="1.98" id="connector0pin" stroke-width="1.44"/>
    <circle fill="none" cx="31.5"  cy="3.096" stroke="rgb(255, 191, 0)" r="1.98" id="connector1pin" stroke-width="1.44"/>
   </g>
  </g>
 </g>
 <g transform="translate(234.4,73.4252)">
  <g  id="copper1" stroke-width="0">
   <g  id="copper0" stroke-width="0">
    <circle fill="none" cx="1.98"  cy="2.484" stroke="#FFBF00" id="connector30pin" r="1.98" stroke-width="1.5"/>
    <circle fill="none" cx="9.18"  cy="2.484" stroke="#FFBF00" id="connector31pin" r="1.98" stroke-width="1.5"/>
    <circle fill="none" cx="16.884"  cy="2.484" stroke="#FFBF00" id="connector0pin" r="1.98" stroke-width="1.5"/>
    <circle fill="none" cx="24.084"  cy="2.484" stroke="#FFBF00" id="connector1pin" r="1.98" stroke-width="1.5"/>
    <circle fill="none" cx="31.284"  cy="2.484" stroke="#FFBF00" id="connector2pin" r="1.98" stroke-width="1.5"/>
    <circle fill="none" cx="38.485"  cy="2.484" stroke="#FFBF00" id="connector3pin" r="1.98" stroke-width="1.5"/>
    <circle fill="none" cx="45.685"  cy="2.484" stroke="#FFBF00" id="connector4pin" r="1.98" stroke-width="1.5"/>
    <circle fill="none" cx="52.884"  cy="2.484" stroke="#FFBF00" id="connector5pin" r="1.98" stroke-width="1.5"/>
    <circle fill="none" cx="60.084"  cy="2.484" stroke="#FFBF00" id="connector6pin" r="1.98" stroke-width="1.5"/>
    <circle fill="none" cx="67.284"  cy="2.484" stroke="#FFBF00" id="connector7pin" r="1.98" stroke-width="1.5"/>
    <circle fill="none" cx="79.525"  cy="2.484" stroke="#FFBF00" id="connector8pin" r="1.98" stroke-width="1.5"/>
    <circle fill="none" cx="86.725"  cy="2.484" stroke="#FFBF00" id="connector9pin" r="1.98" stroke-width="1.5"/>
    <circle fill="none" cx="93.924"  cy="2.484" stroke="#FFBF00" id="connector10pin" r="1.98" stroke-width="1.5"/>
    <circle fill="none" cx="101.124"  cy="2.484" stroke="#FFBF00" id="connector11pin" r="1.98" stroke-width="1.5"/>
    <circle fill="none" cx="108.324"  cy="2.484" stroke="#FFBF00" id="connector12pin" r="1.98" stroke-width="1.5"/>
    <circle fill="none" cx="115.525"  cy="2.484" stroke="#FFBF00" id="connector13pin" r="1.98" stroke-width="1.5"/>
    <circle fill="none" cx="122.725"  cy="2.484" stroke="#FFBF00" id="connector14pin" r="1.98" stroke-width="1.5"/>
    <circle fill="none" cx="129.924"  cy="2.484" stroke="#FFBF00" id="connector15pin" r="1.98" stroke-width="1.5"/>
    <circle fill="none" cx="29.124"  cy="139.284" stroke="#FFBF00" id="connector28pin" r="1.98" stroke-width="1.5"/>
    <circle fill="none" cx="36.324"  cy="139.284" stroke="#FFBF00" id="connector29pin" r="1.98" stroke-width="1.5"/>
    <circle fill="none" cx="43.525"  cy="139.284" stroke="#FFBF00" id="connector16pin" r="1.98" stroke-width="1.5"/>
    <circle fill="none" cx="50.725"  cy="139.284" stroke="#FFBF00" id="connector17pin" r="1.98" stroke-width="1.5"/>
    <circle fill="none" cx="57.924"  cy="139.284" stroke="#FFBF00" id="connector18pin" r="1.98" stroke-width="1.5"/>
    <circle fill="none" cx="65.124"  cy="139.284" stroke="#FFBF00" id="connector19pin" r="1.98" stroke-width="1.5"/>
    <circle fill="none" cx="72.324"  cy="139.284" stroke="#FFBF00" id="connector20pin" r="1.98" stroke-width="1.5"/>
    <circle fill="none" cx="79.525"  cy="139.284" stroke="#FFBF00" id="connector21pin" r="1.98" stroke-width="1.5"/>
    <circle fill="none" cx="93.924"  cy="139.284" stroke="#FFBF00" id="connector22pin" r="1.98" stroke-width="1.5"/>
    <circle fill="none" cx="101.124"  cy="139.284" stroke="#FFBF00" id="connector23pin" r="1.98" stroke-width="1.5"/>
    <circle fill="none" cx="108.324"  cy="139.284" stroke="#FFBF00" id="connector24pin" r="1.98" stroke-width="1.5"/>
    <circle fill="none" cx="115.525"  cy="139.284" stroke="#FFBF00" id="connector25pin" r="1.98" stroke-width="1.5"/>
    <circle fill="none" cx="122.725"  cy="139.284" stroke="#FFBF00" id="connector26pin" r="1.98" stroke-width="1.5"/>
    <circle fill="none" cx="129.924"  cy="139.284" stroke="#FFBF00" id="connector27pin" r="1.98" stroke-width="1.5"/>
   </g>
  </g>
 </g>
 <g transform="translate(107.362,224.463)">
  <g transform="matrix(0,1,-1,0,0,0)">
   <g  id="copper1" stroke-width="0">
    <g  id="copper0" stroke-width="0">
     <circle fill="none" cx="110.324"  cy="68.4" connectorname="GNDT" stroke="#F7BD13" r="1.872" id="connector8pad" stroke-width="0.864001"/>
     <rect width="3.74401" x="108.452" y="66.528" fill="none"  height="3.744" stroke="#F7BD13" stroke-width="0.864001"/>
     <circle fill="none" cx="110.324"  cy="61.2" connectorname="CP" stroke="#F7BD13" r="1.872" id="connector9pad" stroke-width="0.864001"/>
     <circle fill="none" cx="110.324"  cy="54" connectorname="ANT2" stroke="#F7BD13" r="1.872" id="connector10pad" stroke-width="0.864001"/>
     <circle fill="none" cx="110.324"  cy="46.8" connectorname="ANT1" stroke="#F7BD13" r="1.872" id="connector11pad" stroke-width="0.864001"/>
     <circle fill="none" cx="110.324"  cy="39.6" connectorname="TX-O-RS232" stroke="#F7BD13" r="1.872" id="connector12pad" stroke-width="0.864001"/>
     <circle fill="none" cx="110.324"  cy="32.4" connectorname="TX-O" stroke="#F7BD13" r="1.872" id="connector13pad" stroke-width="0.864001"/>
     <circle fill="none" cx="110.324"  cy="25.2" connectorname="GND" stroke="#F7BD13" r="1.872" id="connector14pad" stroke-width="0.864001"/>
     <circle fill="none" cx="110.324"  cy="18" connectorname="VCC" stroke="#F7BD13" r="1.872" id="connector15pad" stroke-width="0.864001"/>
    </g>
   </g>
  </g>
 </g>
 <g transform="translate(7.2,346.388)">
  <g  id="copper1" stroke-width="0">
   <circle fill="none" cx="8.7876"  cy="10.6336" stroke="#F7BD13" id="connector1pad" r="1.7008" stroke-width="1.13384"/>
   <rect width="3.4016" x="7.0868" y="8.9328" fill="none"  height="3.4016" stroke="#F7BD13" stroke-width="1.13384"/>
   <circle fill="none" cx="8.7876"  cy="3.5464" stroke="#F7BD13" id="connector0pad" r="1.7008" stroke-width="1.13384"/>
  </g>
 </g>
 <g transform="translate(230.412,5.4376)">
  <g  id="copper1" stroke-width="0">
   <circle fill="none" cx="8.7876"  cy="10.6336" stroke="#F7BD13" id="connector1pad" r="1.7008" stroke-width="1.13384"/>
   <rect width="3.4016" x="7.0868" y="8.9328" fill="none"  height="3.4016" stroke="#F7BD13" stroke-width="1.13384"/>
   <circle fill="none" cx="8.7876"  cy="3.5464" stroke="#F7BD13" id="connector0pad" r="1.7008" stroke-width="1.13384"/>
  </g>
 </g>
 <g transform="translate(97.7984,346.388)">
  <g  id="copper1" stroke-width="0">
   <rect width="3.96" x="0.72" y="1.116" fill="none"  height="3.96" stroke="rgb(255, 191, 0)" stroke-width="1.44"/>
   <circle fill="none" cx="2.7"  cy="3.096" stroke="rgb(255, 191, 0)" r="1.98" id="connector0pin" stroke-width="1.44"/>
   <circle fill="none" cx="31.5"  cy="3.096" stroke="rgb(255, 191, 0)" r="1.98" id="connector1pin" stroke-width="1.44"/>
  </g>
 </g>
 <g transform="translate(222.1,11.1292)">
  <g  id="copper1" stroke-width="0">
   <rect width="3.96" x="0.72" y="1.116" fill="none"  height="3.96" stroke="rgb(255, 191, 0)" stroke-width="1.44"/>
   <circle fill="none" cx="2.7"  cy="3.096" stroke="rgb(255, 191, 0)" r="1.98" id="connector0pin" stroke-width="1.44"/>
   <circle fill="none" cx="31.5"  cy="3.096" stroke="rgb(255, 191, 0)" r="1.98" id="connector1pin" stroke-width="1.44"/>
  </g>
 </g>
 <line stroke="#ffcb33" stroke-linecap="round" y1="349.934" x1="17.9219" y2="349.934" stroke-width="1.728" x2="38.9624"/>
 <line stroke="#ffcb33" stroke-linecap="round" y1="349.934" x1="38.9624" y2="339.036" stroke-width="1.728" x2="38.9624"/>
 <line stroke="#ffcb33" stroke-linecap="round" y1="339.036" x1="38.9624" y2="339.036" stroke-width="1.728" x2="82.1624"/>
 <line stroke="#ffcb33" stroke-linecap="round" y1="339.036" x1="82.1624" y2="337.028" stroke-width="1.728" x2="82.1624"/>
 <line stroke="#ffcb33" stroke-linecap="round" y1="339.036" x1="38.9624" y2="337.028" stroke-width="1.728" x2="38.9624"/>
 <line stroke="#000000" stroke-linecap="round" y1="74.3429" x1="258.033" y2="10.4579" stroke-width="0.56" x2="239.625"/>
 <line stroke="#000000" stroke-linecap="round" y1="333.886" x1="83.7664" y2="213.507" stroke-width="0.56" x2="298.103"/>
 <line stroke="#ffe24d" stroke-linecap="round" y1="355.711" x1="16.7856" y2="15.6429" stroke-width="0.56" x2="223.936"/>
 <line stroke="#157de6" stroke-linecap="round" y1="17.4874" x1="238.611" y2="347.951" stroke-width="0.56" x2="101.136"/>
 <line stroke="#ff7033" stroke-linecap="round" y1="74.5505" x1="293.583" y2="15.6089" stroke-width="0.56" x2="254.517"/>
 <line stroke="#47cc79" stroke-linecap="round" y1="77.2603" x1="313.013" y2="348.108" stroke-width="0.56" x2="130.227"/>
 <line stroke="#ab58a2" stroke-linecap="round" y1="76.996" x1="363.109" y2="333.56" stroke-width="0.56" x2="76.3334"/>
 <line stroke="#cc1414" stroke-linecap="round" y1="213.549" x1="290.927" y2="333.839" stroke-width="0.56" x2="90.9388"/>
 <g transform="translate(0,230.225)">
  <g  id="silkscreen" stroke-width="0">
   <line  stroke="#FFFFFF" y1="0.288" x1="0.287999" y2="0.288" stroke-width="0.575999" x2="479.423"/>
   <line  stroke="#FFFFFF" y1="0.288" x1="479.423" y2="159.424" stroke-width="0.575999" x2="479.423"/>
   <line  stroke="#FFFFFF" y1="159.424" x1="479.423" y2="159.424" stroke-width="0.575999" x2="0.287999"/>
   <line  stroke="#FFFFFF" y1="159.424" x1="0.287999" y2="0.288" stroke-width="0.575999" x2="0.287999"/>
  </g>
 </g>
 <g transform="translate(107.362,224.463)">
  <g transform="matrix(0,1,-1,0,0,0)">
   <g  id="silkscreen" stroke-width="0">
    <path fill="none"  stroke="white" stroke-width="0.576001" d="M2.60065,86.112L113.636,86.112L113.636,0.288L2.60065,0.288L2.60065,86.112M90.6567,54.2551a0.845857,0.845856,0,1,1,1.69172,0,0.845857,0.845856,0,1,1,-1.69172,0zM73.2234,36.822a0.845857,0.845856,0,1,1,1.69172,0,0.845857,0.845856,0,1,1,-1.69172,0zM5.13242,7.2a4.39201,4.392,0,1,1,8.78401,0,4.39201,4.392,0,1,1,-8.78401,0zM5.13242,79.2a4.39201,4.392,0,1,1,8.78401,0,4.39201,4.392,0,1,1,-8.78401,0zM102.332,7.2a4.39201,4.392,0,1,1,8.78401,0,4.39201,4.392,0,1,1,-8.78401,0zM102.332,79.2a4.39201,4.392,0,1,1,8.78401,0,4.39201,4.392,0,1,1,-8.78401,0zM15.7368,36.9638a0.987589,0.987588,0,1,1,1.97518,0,0.987589,0.987588,0,1,1,-1.97518,0zM15.7368,49.4362a0.987589,0.987588,0,1,1,1.97518,0,0.987589,0.987588,0,1,1,-1.97518,0z"/>
    <g  stroke-width="0">
     <title >element:JP1</title>
     <g  stroke-width="0">
      <title >package:1X08</title>
      <line  stroke="white" stroke-linecap="round" y1="27" x1="106.724" y2="23.4" stroke-width="0.576001" x2="106.724"/>
      <line  stroke="white" stroke-linecap="round" y1="23.4" x1="106.724" y2="21.6" stroke-width="0.576001" x2="108.524"/>
      <line  stroke="white" stroke-linecap="round" y1="21.6" x1="112.124" y2="23.4" stroke-width="0.576001" x2="113.924"/>
      <line  stroke="white" stroke-linecap="round" y1="36" x1="108.524" y2="34.2" stroke-width="0.576001" x2="106.724"/>
      <line  stroke="white" stroke-linecap="round" y1="34.2" x1="106.724" y2="30.6" stroke-width="0.576001" x2="106.724"/>
      <line  stroke="white" stroke-linecap="round" y1="30.6" x1="106.724" y2="28.8" stroke-width="0.576001" x2="108.524"/>
      <line  stroke="white" stroke-linecap="round" y1="28.8" x1="112.124" y2="30.6" stroke-width="0.576001" x2="113.924"/>
      <line  stroke="white" stroke-linecap="round" y1="30.6" x1="113.924" y2="34.2" stroke-width="0.576001" x2="113.924"/>
      <line  stroke="white" stroke-linecap="round" y1="34.2" x1="113.924" y2="36" stroke-width="0.576001" x2="112.124"/>
      <line  stroke="white" stroke-linecap="round" y1="27" x1="106.724" y2="28.8" stroke-width="0.576001" x2="108.524"/>
      <line  stroke="white" stroke-linecap="round" y1="28.8" x1="112.124" y2="27" stroke-width="0.576001" x2="113.924"/>
      <line  stroke="white" stroke-linecap="round" y1="23.4" x1="113.924" y2="27" stroke-width="0.576001" x2="113.924"/>
      <line  stroke="white" stroke-linecap="round" y1="48.6" x1="106.724" y2="45" stroke-width="0.576001" x2="106.724"/>
      <line  stroke="white" stroke-linecap="round" y1="45" x1="106.724" y2="43.2" stroke-width="0.576001" x2="108.524"/>
      <line  stroke="white" stroke-linecap="round" y1="43.2" x1="112.124" y2="45" stroke-width="0.576001" x2="113.924"/>
      <line  stroke="white" stroke-linecap="round" y1="43.2" x1="108.524" y2="41.4" stroke-width="0.576001" x2="106.724"/>
      <line  stroke="white" stroke-linecap="round" y1="41.4" x1="106.724" y2="37.8" stroke-width="0.576001" x2="106.724"/>
      <line  stroke="white" stroke-linecap="round" y1="37.8" x1="106.724" y2="36" stroke-width="0.576001" x2="108.524"/>
      <line  stroke="white" stroke-linecap="round" y1="36" x1="112.124" y2="37.8" stroke-width="0.576001" x2="113.924"/>
      <line  stroke="white" stroke-linecap="round" y1="37.8" x1="113.924" y2="41.4" stroke-width="0.576001" x2="113.924"/>
      <line  stroke="white" stroke-linecap="round" y1="41.4" x1="113.924" y2="43.2" stroke-width="0.576001" x2="112.124"/>
      <line  stroke="white" stroke-linecap="round" y1="57.6" x1="108.524" y2="55.8" stroke-width="0.576001" x2="106.724"/>
      <line  stroke="white" stroke-linecap="round" y1="55.8" x1="106.724" y2="52.2" stroke-width="0.576001" x2="106.724"/>
      <line  stroke="white" stroke-linecap="round" y1="52.2" x1="106.724" y2="50.4" stroke-width="0.576001" x2="108.524"/>
      <line  stroke="white" stroke-linecap="round" y1="50.4" x1="112.124" y2="52.2" stroke-width="0.576001" x2="113.924"/>
      <line  stroke="white" stroke-linecap="round" y1="52.2" x1="113.924" y2="55.8" stroke-width="0.576001" x2="113.924"/>
      <line  stroke="white" stroke-linecap="round" y1="55.8" x1="113.924" y2="57.6" stroke-width="0.576001" x2="112.124"/>
      <line  stroke="white" stroke-linecap="round" y1="48.6" x1="106.724" y2="50.4" stroke-width="0.576001" x2="108.524"/>
      <line  stroke="white" stroke-linecap="round" y1="50.4" x1="112.124" y2="48.6" stroke-width="0.576001" x2="113.924"/>
      <line  stroke="white" stroke-linecap="round" y1="45" x1="113.924" y2="48.6" stroke-width="0.576001" x2="113.924"/>
      <line  stroke="white" stroke-linecap="round" y1="70.2" x1="106.724" y2="66.6" stroke-width="0.576001" x2="106.724"/>
      <line  stroke="white" stroke-linecap="round" y1="66.6" x1="106.724" y2="64.8" stroke-width="0.576001" x2="108.524"/>
      <line  stroke="white" stroke-linecap="round" y1="64.8" x1="112.124" y2="66.6" stroke-width="0.576001" x2="113.924"/>
      <line  stroke="white" stroke-linecap="round" y1="64.8" x1="108.524" y2="63" stroke-width="0.576001" x2="106.724"/>
      <line  stroke="white" stroke-linecap="round" y1="63" x1="106.724" y2="59.4" stroke-width="0.576001" x2="106.724"/>
      <line  stroke="white" stroke-linecap="round" y1="59.4" x1="106.724" y2="57.6" stroke-width="0.576001" x2="108.524"/>
      <line  stroke="white" stroke-linecap="round" y1="57.6" x1="112.124" y2="59.4" stroke-width="0.576001" x2="113.924"/>
      <line  stroke="white" stroke-linecap="round" y1="59.4" x1="113.924" y2="63" stroke-width="0.576001" x2="113.924"/>
      <line  stroke="white" stroke-linecap="round" y1="63" x1="113.924" y2="64.8" stroke-width="0.576001" x2="112.124"/>
      <line  stroke="white" stroke-linecap="round" y1="72" x1="108.524" y2="72" stroke-width="0.576001" x2="112.124"/>
      <line  stroke="white" stroke-linecap="round" y1="70.2" x1="106.724" y2="72" stroke-width="0.576001" x2="108.524"/>
      <line  stroke="white" stroke-linecap="round" y1="72" x1="112.124" y2="70.2" stroke-width="0.576001" x2="113.924"/>
      <line  stroke="white" stroke-linecap="round" y1="66.6" x1="113.924" y2="70.2" stroke-width="0.576001" x2="113.924"/>
      <line  stroke="white" stroke-linecap="round" y1="19.8" x1="106.724" y2="16.2" stroke-width="0.576001" x2="106.724"/>
      <line  stroke="white" stroke-linecap="round" y1="16.2" x1="106.724" y2="14.4" stroke-width="0.576001" x2="108.524"/>
      <line  stroke="white" stroke-linecap="round" y1="14.4" x1="108.524" y2="14.4" stroke-width="0.576001" x2="112.124"/>
      <line  stroke="white" stroke-linecap="round" y1="14.4" x1="112.124" y2="16.2" stroke-width="0.576001" x2="113.924"/>
      <line  stroke="white" stroke-linecap="round" y1="19.8" x1="106.724" y2="21.6" stroke-width="0.576001" x2="108.524"/>
      <line  stroke="white" stroke-linecap="round" y1="21.6" x1="112.124" y2="19.8" stroke-width="0.576001" x2="113.924"/>
      <line  stroke="white" stroke-linecap="round" y1="16.2" x1="113.924" y2="19.8" stroke-width="0.576001" x2="113.924"/>
     </g>
    </g>
    <g  stroke-width="0">
     <title >element:SG1</title>
     <g  stroke-width="0">
      <title >package:BUZZER-CCV</title>
      <path fill="none"  stroke="white" stroke-width="0.576001" d="M72.8843,39.6A12.6771,12.6771,0,0,0,80.589,55.1055"/>
      <path fill="none"  stroke="white" stroke-width="0.576001" d="M80.4443,31.32A12.7993,12.7993,0,0,0,75.7643,34.56"/>
      <path fill="none"  stroke="white" stroke-width="0.576001" d="M95.6125,35.8299A13.7404,13.7404,0,0,0,89.6603,31.2945"/>
      <path fill="none"  stroke="white" stroke-width="0.576001" d="M93.7643,52.56A11.2519,11.2519,0,0,0,95.3295,50.5701"/>
      <line  stroke="white" stroke-linecap="round" y1="50.5701" x1="102.132" y2="35.8299" stroke-width="0.576001" x2="102.132"/>
      <line  stroke="white" stroke-linecap="round" y1="35.8299" x1="102.132" y2="35.8299" stroke-width="0.576001" x2="95.6125"/>
      <line  stroke="white" stroke-linecap="round" y1="50.5701" x1="102.132" y2="50.5701" stroke-width="0.576001" x2="95.3295"/>
     </g>
    </g>
    <g  stroke-width="0">
     <title >element:U$1</title>
     <g  stroke-width="0">
      <title >package:SFE-NEW-WEBLOGO</title>
     </g>
    </g>
    <g  stroke-width="0">
     <title >element:U1</title>
     <g  stroke-width="0">
      <title >package:SSOP28DB</title>
      <line  stroke="white" stroke-linecap="round" y1="51.4913" x1="60.2647" y2="51.4913" stroke-width="0.432001" x2="30.7842"/>
      <line  stroke="white" stroke-linecap="round" y1="51.4913" x1="30.7842" y2="34.9087" stroke-width="0.432001" x2="30.7842"/>
      <line  stroke="white" stroke-linecap="round" y1="34.9087" x1="30.7842" y2="34.9087" stroke-width="0.432001" x2="60.2647"/>
      <line  stroke="white" stroke-linecap="round" y1="34.9087" x1="60.2647" y2="51.4913" stroke-width="0.432001" x2="60.2647"/>
      <circle fill="none" cx="57.5009"  cy="37.6724" stroke="white" r="1.3028" stroke-width="0.432001"/>
     </g>
    </g>
    <g  stroke-width="0">
     <title >element:U3</title>
     <g  stroke-width="0">
      <title >package:ID-12</title>
     </g>
    </g>
    <g  stroke-width="0">
     <title >element:X1</title>
     <g  stroke-width="0">
      <title >package:USB-MINIB</title>
      <line  stroke="white" stroke-linecap="round" y1="32.4284" x1="13.0393" y2="32.4284" stroke-width="0.576001" x2="18.9922"/>
      <line  stroke="white" stroke-linecap="round" y1="34.4126" x1="26.0788" y2="36.9638" stroke-width="0.576001" x2="26.0788"/>
      <line  stroke="white" stroke-linecap="round" y1="49.4362" x1="26.0788" y2="51.9874" stroke-width="0.576001" x2="26.0788"/>
      <line  stroke="white" stroke-linecap="round" y1="53.9716" x1="18.9922" y2="53.9716" stroke-width="0.576001" x2="13.0393"/>
     </g>
    </g>
    <line fill="none"  stroke="white" fill-opacity="1" y1="53.9716" x1="0.288" y2="53.9716" stroke-width="0.576001" x2="2.32441"/>
    <line fill="none"  stroke="white" fill-opacity="1" y1="32.4284" x1="0.288" y2="32.4284" stroke-width="0.576001" x2="2.32441"/>
    <line fill="none"  stroke="white" fill-opacity="1" y1="53.9716" x1="0.288" y2="32.4284" stroke-width="0.576001" x2="0.288"/>
   </g>
  </g>
 </g>
 <g transform="translate(7.2,346.388)">
  <g  id="silkscreen" stroke-width="0">
   <path fill="none"  stroke="#FFFFFF" stroke-linejoin="round" id="path2820" stroke-linecap="round" stroke-width="0.56696" d="M13.912,0.3048c3.748,2.8296,4.4912,8.1624,1.6608,11.9112c-2.8304,3.748,-8.1632,4.4912,-11.9112,1.6608S-0.8288,5.7128,2.0016,1.9656C2.4824,1.328,3.0504,0.7616,3.6904,0.2832"/>
   <path fill="none"  stroke="#FFFFFF" id="path3707" stroke-linecap="round" stroke-width="0.56696" d="M13.8896,0.2872L3.6848,0.2872"/>
  </g>
 </g>
 <g transform="translate(230.412,5.4376)">
  <g  id="silkscreen" stroke-width="0">
   <path fill="none"  stroke="#FFFFFF" stroke-linejoin="round" id="path2820" stroke-linecap="round" stroke-width="0.56696" d="M13.912,0.3048c3.748,2.8296,4.4912,8.1624,1.6608,11.9112c-2.8304,3.748,-8.1632,4.4912,-11.9112,1.6608S-0.8288,5.7128,2.0016,1.9656C2.4824,1.328,3.0504,0.7616,3.6904,0.2832"/>
   <path fill="none"  stroke="#FFFFFF" id="path3707" stroke-linecap="round" stroke-width="0.56696" d="M13.8896,0.2872L3.6848,0.2872"/>
  </g>
 </g>
 <g transform="translate(97.7984,346.388)">
  <g  id="silkscreen" stroke-width="0">
   <line  stroke="white" y1="3.096" x1="5.4" y2="3.096" stroke-width="0.72" x2="10.584"/>
   <line  stroke="white" y1="3.096" x1="24.984" y2="3.096" stroke-width="0.72" x2="28.8"/>
   <line  stroke="white" y1="0.72" x1="10.584" y2="0.72" stroke-width="0.72" x2="24.984"/>
   <line  stroke="white" y1="0.72" x1="24.984" y2="5.472" stroke-width="0.72" x2="24.984"/>
   <line  stroke="white" y1="5.472" x1="24.984" y2="5.472" stroke-width="0.72" x2="10.584"/>
   <line  stroke="white" y1="5.472" x1="10.584" y2="0.72" stroke-width="0.72" x2="10.584"/>
  </g>
 </g>
 <g transform="translate(222.1,11.1292)">
  <g  id="silkscreen" stroke-width="0">
   <line  stroke="white" y1="3.096" x1="5.4" y2="3.096" stroke-width="0.72" x2="10.584"/>
   <line  stroke="white" y1="3.096" x1="24.984" y2="3.096" stroke-width="0.72" x2="28.8"/>
   <line  stroke="white" y1="0.72" x1="10.584" y2="0.72" stroke-width="0.72" x2="24.984"/>
   <line  stroke="white" y1="0.72" x1="24.984" y2="5.472" stroke-width="0.72" x2="24.984"/>
   <line  stroke="white" y1="5.472" x1="24.984" y2="5.472" stroke-width="0.72" x2="10.584"/>
   <line  stroke="white" y1="5.472" x1="10.584" y2="0.72" stroke-width="0.72" x2="10.584"/>
  </g>
 </g>
 <g transform="translate(255.698,5.6916)">
  <g fill="#ffffff" font-family="'OCRA'" stroke="none" font-style="normal" fill-opacity="1" font-weight="normal" id="silkscreenLabel" font-size="5">
   <text x="0" y="3.75">R2</text>
  </g>
 </g>
 <g transform="translate(368.154,67.8252)">
  <g fill="#ffffff" font-family="'OCRA'" stroke="none" font-style="normal" fill-opacity="1" font-weight="normal" id="silkscreenLabel" font-size="5">
   <text x="0" y="3.75">Arduino1</text>
  </g>
 </g>
 <g transform="translate(247.988,0)">
  <g fill="#ffffff" font-family="'OCRA'" stroke="none" font-style="normal" fill-opacity="1" font-weight="normal" id="silkscreenLabel" font-size="5">
   <text x="0" y="3.75">LED2</text>
  </g>
 </g>
 <g transform="translate(121.124,232.625)">
  <g fill="#ffffff" font-family="'OCRA'" stroke="none" font-style="normal" fill-opacity="1" font-weight="normal" id="silkscreenLabel" font-size="5">
   <text x="0" y="3.75">Part1</text>
  </g>
 </g>
 <g transform="translate(24.7752,340.788)">
  <g fill="#ffffff" font-family="'OCRA'" stroke="none" font-style="normal" fill-opacity="1" font-weight="normal" id="silkscreenLabel" font-size="5">
   <text x="0" y="3.75">LED1</text>
  </g>
 </g>
 <g transform="translate(131.998,340.788)">
  <g fill="#ffffff" font-family="'OCRA'" stroke="none" font-style="normal" fill-opacity="1" font-weight="normal" id="silkscreenLabel" font-size="5">
   <text x="0" y="3.75">R1</text>
  </g>
 </g>
</svg>
