<?xml version='1.0' encoding='utf-8'?>
<!DOCTYPE svg PUBLIC '-//W3C//DTD SVG 1.1//EN' 'http://www.w3.org/Graphics/SVG/1.1/DTD/svg11.dtd'>
<!-- Generator: Adobe Illustrator 15.0.0, SVG Export Plug-In . SVG Version: 6.00 Build 0)  -->
<svg xmlns="http://www.w3.org/2000/svg" width="2.38772in" xml:space="preserve" xmlns:xml="http://www.w3.org/XML/1998/namespace" x="0px" version="1.1" y="0px" height="4.24978in" viewBox="0 0 171.916 305.984" id="Layer_1" enable-background="new 0 0 171.916 305.984">
 <path  d="M162.842,296.57H35.583V5.903h127.259V296.57z M39.583,292.57h119.259V9.903H39.583V292.57z"/>
 <path  d="M98.416,108.237c-23.251,0-42.167-18.916-42.167-42.167s18.916-42.167,42.167-42.167s42.167,18.916,42.167,42.167S121.667,108.237,98.416,108.237z M98.416,27.903c-21.045,0-38.167,17.122-38.167,38.167s17.122,38.167,38.167,38.167c21.045,0,38.167-17.122,38.167-38.167S119.461,27.903,98.416,27.903z"/>
 <path  d="M98.416,282.983c-23.251,0-42.167-18.916-42.167-42.167s18.916-42.167,42.167-42.167s42.167,18.916,42.167,42.167S121.667,282.983,98.416,282.983z M98.416,202.649c-21.045,0-38.167,17.122-38.167,38.167s17.122,38.167,38.167,38.167c21.045,0,38.167-17.122,38.167-38.167S119.461,202.649,98.416,202.649z"/>
 <rect  width="29.667" x="7.916" y="121.903" height="4"/>
 <rect  width="29.667" x="7.916" y="149.237" height="4"/>
 <rect  width="29.667" x="7.916" y="175.903" height="4"/>
 <g >
  <path  d="M52.659,126.876c-0.468,0.18-1.403,0.444-2.495,0.444c-1.223,0-2.23-0.312-3.021-1.067c-0.696-0.672-1.128-1.751-1.128-3.01c0-2.411,1.667-4.174,4.378-4.174c0.936,0,1.679,0.203,2.026,0.371l-0.264,0.853c-0.432-0.204-0.972-0.348-1.787-0.348c-1.967,0-3.25,1.223-3.25,3.25c0,2.051,1.224,3.262,3.118,3.262c0.684,0,1.151-0.096,1.392-0.216v-2.411h-1.632v-0.839h2.663V126.876z"/>
  <path  d="M54.246,127.237v-8.083h1.151l2.579,4.09c0.588,0.946,1.067,1.799,1.439,2.626l0.035-0.013c-0.096-1.078-0.119-2.062-0.119-3.321v-3.382h0.983v8.083H59.26l-2.566-4.103c-0.563-0.899-1.104-1.823-1.499-2.699l-0.036,0.013c0.06,1.019,0.071,1.99,0.071,3.334v3.454L54.246,127.237L54.246,127.237z"/>
  <path  d="M62.142,119.272c0.636-0.107,1.392-0.18,2.219-0.18c1.5,0,2.567,0.36,3.274,1.007c0.731,0.66,1.151,1.596,1.151,2.902c0,1.319-0.42,2.399-1.163,3.143c-0.768,0.755-2.015,1.163-3.586,1.163c-0.756,0-1.367-0.036-1.896-0.096L62.142,119.272L62.142,119.272z M63.186,126.42c0.264,0.036,0.647,0.048,1.056,0.048c2.242,0,3.441-1.248,3.441-3.43c0.013-1.907-1.067-3.118-3.273-3.118c-0.54,0-0.948,0.048-1.224,0.108V126.42z"/>
 </g>
 <g >
  <path  d="M51.109,147.661h-2.975l-0.3,2.003c0.18-0.023,0.348-0.036,0.636-0.036c0.611,0,1.199,0.12,1.679,0.42c0.612,0.336,1.115,1.021,1.115,1.991c0,1.521-1.211,2.662-2.902,2.662c-0.852,0-1.559-0.24-1.942-0.479l0.264-0.804c0.324,0.191,0.959,0.432,1.679,0.432c0.983,0,1.848-0.646,1.835-1.69c0-1.007-0.684-1.715-2.23-1.715c-0.456,0-0.804,0.035-1.092,0.071l0.504-3.741h3.73L51.109,147.661L51.109,147.661z"/>
  <path  d="M54.759,154.57l-2.65-8.083h1.14l1.259,3.98c0.336,1.091,0.636,2.074,0.863,3.022h0.024c0.228-0.937,0.552-1.955,0.924-3.012l1.367-3.992h1.115l-2.891,8.083L54.759,154.57L54.759,154.57z"/>
 </g>
 <g >
  <path  d="M46.028,181.631c0.468,0.3,1.14,0.528,1.859,0.528c1.067,0,1.691-0.564,1.691-1.38c0-0.743-0.433-1.188-1.523-1.596c-1.319-0.479-2.135-1.176-2.135-2.303c0-1.26,1.043-2.195,2.614-2.195c0.815,0,1.428,0.192,1.775,0.396l-0.288,0.852c-0.252-0.155-0.792-0.384-1.523-0.384c-1.104,0-1.522,0.659-1.522,1.211c0,0.756,0.491,1.127,1.606,1.561c1.367,0.526,2.051,1.187,2.051,2.374c0,1.248-0.911,2.339-2.818,2.339c-0.779,0-1.631-0.24-2.062-0.527L46.028,181.631z"/>
  <path  d="M53.12,174.819v8.084h-1.056v-8.084H53.12z"/>
  <path  d="M61.109,182.543c-0.468,0.18-1.403,0.443-2.495,0.443c-1.223,0-2.23-0.312-3.021-1.067c-0.696-0.672-1.128-1.751-1.128-3.011c0-2.41,1.667-4.174,4.378-4.174c0.936,0,1.679,0.203,2.026,0.371l-0.264,0.853c-0.432-0.204-0.972-0.348-1.787-0.348c-1.967,0-3.25,1.224-3.25,3.25c0,2.051,1.224,3.263,3.118,3.263c0.684,0,1.151-0.097,1.392-0.216v-2.411h-1.631v-0.84h2.662V182.543z"/>
 </g>
</svg>
