<?xml version='1.0' encoding='UTF-8' standalone='no'?>
<!-- Created with Fritzing (http://www.fritzing.org/) -->
<svg width="9.03052in" x="0in" version="1.2" y="0in" xmlns="http://www.w3.org/2000/svg" height="8.57287in" viewBox="0 0 650.197 617.246" baseProfile="tiny" xmlns:svg="http://www.w3.org/2000/svg">
 <g  id="watermark" stroke-width="0">
  <g  stroke-width="0">
   <path fill="#8C8C8C"  stroke-width="0" d="M542.38,614.918L540.455,609.354L540.42,609.354c0.017,0.214,0.032,0.427,0.044,0.64c0.012,0.183,0.021,0.375,0.028,0.574c0.007,0.203,0.011,0.385,0.011,0.551l0,3.8L539.755,614.919L539.755,608.563l1.199,0l1.791,5.181l0.025,0l1.8,-5.181L545.77,608.563l0,6.354L544.961,614.917l0,-3.854c0,-0.15,0.003,-0.324,0.009,-0.518s0.013,-0.38,0.021,-0.557c0.012,-0.207,0.021,-0.416,0.029,-0.625L544.988,609.363L543.044,614.918L542.38,614.918z"/>
   <path fill="#8C8C8C"  stroke-width="0" d="M550.08,614.918l-0.16,-0.661l-0.035,0c-0.095,0.131,-0.19,0.243,-0.286,0.338c-0.095,0.095,-0.2,0.172,-0.313,0.231c-0.113,0.062,-0.239,0.106,-0.378,0.136c-0.141,0.028,-0.3,0.042,-0.482,0.042c-0.2,0,-0.384,-0.026,-0.552,-0.084c-0.168,-0.057,-0.314,-0.144,-0.438,-0.261c-0.122,-0.116,-0.219,-0.265,-0.288,-0.443S547.044,613.828,547.044,613.583c0,-0.475,0.167,-0.841,0.501,-1.095c0.335,-0.256,0.845,-0.394,1.528,-0.418l0.799,-0.029l0,-0.301c0,-0.193,-0.021,-0.356,-0.063,-0.486s-0.103,-0.234,-0.183,-0.314s-0.178,-0.138,-0.295,-0.172c-0.117,-0.035,-0.251,-0.052,-0.402,-0.052c-0.241,0,-0.464,0.034,-0.671,0.104c-0.207,0.068,-0.407,0.152,-0.597,0.25L547.382,610.477c0.214,-0.117,0.453,-0.217,0.717,-0.298c0.264,-0.079,0.54,-0.12,0.83,-0.12c0.296,0,0.551,0.029,0.768,0.09c0.216,0.059,0.395,0.151,0.534,0.28c0.141,0.13,0.247,0.294,0.316,0.494c0.07,0.199,0.104,0.44,0.104,0.726l0,3.269L550.08,614.918L550.08,614.918zM548.629,614.367c0.178,0,0.341,-0.028,0.491,-0.084c0.149,-0.055,0.282,-0.138,0.391,-0.249c0.11,-0.111,0.196,-0.252,0.258,-0.422c0.063,-0.17,0.094,-0.369,0.094,-0.599l0,-0.43l-0.621,0.03c-0.262,0.012,-0.48,0.041,-0.656,0.086c-0.175,0.047,-0.317,0.113,-0.423,0.193c-0.105,0.084,-0.183,0.185,-0.229,0.301c-0.046,0.117,-0.068,0.25,-0.068,0.398c0,0.268,0.069,0.462,0.211,0.586C548.216,614.304,548.4,614.367,548.629,614.367z"/>
   <path fill="#8C8C8C"  stroke-width="0" d="M555.062,614.279l-0.034,0c-0.063,0.099,-0.139,0.191,-0.224,0.281c-0.085,0.088,-0.184,0.165,-0.296,0.231c-0.111,0.066,-0.237,0.118,-0.376,0.156c-0.139,0.037,-0.295,0.056,-0.47,0.056c-0.271,0,-0.517,-0.051,-0.738,-0.154c-0.223,-0.105,-0.416,-0.262,-0.575,-0.469s-0.282,-0.464,-0.369,-0.771c-0.087,-0.309,-0.13,-0.664,-0.13,-1.069c0,-0.408,0.043,-0.767,0.13,-1.076c0.086,-0.31,0.209,-0.567,0.369,-0.774c0.159,-0.209,0.352,-0.367,0.575,-0.473c0.222,-0.105,0.469,-0.158,0.738,-0.158c0.171,0,0.327,0.02,0.466,0.057s0.264,0.088,0.376,0.152c0.112,0.063,0.211,0.137,0.297,0.221s0.163,0.172,0.227,0.266l0.052,0c-0.009,-0.1,-0.018,-0.191,-0.026,-0.283c-0.006,-0.074,-0.012,-0.152,-0.018,-0.232c-0.005,-0.078,-0.009,-0.143,-0.009,-0.188L555.027,608.155l0.792,0l0,6.763l-0.641,0L555.062,614.279zM553.814,614.35c0.221,0,0.407,-0.033,0.56,-0.102c0.151,-0.065,0.274,-0.168,0.37,-0.304c0.094,-0.136,0.163,-0.308,0.209,-0.512c0.044,-0.204,0.069,-0.442,0.076,-0.716l0,-0.177c0,-0.292,-0.02,-0.552,-0.059,-0.78c-0.04,-0.229,-0.105,-0.418,-0.2,-0.574c-0.094,-0.154,-0.219,-0.271,-0.376,-0.351c-0.156,-0.08,-0.352,-0.119,-0.586,-0.119c-0.391,0,-0.679,0.157,-0.861,0.474c-0.185,0.315,-0.277,0.771,-0.277,1.359c0,0.605,0.092,1.058,0.277,1.354C553.127,614.2,553.417,614.35,553.814,614.35z"/>
   <path fill="#8C8C8C"  stroke-width="0" d="M559.216,615.004c-0.318,0,-0.609,-0.053,-0.874,-0.16c-0.263,-0.106,-0.49,-0.264,-0.68,-0.469c-0.19,-0.207,-0.338,-0.461,-0.442,-0.766c-0.104,-0.306,-0.156,-0.651,-0.156,-1.045s0.049,-0.744,0.144,-1.055c0.096,-0.311,0.229,-0.574,0.405,-0.789c0.174,-0.216,0.382,-0.381,0.623,-0.492c0.241,-0.113,0.51,-0.17,0.802,-0.17c0.287,0,0.545,0.051,0.772,0.153c0.229,0.104,0.423,0.248,0.583,0.435c0.159,0.188,0.282,0.412,0.367,0.674c0.087,0.263,0.13,0.554,0.13,0.873l0,0.49l-3.008,0c0.015,0.559,0.133,0.971,0.354,1.234c0.222,0.263,0.551,0.396,0.987,0.396c0.149,0,0.285,-0.008,0.411,-0.021s0.248,-0.035,0.365,-0.063c0.118,-0.026,0.23,-0.063,0.342,-0.104s0.222,-0.089,0.334,-0.142l0,0.704c-0.116,0.055,-0.229,0.104,-0.341,0.144c-0.112,0.041,-0.226,0.074,-0.343,0.102c-0.117,0.024,-0.239,0.045,-0.365,0.056S559.365,615.004,559.216,615.004zM559.021,610.716c-0.331,0,-0.592,0.112,-0.783,0.339c-0.193,0.227,-0.307,0.555,-0.338,0.985l2.14,0c0,-0.196,-0.021,-0.378,-0.06,-0.541c-0.039,-0.164,-0.1,-0.304,-0.183,-0.419s-0.187,-0.205,-0.315,-0.27C559.354,610.746,559.201,610.716,559.021,610.716z"/>
   <path fill="#8C8C8C"  stroke-width="0" d="M568.03,614.918l-0.729,-2.678c-0.012,-0.053,-0.026,-0.111,-0.044,-0.176c-0.017,-0.065,-0.034,-0.136,-0.051,-0.207c-0.019,-0.072,-0.036,-0.146,-0.055,-0.223c-0.02,-0.074,-0.037,-0.148,-0.055,-0.222c-0.041,-0.169,-0.083,-0.341,-0.126,-0.521l-0.024,0c-0.041,0.182,-0.08,0.356,-0.117,0.524c-0.032,0.146,-0.066,0.294,-0.104,0.448c-0.037,0.152,-0.069,0.283,-0.103,0.391l-0.75,2.66l-0.917,0l-1.221,-4.771l0.83,0l0.57,2.539c0.029,0.129,0.059,0.27,0.086,0.423c0.028,0.151,0.057,0.303,0.082,0.452c0.026,0.148,0.05,0.288,0.07,0.421c0.02,0.132,0.037,0.238,0.049,0.322l0.025,0c0.015,-0.074,0.034,-0.177,0.059,-0.302c0.025,-0.126,0.052,-0.26,0.083,-0.399c0.031,-0.141,0.063,-0.28,0.093,-0.417c0.032,-0.139,0.063,-0.254,0.091,-0.351l0.778,-2.69l0.853,0l0.748,2.69c0.025,0.098,0.056,0.215,0.089,0.348c0.033,0.135,0.065,0.27,0.098,0.407c0.032,0.139,0.061,0.271,0.087,0.397c0.025,0.127,0.045,0.231,0.056,0.315l0.026,0c0.01,-0.074,0.022,-0.177,0.042,-0.302c0.02,-0.126,0.042,-0.265,0.067,-0.415c0.025,-0.149,0.054,-0.306,0.084,-0.464c0.03,-0.157,0.062,-0.306,0.094,-0.44L569.39,610.145l0.809,0l-1.234,4.771L568.03,614.916L568.03,614.918z"/>
   <path fill="#8C8C8C"  stroke-width="0" d="M570.985,608.855c0,-0.175,0.045,-0.3,0.133,-0.379c0.088,-0.078,0.197,-0.117,0.328,-0.117c0.063,0,0.123,0.011,0.181,0.028c0.056,0.019,0.104,0.049,0.147,0.089c0.042,0.041,0.075,0.092,0.101,0.154c0.023,0.063,0.037,0.137,0.037,0.224c0,0.168,-0.045,0.293,-0.138,0.376c-0.092,0.083,-0.2,0.123,-0.327,0.123c-0.131,0,-0.24,-0.04,-0.328,-0.12C571.031,609.152,570.985,609.025,570.985,608.855zM571.837,614.918l-0.791,0L571.046,610.145l0.791,0L571.837,614.918z"/>
   <path fill="#8C8C8C"  stroke-width="0" d="M574.793,614.357c0.052,0,0.111,-0.003,0.176,-0.01c0.066,-0.006,0.128,-0.013,0.189,-0.021c0.061,-0.009,0.116,-0.019,0.167,-0.031c0.051,-0.011,0.089,-0.021,0.115,-0.028l0,0.6c-0.037,0.017,-0.085,0.035,-0.144,0.052c-0.059,0.018,-0.122,0.033,-0.191,0.046c-0.068,0.015,-0.142,0.022,-0.217,0.03s-0.148,0.011,-0.221,0.011c-0.18,0,-0.347,-0.021,-0.5,-0.068c-0.153,-0.048,-0.286,-0.126,-0.397,-0.239c-0.111,-0.112,-0.198,-0.267,-0.263,-0.458c-0.063,-0.192,-0.095,-0.437,-0.095,-0.729L573.412,610.741l-0.674,0L572.738,610.389l0.673,-0.339l0.339,-0.999l0.456,0l0,1.096l1.199,0l0,0.596l-1.199,0l0,2.769c0,0.281,0.045,0.492,0.137,0.636C574.435,614.286,574.584,614.357,574.793,614.357z"/>
   <path fill="#8C8C8C"  stroke-width="0" d="M579.348,614.918l0,-3.073c0,-0.377,-0.076,-0.659,-0.228,-0.848c-0.152,-0.188,-0.391,-0.282,-0.715,-0.282c-0.234,0,-0.433,0.037,-0.592,0.111c-0.158,0.076,-0.286,0.188,-0.384,0.336c-0.097,0.148,-0.166,0.328,-0.208,0.544c-0.042,0.214,-0.063,0.461,-0.063,0.739l0,2.473l-0.791,0L576.367,608.155l0.791,0l0,2.008l-0.034,0.626l0.044,0c0.072,-0.124,0.158,-0.232,0.258,-0.323s0.209,-0.167,0.328,-0.229c0.118,-0.061,0.245,-0.104,0.378,-0.135c0.133,-0.027,0.27,-0.043,0.408,-0.043c0.531,0,0.93,0.139,1.198,0.416c0.268,0.275,0.401,0.719,0.401,1.326l0,3.117L579.348,614.918L579.348,614.918z"/>
  </g>
  <g  stroke-width="0">
   <path fill="#8C8C8C"  stroke-width="0" d="M601.108,614.902l-1.324,0L599.784,608.548l3.642,0l0,1.104l-2.316,0l0,1.639l2.156,0l0,1.1l-2.156,0L601.108,614.902L601.108,614.902z"/>
   <path fill="#8C8C8C"  stroke-width="0" d="M607.141,609.952c0.035,0,0.074,0.002,0.116,0.002c0.042,0.002,0.083,0.006,0.12,0.01c0.041,0.005,0.076,0.009,0.11,0.014c0.031,0.004,0.059,0.01,0.075,0.016l0,1.244c-0.022,-0.008,-0.056,-0.012,-0.095,-0.018c-0.04,-0.007,-0.083,-0.012,-0.128,-0.018c-0.045,-0.004,-0.09,-0.006,-0.133,-0.008c-0.044,-0.002,-0.08,-0.002,-0.108,-0.002c-0.171,0,-0.328,0.021,-0.472,0.064c-0.146,0.043,-0.269,0.113,-0.37,0.211s-0.183,0.225,-0.239,0.383c-0.057,0.157,-0.084,0.352,-0.084,0.581l0,2.474l-1.326,0L604.607,610.043l1.005,0l0.194,0.73l0.066,0c0.068,-0.125,0.145,-0.238,0.226,-0.34c0.081,-0.103,0.172,-0.189,0.272,-0.259c0.1,-0.071,0.212,-0.126,0.338,-0.165C606.834,609.972,606.98,609.952,607.141,609.952z"/>
   <path fill="#8C8C8C"  stroke-width="0" d="M608.459,608.787c0,-0.125,0.018,-0.228,0.056,-0.311c0.038,-0.084,0.089,-0.15,0.154,-0.2c0.065,-0.051,0.142,-0.086,0.229,-0.106c0.088,-0.02,0.184,-0.03,0.281,-0.03c0.099,0,0.191,0.01,0.277,0.03c0.088,0.02,0.164,0.055,0.229,0.106c0.066,0.05,0.117,0.116,0.156,0.2c0.04,0.083,0.059,0.186,0.059,0.311c0,0.122,-0.019,0.225,-0.059,0.309c-0.039,0.084,-0.09,0.151,-0.156,0.203c-0.063,0.05,-0.142,0.086,-0.229,0.108c-0.086,0.021,-0.18,0.032,-0.277,0.032c-0.099,0,-0.191,-0.012,-0.281,-0.032c-0.088,-0.021,-0.164,-0.059,-0.229,-0.108c-0.065,-0.051,-0.116,-0.119,-0.154,-0.203C608.478,609.012,608.459,608.909,608.459,608.787zM609.841,614.902l-1.325,0L608.516,610.043l1.325,0L609.841,614.902z"/>
   <path fill="#8C8C8C"  stroke-width="0" d="M613.25,613.933c0.13,0,0.254,-0.016,0.371,-0.045c0.117,-0.027,0.235,-0.064,0.357,-0.107l0,0.986c-0.124,0.063,-0.278,0.116,-0.463,0.157c-0.184,0.042,-0.385,0.063,-0.603,0.063c-0.211,0,-0.408,-0.024,-0.59,-0.073c-0.185,-0.05,-0.342,-0.137,-0.476,-0.259c-0.133,-0.123,-0.237,-0.288,-0.313,-0.495c-0.077,-0.208,-0.114,-0.468,-0.114,-0.781L611.419,611.038l-0.636,0L610.783,610.477l0.729,-0.443l0.383,-1.024l0.848,0l0,1.034l1.184,0l0,0.995l-1.184,0l0,2.343c0,0.188,0.048,0.327,0.141,0.417C612.977,613.888,613.099,613.933,613.25,613.933z"/>
   <path fill="#8C8C8C"  stroke-width="0" d="M618.123,614.902L614.55,614.902l0,-0.781l1.985,-3.064l-1.853,0L614.682,610.043l3.355,0l0,0.859l-1.92,2.985l2.004,0L618.123,614.902L618.123,614.902z"/>
   <path fill="#8C8C8C"  stroke-width="0" d="M619.062,608.787c0,-0.125,0.02,-0.228,0.057,-0.311c0.038,-0.084,0.09,-0.15,0.153,-0.2c0.065,-0.051,0.144,-0.086,0.23,-0.106s0.182,-0.03,0.28,-0.03c0.098,0,0.19,0.01,0.277,0.03c0.088,0.02,0.164,0.055,0.229,0.106c0.064,0.05,0.117,0.116,0.156,0.2c0.038,0.083,0.059,0.186,0.059,0.311c0,0.122,-0.021,0.225,-0.059,0.309c-0.039,0.084,-0.092,0.151,-0.156,0.203c-0.064,0.05,-0.143,0.086,-0.229,0.108c-0.086,0.021,-0.18,0.032,-0.277,0.032c-0.099,0,-0.192,-0.012,-0.28,-0.032c-0.088,-0.021,-0.165,-0.059,-0.23,-0.108c-0.063,-0.051,-0.115,-0.119,-0.153,-0.203C619.081,609.012,619.062,608.909,619.062,608.787zM620.444,614.902L619.12,614.902L619.12,610.043l1.324,0L620.444,614.902z"/>
   <path fill="#8C8C8C"  stroke-width="0" d="M626.094,614.902L624.77,614.902l0,-2.839c0,-0.351,-0.053,-0.613,-0.158,-0.787c-0.105,-0.176,-0.274,-0.265,-0.508,-0.265c-0.173,0,-0.317,0.035,-0.434,0.104c-0.116,0.07,-0.209,0.173,-0.276,0.31c-0.066,0.136,-0.115,0.304,-0.146,0.504c-0.029,0.2,-0.043,0.429,-0.043,0.687l0,2.286L621.88,614.902L621.88,610.043l1.012,0l0.181,0.621l0.073,0c0.069,-0.124,0.153,-0.23,0.253,-0.321c0.102,-0.089,0.21,-0.163,0.328,-0.221s0.245,-0.103,0.378,-0.128c0.136,-0.028,0.271,-0.043,0.409,-0.043c0.237,0,0.454,0.033,0.647,0.104c0.194,0.067,0.36,0.174,0.5,0.318c0.141,0.146,0.247,0.328,0.321,0.555c0.075,0.225,0.113,0.492,0.113,0.807l0,3.168L626.094,614.902L626.094,614.902z"/>
   <path fill="#8C8C8C"  stroke-width="0" d="M631.524,610.052l0,0.722l-0.708,0.221c0.059,0.1,0.1,0.201,0.122,0.308c0.021,0.106,0.033,0.22,0.033,0.343c0,0.246,-0.039,0.471,-0.116,0.676c-0.078,0.203,-0.193,0.379,-0.349,0.522c-0.152,0.146,-0.346,0.258,-0.578,0.337c-0.23,0.08,-0.5,0.119,-0.808,0.119c-0.067,0,-0.141,-0.003,-0.218,-0.012c-0.078,-0.007,-0.137,-0.015,-0.175,-0.021c-0.057,0.049,-0.104,0.101,-0.137,0.152c-0.033,0.054,-0.049,0.117,-0.049,0.193c0,0.061,0.018,0.108,0.056,0.146s0.087,0.065,0.147,0.087c0.06,0.022,0.133,0.036,0.214,0.044s0.165,0.012,0.251,0.012l0.756,0c0.236,0,0.446,0.025,0.631,0.081c0.186,0.055,0.342,0.135,0.472,0.246c0.129,0.109,0.229,0.249,0.299,0.419c0.069,0.169,0.104,0.372,0.104,0.605c0,0.275,-0.054,0.523,-0.164,0.745c-0.109,0.224,-0.274,0.41,-0.494,0.565c-0.219,0.154,-0.488,0.273,-0.813,0.355c-0.324,0.082,-0.699,0.123,-1.126,0.123c-0.329,0,-0.618,-0.031,-0.864,-0.094c-0.247,-0.063,-0.451,-0.15,-0.617,-0.27c-0.165,-0.116,-0.288,-0.258,-0.371,-0.424c-0.084,-0.164,-0.125,-0.353,-0.125,-0.561c0,-0.177,0.031,-0.33,0.093,-0.46c0.061,-0.131,0.143,-0.243,0.243,-0.336c0.102,-0.093,0.218,-0.168,0.347,-0.227c0.129,-0.058,0.262,-0.103,0.396,-0.134c-0.061,-0.026,-0.12,-0.063,-0.181,-0.109c-0.059,-0.047,-0.113,-0.1,-0.161,-0.159c-0.047,-0.063,-0.086,-0.129,-0.116,-0.203c-0.031,-0.072,-0.047,-0.15,-0.047,-0.23c0,-0.093,0.015,-0.178,0.04,-0.252c0.029,-0.076,0.068,-0.146,0.12,-0.212c0.052,-0.064,0.117,-0.126,0.196,-0.184c0.078,-0.06,0.166,-0.117,0.264,-0.18c-0.254,-0.11,-0.456,-0.287,-0.604,-0.53c-0.15,-0.244,-0.225,-0.529,-0.225,-0.859c0,-0.26,0.04,-0.494,0.121,-0.699c0.081,-0.207,0.2,-0.381,0.356,-0.523c0.155,-0.144,0.35,-0.252,0.582,-0.328c0.231,-0.076,0.499,-0.113,0.801,-0.113c0.057,0,0.122,0.004,0.194,0.012s0.145,0.018,0.216,0.025c0.07,0.01,0.137,0.021,0.196,0.033c0.061,0.01,0.109,0.021,0.146,0.029L631.524,610.052L631.524,610.052zM628.047,615.589c0,0.073,0.017,0.145,0.047,0.211c0.03,0.068,0.08,0.129,0.15,0.182c0.068,0.052,0.16,0.094,0.272,0.124c0.113,0.03,0.252,0.046,0.417,0.046c0.452,0,0.792,-0.063,1.021,-0.191c0.229,-0.127,0.343,-0.298,0.343,-0.514c0,-0.183,-0.07,-0.304,-0.213,-0.364c-0.143,-0.06,-0.361,-0.091,-0.66,-0.091l-0.613,0c-0.077,0,-0.162,0.009,-0.252,0.027c-0.09,0.018,-0.172,0.052,-0.248,0.099c-0.075,0.046,-0.139,0.108,-0.188,0.184S628.047,615.474,628.047,615.589zM628.526,611.634c0,0.263,0.049,0.468,0.147,0.612c0.098,0.146,0.248,0.217,0.447,0.217c0.209,0,0.358,-0.07,0.451,-0.217c0.094,-0.145,0.14,-0.35,0.14,-0.612c0,-0.261,-0.046,-0.468,-0.137,-0.622c-0.092,-0.152,-0.243,-0.229,-0.454,-0.229C628.723,610.782,628.526,611.065,628.526,611.634z"/>
   <path fill="#8C8C8C"  stroke-width="0" d="M632.274,614.281c0,-0.136,0.02,-0.251,0.059,-0.346c0.04,-0.095,0.094,-0.172,0.163,-0.229c0.069,-0.058,0.149,-0.101,0.244,-0.126c0.092,-0.026,0.191,-0.039,0.299,-0.039c0.102,0,0.198,0.013,0.289,0.039c0.092,0.025,0.172,0.068,0.242,0.126c0.068,0.057,0.123,0.134,0.163,0.229c0.041,0.095,0.062,0.21,0.062,0.346c0,0.13,-0.021,0.242,-0.062,0.335c-0.04,0.093,-0.095,0.17,-0.163,0.229c-0.07,0.062,-0.15,0.104,-0.242,0.133c-0.091,0.027,-0.188,0.042,-0.289,0.042c-0.106,0,-0.207,-0.015,-0.299,-0.042c-0.095,-0.027,-0.175,-0.071,-0.244,-0.133c-0.069,-0.061,-0.123,-0.138,-0.163,-0.229C632.292,614.523,632.274,614.411,632.274,614.281z"/>
   <path fill="#8C8C8C"  stroke-width="0" d="M639.233,612.463c0,0.406,-0.052,0.767,-0.153,1.079c-0.104,0.313,-0.251,0.576,-0.443,0.79c-0.192,0.215,-0.428,0.378,-0.704,0.489c-0.277,0.111,-0.587,0.167,-0.933,0.167c-0.321,0,-0.617,-0.056,-0.886,-0.167c-0.271,-0.112,-0.503,-0.274,-0.698,-0.489c-0.195,-0.214,-0.35,-0.479,-0.458,-0.79c-0.11,-0.313,-0.165,-0.673,-0.165,-1.079c0,-0.402,0.051,-0.76,0.154,-1.072c0.103,-0.314,0.25,-0.576,0.442,-0.789C635.581,610.388,635.815,610.227,636.09,610.118s0.587,-0.164,0.937,-0.164c0.319,0,0.615,0.055,0.886,0.164c0.27,0.111,0.502,0.271,0.695,0.484c0.197,0.213,0.351,0.477,0.459,0.789C639.177,611.703,639.233,612.061,639.233,612.463zM636.147,612.463c0,0.484,0.068,0.851,0.205,1.093c0.137,0.246,0.357,0.368,0.664,0.368c0.306,0,0.524,-0.123,0.66,-0.37c0.137,-0.245,0.205,-0.608,0.205,-1.091s-0.068,-0.846,-0.205,-1.084c-0.136,-0.238,-0.358,-0.357,-0.668,-0.357c-0.305,0,-0.523,0.119,-0.659,0.357C636.214,611.618,636.147,611.981,636.147,612.463z"/>
   <path fill="#8C8C8C"  stroke-width="0" d="M642.953,609.952c0.035,0,0.073,0.002,0.115,0.002c0.042,0.002,0.083,0.006,0.12,0.01c0.04,0.005,0.076,0.009,0.109,0.014c0.033,0.004,0.059,0.01,0.076,0.016l0,1.244c-0.023,-0.008,-0.055,-0.012,-0.095,-0.018c-0.041,-0.007,-0.083,-0.012,-0.13,-0.018c-0.045,-0.004,-0.089,-0.006,-0.132,-0.008c-0.045,-0.002,-0.08,-0.002,-0.108,-0.002c-0.171,0,-0.328,0.021,-0.473,0.064c-0.144,0.043,-0.267,0.113,-0.37,0.211c-0.102,0.098,-0.182,0.225,-0.237,0.383c-0.058,0.157,-0.084,0.352,-0.084,0.581l0,2.474l-1.326,0L640.418,610.043l1.004,0l0.195,0.73l0.065,0c0.068,-0.125,0.146,-0.238,0.226,-0.34c0.081,-0.103,0.172,-0.189,0.271,-0.259c0.101,-0.071,0.213,-0.126,0.339,-0.165C642.647,609.972,642.791,609.952,642.953,609.952z"/>
   <path fill="#8C8C8C"  stroke-width="0" d="M648.261,610.052l0,0.722l-0.708,0.221c0.058,0.1,0.099,0.201,0.121,0.308s0.034,0.22,0.034,0.343c0,0.246,-0.039,0.471,-0.116,0.676c-0.079,0.203,-0.194,0.379,-0.349,0.522c-0.153,0.146,-0.348,0.258,-0.578,0.337c-0.232,0.08,-0.501,0.119,-0.809,0.119c-0.067,0,-0.141,-0.003,-0.219,-0.012c-0.078,-0.007,-0.135,-0.015,-0.173,-0.021c-0.058,0.049,-0.104,0.101,-0.137,0.152c-0.034,0.054,-0.05,0.117,-0.05,0.193c0,0.061,0.019,0.108,0.057,0.146c0.037,0.037,0.086,0.065,0.146,0.087c0.062,0.021,0.133,0.036,0.215,0.044c0.08,0.008,0.164,0.012,0.251,0.012l0.756,0c0.234,0,0.445,0.025,0.63,0.081c0.186,0.055,0.343,0.135,0.472,0.246c0.129,0.109,0.229,0.249,0.298,0.419c0.07,0.169,0.104,0.372,0.104,0.605c0,0.275,-0.054,0.523,-0.165,0.745c-0.109,0.224,-0.275,0.41,-0.493,0.565c-0.219,0.154,-0.489,0.273,-0.815,0.355c-0.323,0.082,-0.698,0.123,-1.125,0.123c-0.329,0,-0.617,-0.031,-0.864,-0.094c-0.246,-0.063,-0.451,-0.15,-0.617,-0.27c-0.164,-0.116,-0.287,-0.258,-0.371,-0.424c-0.083,-0.164,-0.124,-0.353,-0.124,-0.561c0,-0.177,0.03,-0.33,0.091,-0.46c0.063,-0.131,0.144,-0.243,0.244,-0.336c0.103,-0.093,0.217,-0.168,0.346,-0.227c0.129,-0.058,0.263,-0.103,0.398,-0.134c-0.062,-0.026,-0.121,-0.063,-0.182,-0.109c-0.06,-0.047,-0.113,-0.1,-0.16,-0.159c-0.047,-0.063,-0.087,-0.129,-0.117,-0.203c-0.03,-0.073,-0.045,-0.151,-0.045,-0.231c0,-0.093,0.014,-0.178,0.04,-0.252c0.027,-0.076,0.067,-0.146,0.12,-0.212c0.051,-0.064,0.117,-0.126,0.194,-0.184c0.078,-0.06,0.166,-0.117,0.266,-0.18c-0.255,-0.109,-0.456,-0.287,-0.606,-0.529c-0.148,-0.244,-0.223,-0.531,-0.223,-0.861c0,-0.26,0.039,-0.493,0.121,-0.698c0.081,-0.207,0.199,-0.382,0.354,-0.524c0.156,-0.143,0.351,-0.252,0.583,-0.328c0.231,-0.074,0.499,-0.111,0.8,-0.111c0.059,0,0.123,0.003,0.195,0.011s0.146,0.017,0.215,0.026c0.072,0.009,0.138,0.021,0.198,0.031c0.062,0.012,0.108,0.021,0.145,0.03L648.261,610.051L648.261,610.052zM644.785,615.589c0,0.073,0.017,0.145,0.046,0.211c0.031,0.068,0.081,0.129,0.149,0.182c0.07,0.052,0.161,0.094,0.273,0.124c0.114,0.03,0.252,0.046,0.418,0.046c0.451,0,0.792,-0.063,1.021,-0.191c0.229,-0.127,0.343,-0.298,0.343,-0.514c0,-0.183,-0.071,-0.304,-0.214,-0.364s-0.361,-0.091,-0.66,-0.091l-0.612,0c-0.079,0,-0.163,0.009,-0.252,0.027c-0.09,0.019,-0.173,0.052,-0.248,0.099c-0.076,0.046,-0.139,0.108,-0.188,0.184C644.811,615.376,644.785,615.474,644.785,615.589zM645.262,611.634c0,0.263,0.049,0.468,0.148,0.612c0.099,0.146,0.248,0.217,0.447,0.217c0.209,0,0.358,-0.07,0.451,-0.217c0.094,-0.145,0.141,-0.35,0.141,-0.612c0,-0.261,-0.046,-0.468,-0.138,-0.622c-0.092,-0.152,-0.243,-0.229,-0.454,-0.229C645.46,610.782,645.262,611.065,645.262,611.634z"/>
  </g>
  <g  stroke-width="0">
   <path fill="#8C8C8C"  stroke-width="0" d="M593.855,607.172l-8.146,0c-0.532,0,-0.965,0.432,-0.965,0.964l0,8.146c0,0.531,0.433,0.964,0.965,0.964l5.55,0l3.557,-3.558L594.816,608.136C594.819,607.603,594.387,607.172,593.855,607.172zM592.178,610.901l-1.075,0l0,0.401l1.075,0l0,1.601l-2.196,0l0,2.058l-2.572,0l0,-4.67l0.988,-0.99l3.779,0l0,1.603l0.001,0L592.178,610.901z"/>
  </g>
 </g>
 <g transform="translate(0,195.468)">
  <g  id="schematic" stroke-width="0">
   <rect width="10.488" x="1.299" y="126.765" fill="none"  height="2.1" id="connector28pin" stroke-width="0"/>
   <rect width="10.488" x="1.299" y="105.884" fill="none"  height="2.1" id="connector29pin" stroke-width="0"/>
   <rect width="10.488" x="1.299" y="85.004" fill="none"  height="2.1" id="connector0pin" stroke-width="0"/>
   <rect width="2.099" x="106.41" y="393.897" fill="none"  height="10.488" id="connector1pin" stroke-width="0"/>
   <rect width="10.486" x="203.165" y="42.676" fill="none"  height="2.099" id="connector2pin" stroke-width="0"/>
   <rect width="10.488" x="203.172" y="63.912" fill="none"  height="2.099" id="connector3pin" stroke-width="0"/>
   <rect width="10.488" x="203.172" y="85.148" fill="none"  height="2.099" id="connector4pin" stroke-width="0"/>
   <rect width="10.488" x="203.172" y="106.387" fill="none"  height="2.098" id="connector5pin" stroke-width="0"/>
   <rect width="10.488" x="203.172" y="127.622" fill="none"  height="2.099" id="connector6pin" stroke-width="0"/>
   <rect width="10.488" x="203.172" y="148.857" fill="none"  height="2.099" id="connector7pin" stroke-width="0"/>
   <rect width="10.488" x="203.172" y="170.095" fill="none"  height="2.099" id="connector8pin" stroke-width="0"/>
   <rect width="10.488" x="203.172" y="191.331" fill="none"  height="2.1" id="connector9pin" stroke-width="0"/>
   <rect width="10.488" x="203.172" y="212.567" fill="none"  height="2.1" id="connector10pin" stroke-width="0"/>
   <rect width="10.488" x="203.172" y="233.803" fill="none"  height="2.098" id="connector11pin" stroke-width="0"/>
   <rect width="10.488" x="203.172" y="255.04" fill="none"  height="2.101" id="connector12pin" stroke-width="0"/>
   <rect width="10.488" x="203.172" y="276.276" fill="none"  height="2.098" id="connector13pin" stroke-width="0"/>
   <rect width="10.488" x="203.172" y="297.51" fill="none"  height="2.1" id="connector14pin" stroke-width="0"/>
   <rect width="10.488" x="203.172" y="360.508" fill="none"  height="2.1" id="connector31pin" stroke-width="0"/>
   <rect width="10.488" x="203.172" y="339.627" fill="none"  height="2.1" id="connector30pin" stroke-width="0"/>
   <rect width="10.488" x="203.172" y="318.747" fill="none"  height="2.1" id="connector15pin" stroke-width="0"/>
   <rect width="10.486" x="1.289" y="63.768" fill="none"  height="2.099" id="connector16pin" stroke-width="0"/>
   <rect width="2.101" x="63.896" y="0.975" fill="none"  height="10.488" id="connector17pin" stroke-width="0"/>
   <rect width="2.098" x="85.132" y="0.975" fill="none"  height="10.488" id="connector18pin" stroke-width="0"/>
   <rect width="2.097" x="106.406" y="393.897" fill="none"  height="10.488" id="connector19pin" stroke-width="0"/>
   <rect width="2.099" x="106.41" y="393.897" fill="none"  height="10.488" id="connector20pin" stroke-width="0"/>
   <rect width="2.1" x="148.841" y="0.975" fill="none"  height="10.488" id="connector21pin" stroke-width="0"/>
   <rect width="10.488" x="1.26" y="233.637" fill="none"  height="2.099" id="connector22pin" stroke-width="0"/>
   <rect width="10.488" x="1.26" y="254.874" fill="none"  height="2.101" id="connector23pin" stroke-width="0"/>
   <rect width="10.488" x="1.26" y="276.109" fill="none"  height="2.099" id="connector24pin" stroke-width="0"/>
   <rect width="10.488" x="1.26" y="297.345" fill="none"  height="2.099" id="connector25pin" stroke-width="0"/>
   <rect width="10.488" x="1.26" y="318.584" fill="none"  height="2.098" id="connector26pin" stroke-width="0"/>
   <rect width="10.488" x="1.26" y="339.819" fill="none"  height="2.098" id="connector27pin" stroke-width="0"/>
   <rect width="1.995" x="1.299" y="126.765" fill="none"  height="2.1" id="connector28terminal" stroke-width="0"/>
   <rect width="1.995" x="1.299" y="105.884" fill="none"  height="2.1" id="connector29terminal" stroke-width="0"/>
   <rect width="1.995" x="1.299" y="85.004" fill="none"  height="2.1" id="connector0terminal" stroke-width="0"/>
   <rect width="2.099" x="106.41" y="402.393" fill="none"  height="1.992" id="connector1terminal" stroke-width="0"/>
   <rect width="1.993" x="211.659" y="42.676" fill="none"  height="2.099" id="connector2terminal" stroke-width="0"/>
   <rect width="1.994" x="211.667" y="63.912" fill="none"  height="2.099" id="connector3terminal" stroke-width="0"/>
   <rect width="1.994" x="211.667" y="85.148" fill="none"  height="2.099" id="connector4terminal" stroke-width="0"/>
   <rect width="1.994" x="211.667" y="106.387" fill="none"  height="2.098" id="connector5terminal" stroke-width="0"/>
   <rect width="1.994" x="211.667" y="127.622" fill="none"  height="2.099" id="connector6terminal" stroke-width="0"/>
   <rect width="1.994" x="211.667" y="148.857" fill="none"  height="2.099" id="connector7terminal" stroke-width="0"/>
   <rect width="1.994" x="211.667" y="170.095" fill="none"  height="2.099" id="connector8terminal" stroke-width="0"/>
   <rect width="1.994" x="211.667" y="191.331" fill="none"  height="2.1" id="connector9terminal" stroke-width="0"/>
   <rect width="1.994" x="211.667" y="212.567" fill="none"  height="2.1" id="connector10terminal" stroke-width="0"/>
   <rect width="1.994" x="211.667" y="233.803" fill="none"  height="2.098" id="connector11terminal" stroke-width="0"/>
   <rect width="1.994" x="211.667" y="255.04" fill="none"  height="2.101" id="connector12terminal" stroke-width="0"/>
   <rect width="1.994" x="211.667" y="276.276" fill="none"  height="2.098" id="connector13terminal" stroke-width="0"/>
   <rect width="1.994" x="211.667" y="297.51" fill="none"  height="2.1" id="connector14terminal" stroke-width="0"/>
   <rect width="1.994" x="211.667" y="360.508" fill="none"  height="2.1" id="connector31terminal" stroke-width="0"/>
   <rect width="1.994" x="211.667" y="339.627" fill="none"  height="2.1" id="connector30terminal" stroke-width="0"/>
   <rect width="1.994" x="211.667" y="318.747" fill="none"  height="2.1" id="connector15terminal" stroke-width="0"/>
   <rect width="1.995" x="1.289" y="63.768" fill="none"  height="2.099" id="connector16terminal" stroke-width="0"/>
   <rect width="2.101" x="63.896" y="0.975" fill="none"  height="1.995" id="connector17terminal" stroke-width="0"/>
   <rect width="2.098" x="85.132" y="0.975" fill="none"  height="1.995" id="connector18terminal" stroke-width="0"/>
   <rect width="2.097" x="106.406" y="402.393" fill="none"  height="1.992" id="connector19terminal" stroke-width="0"/>
   <rect width="2.099" x="106.41" y="402.393" fill="none"  height="1.992" id="connector20terminal" stroke-width="0"/>
   <rect width="2.1" x="148.841" y="0.975" fill="none"  height="1.995" id="connector21terminal" stroke-width="0"/>
   <rect width="1.995" x="1.26" y="233.637" fill="none"  height="2.099" id="connector22terminal" stroke-width="0"/>
   <rect width="1.995" x="1.26" y="254.874" fill="none"  height="2.101" id="connector23terminal" stroke-width="0"/>
   <rect width="1.995" x="1.26" y="276.109" fill="none"  height="2.099" id="connector24terminal" stroke-width="0"/>
   <rect width="1.995" x="1.26" y="297.345" fill="none"  height="2.099" id="connector25terminal" stroke-width="0"/>
   <rect width="1.995" x="1.26" y="318.584" fill="none"  height="2.098" id="connector26terminal" stroke-width="0"/>
   <rect width="1.995" x="1.26" y="339.819" fill="none"  height="2.098" id="connector27terminal" stroke-width="0"/>
   <g  stroke-width="0">
    <rect width="169.973" x="22.446" y="22.211" fill="none"  height="360.936" stroke="#000000" stroke-linejoin="round" stroke-linecap="round" stroke-width="2.415"/>
    <line fill="none"  stroke="#000000" stroke-linejoin="round" stroke-linecap="round" y1="64.65" stroke-width="2.2495" x1="1.291" y2="64.65" x2="22.527"/>
    <line fill="none"  stroke="#000000" stroke-linejoin="round" stroke-linecap="round" y1="127.648" stroke-width="2.415" x1="1.299" y2="127.648" x2="22.446"/>
    <text x="0" y="0" font-family="'DroidSans'"  stroke-width="0" transform="matrix(1, 0, 0, 1, 30.4226, 130.195)" font-size="9.9889">N/C</text>
    <line fill="none"  stroke="#000000" stroke-linejoin="round" stroke-linecap="round" y1="106.768" stroke-width="2.415" x1="1.299" y2="106.768" x2="22.446"/>
    <text x="0" y="0" font-family="'DroidSans'"  stroke-width="0" transform="matrix(1, 0, 0, 1, 30.4226, 109.315)" font-size="9.9889">IO REF</text>
    <line fill="none"  stroke="#000000" stroke-linejoin="round" stroke-linecap="round" y1="85.887" stroke-width="2.415" x1="1.299" y2="85.887" x2="22.446"/>
    <line fill="none"  stroke="#000000" stroke-linejoin="round" stroke-linecap="round" y1="234.518" stroke-width="2.415" x1="1.26" y2="234.518" x2="22.446"/>
    <line fill="none"  stroke="#000000" stroke-linejoin="round" stroke-linecap="round" y1="255.754" stroke-width="2.415" x1="1.26" y2="255.754" x2="22.446"/>
    <line fill="none"  stroke="#000000" stroke-linejoin="round" stroke-linecap="round" y1="276.989" stroke-width="2.415" x1="1.26" y2="276.989" x2="22.446"/>
    <line fill="none"  stroke="#000000" stroke-linejoin="round" stroke-linecap="round" y1="298.225" stroke-width="2.415" x1="1.26" y2="298.225" x2="22.446"/>
    <line fill="none"  stroke="#000000" stroke-linejoin="round" stroke-linecap="round" y1="319.463" stroke-width="2.415" x1="1.26" y2="319.463" x2="22.446"/>
    <line fill="none"  stroke="#000000" stroke-linejoin="round" stroke-linecap="round" y1="340.7" stroke-width="2.415" x1="1.26" y2="340.7" x2="22.446"/>
    <line fill="none"  stroke="#000000" stroke-linejoin="round" stroke-linecap="round" y1="43.894" stroke-width="1.9517" x1="213.653" y2="43.894" x2="192.418"/>
    <line fill="none"  stroke="#000000" stroke-linejoin="round" stroke-linecap="round" y1="65.129" stroke-width="2.415" x1="213.66" y2="65.129" x2="192.418"/>
    <line fill="none"  stroke="#000000" stroke-linejoin="round" stroke-linecap="round" y1="86.367" stroke-width="2.415" x1="213.66" y2="86.367" x2="192.418"/>
    <line fill="none"  stroke="#000000" stroke-linejoin="round" stroke-linecap="round" y1="107.603" stroke-width="2.415" x1="213.66" y2="107.603" x2="192.418"/>
    <line fill="none"  stroke="#000000" stroke-linejoin="round" stroke-linecap="round" y1="128.838" stroke-width="2.415" x1="213.66" y2="128.838" x2="192.418"/>
    <line fill="none"  stroke="#000000" stroke-linejoin="round" stroke-linecap="round" y1="150.076" stroke-width="2.415" x1="213.66" y2="150.076" x2="192.418"/>
    <line fill="none"  stroke="#000000" stroke-linejoin="round" stroke-linecap="round" y1="171.312" stroke-width="2.415" x1="213.66" y2="171.312" x2="192.418"/>
    <line fill="none"  stroke="#000000" stroke-linejoin="round" stroke-linecap="round" y1="192.548" stroke-width="2.415" x1="213.66" y2="192.548" x2="192.418"/>
    <line fill="none"  stroke="#000000" stroke-linejoin="round" stroke-linecap="round" y1="213.784" stroke-width="2.415" x1="213.66" y2="213.784" x2="192.418"/>
    <line fill="none"  stroke="#000000" stroke-linejoin="round" stroke-linecap="round" y1="235.02" stroke-width="2.415" x1="213.66" y2="235.02" x2="192.418"/>
    <line fill="none"  stroke="#000000" stroke-linejoin="round" stroke-linecap="round" y1="256.256" stroke-width="2.415" x1="213.66" y2="256.256" x2="192.418"/>
    <line fill="none"  stroke="#000000" stroke-linejoin="round" stroke-linecap="round" y1="277.495" stroke-width="2.415" x1="213.66" y2="277.495" x2="192.418"/>
    <line fill="none"  stroke="#000000" stroke-linejoin="round" stroke-linecap="round" y1="340.491" stroke-width="2.415" x1="213.66" y2="340.491" x2="192.418"/>
    <line fill="none"  stroke="#000000" stroke-linejoin="round" stroke-linecap="round" y1="361.727" stroke-width="2.415" x1="213.66" y2="361.727" x2="192.418"/>
    <text x="0" y="0" font-family="'DroidSans'"  stroke-width="0" transform="matrix(1, 0, 0, 1, 165.78, 343.242)" font-size="9.9889">SCL</text>
    <text x="0" y="0" font-family="'DroidSans'"  stroke-width="0" transform="matrix(1, 0, 0, 1, 163.804, 364.424)" font-size="9.9889">SDA</text>
    <line fill="none"  stroke="#000000" stroke-linejoin="round" stroke-linecap="round" y1="298.729" stroke-width="2.415" x1="213.66" y2="298.729" x2="192.418"/>
    <line fill="none"  stroke="#000000" stroke-linejoin="round" stroke-linecap="round" y1="319.965" stroke-width="2.415" x1="213.66" y2="319.965" x2="192.418"/>
    <text x="0" y="0" font-family="'DroidSans'"  stroke-width="0" transform="matrix(1, 0, 0, 1, 30.4207, 67.3672)" font-size="9.9889">RST</text>
    <text x="0" y="0" font-family="'DroidSans'"  stroke-width="0" transform="matrix(1, 0, 0, 1, 30.4226, 88.4355)" font-size="9.9889">AREF</text>
    <text x="0" y="0" font-family="'DroidSans'"  stroke-width="0" transform="matrix(1, 0, 0, 1, 32.2927, 237.01)" font-size="9.9889">A0</text>
    <text x="0" y="0" font-family="'DroidSans'"  stroke-width="0" transform="matrix(1, 0, 0, 1, 32.2927, 258.446)" font-size="9.9889">A1</text>
    <text x="0" y="0" font-family="'DroidSans'"  stroke-width="0" transform="matrix(1, 0, 0, 1, 32.2927, 279.885)" font-size="9.9889">A2</text>
    <text x="0" y="0" font-family="'DroidSans'"  stroke-width="0" transform="matrix(1, 0, 0, 1, 32.2927, 301.323)" font-size="9.9889">A3</text>
    <text x="0" y="0" font-family="'DroidSans'"  stroke-width="0" transform="matrix(1, 0, 0, 1, 32.2927, 322.76)" font-size="9.9889">A4</text>
    <text x="0" y="0" font-family="'DroidSans'"  stroke-width="0" transform="matrix(1, 0, 0, 1, 32.2927, 344.198)" font-size="9.9889">A5</text>
    <line fill="none"  stroke="#000000" stroke-linejoin="round" stroke-linecap="round" y1="22.211" stroke-width="1.9517" x1="64.9" y2="0.975" x2="64.9"/>
    <line fill="none"  stroke="#000000" stroke-linejoin="round" stroke-linecap="round" y1="22.211" stroke-width="1.9517" x1="86.136" y2="0.975" x2="86.136"/>
    <line fill="none"  stroke="#000000" stroke-linejoin="round" stroke-linecap="round" y1="22.211" stroke-width="1.9517" x1="149.845" y2="0.975" x2="149.845"/>
    <text x="0" y="0" font-family="'DroidSans'"  stroke-width="0" transform="matrix(1, 0, 0, 1, 56.5574, 39.3721)" font-size="9.9889">3V3</text>
    <text x="0" y="0" font-family="'DroidSans'"  stroke-width="0" transform="matrix(1, 0, 0, 1, 80.5505, 39.3721)" font-size="9.9889">5V</text>
    <text x="0" y="0" font-family="'DroidSans'"  stroke-width="0" transform="matrix(1, 0, 0, 1, 141.749, 39.3721)" font-size="9.9889">Vin </text>
    <text x="0" y="0" font-family="'DroidSans'"  stroke-width="0" transform="matrix(0, 1, -1, 0, 57.3362, 264.112)" font-size="9.9889">Analog Input</text>
    <text x="0" y="0" font-family="'DroidSans'"  stroke-width="0" transform="matrix(1, 0, 0, 1, 163.435, 88.8037)" font-size="9.9889">D11</text>
    <text x="0" y="0" font-family="'DroidSans'"  stroke-width="0" transform="matrix(1, 0, 0, 1, 163.435, 110.413)" font-size="9.9889">D10</text>
    <text x="0" y="0" font-family="'DroidSans'"  stroke-width="0" transform="matrix(1, 0, 0, 1, 168.935, 131.595)" font-size="9.9889">D9</text>
    <text x="0" y="0" font-family="'DroidSans'"  stroke-width="0" transform="matrix(1, 0, 0, 1, 168.935, 152.352)" font-size="9.9889">D8</text>
    <text x="0" y="0" font-family="'DroidSans'"  stroke-width="0" transform="matrix(1, 0, 0, 1, 168.935, 173.961)" font-size="9.9889">D7</text>
    <text x="0" y="0" font-family="'DroidSans'"  stroke-width="0" transform="matrix(1, 0, 0, 1, 168.935, 194.72)" font-size="9.9889">D6</text>
    <text x="0" y="0" font-family="'DroidSans'"  stroke-width="0" transform="matrix(1, 0, 0, 1, 168.935, 216.327)" font-size="9.9889">D5</text>
    <text x="0" y="0" font-family="'DroidSans'"  stroke-width="0" transform="matrix(1, 0, 0, 1, 168.935, 237.508)" font-size="9.9889">D4</text>
    <text x="0" y="0" font-family="'DroidSans'"  stroke-width="0" transform="matrix(1, 0, 0, 1, 168.935, 259.116)" font-size="9.9889">D3</text>
    <text x="0" y="0" font-family="'DroidSans'"  stroke-width="0" transform="matrix(1, 0, 0, 1, 195.706, 253.057)" font-size="6.9922">PWM</text>
    <text x="0" y="0" font-family="'DroidSans'"  stroke-width="0" transform="matrix(1, 0, 0, 1, 196.698, 295.217)" font-size="6.9922">TX</text>
    <text x="0" y="0" font-family="'DroidSans'"  stroke-width="0" transform="matrix(1, 0, 0, 1, 196.698, 315.614)" font-size="6.9922">RX</text>
    <text x="0" y="0" font-family="'DroidSans'"  stroke-width="0" transform="matrix(1, 0, 0, 1, 195.706, 125.922)" font-size="6.9922">PWM</text>
    <text x="0" y="0" font-family="'DroidSans'"  stroke-width="0" transform="matrix(1, 0, 0, 1, 195.706, 104.583)" font-size="6.9922">PWM</text>
    <text x="0" y="0" font-family="'DroidSans'"  stroke-width="0" transform="matrix(1, 0, 0, 1, 195.706, 210.545)" font-size="6.9922">PWM</text>
    <text x="0" y="0" font-family="'DroidSans'"  stroke-width="0" transform="matrix(1, 0, 0, 1, 195.706, 189.208)" font-size="6.9922">PWM</text>
    <text x="0" y="0" font-family="'DroidSans'"  stroke-width="0" transform="matrix(1, 0, 0, 1, 195.706, 83.4561)" font-size="6.9922">PWM</text>
    <text x="0" y="0" font-family="'DroidSans'"  stroke-width="0" transform="matrix(1, 0, 0, 1, 168.935, 279.873)" font-size="9.9889">D2</text>
    <text x="0" y="0" font-family="'DroidSans'"  stroke-width="0" transform="matrix(1, 0, 0, 1, 168.935, 301.481)" font-size="9.9889">D1</text>
    <text x="0" y="0" font-family="'DroidSans'"  stroke-width="0" transform="matrix(1, 0, 0, 1, 163.435, 46.4385)" font-size="9.9889">D13</text>
    <text x="0" y="0" font-family="'DroidSans'"  stroke-width="0" transform="matrix(1, 0, 0, 1, 163.435, 67.6211)" font-size="9.9889">D12</text>
    <text x="0" y="0" font-family="'DroidSans'"  stroke-width="0" transform="matrix(1, 0, 0, 1, 168.935, 322.665)" font-size="9.9889">D0</text>
    <text x="0" y="0" font-family="'DroidSans'"  stroke-width="0" transform="matrix(0, -1, 1, 0, 156.935, 242.432)" font-size="9.9889">Digital Input/Output</text>
    <text x="0" y="0" font-family="'DroidSans'"  stroke-width="0" transform="matrix(1, 0, 0, 1, 93.28, 53.918)" font-size="9.9889">Power</text>
    <text x="0" y="0" font-family="'DroidSans'"  stroke-width="0" transform="matrix(1, 0, 0, 1, 72.6765, 112.121)" font-size="17.98">Arduino </text>
    <line fill="none"  stroke="#000000" stroke-linejoin="round" stroke-linecap="round" y1="404.385" stroke-width="1.9517" x1="107.458" y2="383.147" x2="107.458"/>
    <text x="0" y="0" font-family="'DroidSans'"  stroke-width="0" transform="matrix(1, 0, 0, 1, 96.9275, 372.96)" font-size="9.9889">GND</text>
    <polygon points="206.345,290.319,211.05,293.036,206.345,295.752"  stroke-width="0"/>
    <polygon points="211.05,316.364,206.345,313.643,211.05,310.928"  stroke-width="0"/>
   </g>
  </g>
 </g>
 <g transform="translate(212.8,305.068)">
  <g  id="schematic" stroke-width="0">
   <desc >Fritzing schematic generated by brd2svg</desc>
   <rect width="170.078" x="22.46" y="22.46" fill="none"  height="127.559" stroke="#000000" stroke-linejoin="round" stroke-linecap="round" stroke-width="2.4"/>
   <text x="0" y="0" font-family="DroidSans"  id="label" stroke-width="0" transform="matrix(1, 0, 0, 1, 55.4694, 72.9796)" font-size="18">Bluetooth</text>
   <text x="0" y="0" font-family="DroidSans"  id="label_1_" stroke-width="0" transform="matrix(1, 0, 0, 1, 49.4914, 94.2394)" font-size="18">BlueSMiRF</text>
   <text x="0" y="0" font-family="DroidSans"  id="label_2_" stroke-width="0" transform="matrix(1, 0, 0, 1, 73.9953, 115.499)" font-size="18">Gold</text>
   <rect width="2.4" x="0" y="63.78" fill="none"  height="2.4" stroke-width="0"/>
   <line fill="none"  stroke="#000000" stroke-linejoin="round" stroke-linecap="round" y1="94.9799" stroke-width="2.4" x1="192.539" y2="94.9799" x2="213.798"/>
   <rect width="21.26" x="193.739" y="63.78" fill="none"  height="2.4" stroke-width="0"/>
   <rect width="2.4" x="212.599" y="63.78" fill="none"  height="2.4" stroke-width="0"/>
   <text x="0" y="0" font-family="DroidSans"  id="label14" stroke-width="0" transform="matrix(1, 0, 0, 1, 157.507, 98.38)" font-size="9.93599">TX_5V</text>
   <line fill="none"  stroke="#000000" stroke-linejoin="round" stroke-linecap="round" y1="116.24" stroke-width="2.4" x1="192.539" y2="116.24" x2="213.798"/>
   <rect width="21.26" x="193.739" y="85.0389" fill="none"  height="2.4" stroke-width="0"/>
   <rect width="2.4" x="212.599" y="85.0389" fill="none"  height="2.4" stroke-width="0"/>
   <text x="0" y="0" font-family="DroidSans"  id="label13" stroke-width="0" transform="matrix(1, 0, 0, 1, 156.294, 119.64)" font-size="9.93599">RX_5V</text>
   <line fill="none"  stroke="#000000" stroke-linejoin="round" stroke-linecap="round" y1="137.499" stroke-width="2.4" x1="192.539" y2="137.499" x2="213.798"/>
   <rect width="21.26" x="193.739" y="106.299" fill="none"  height="2.4" stroke-width="0"/>
   <rect width="2.4" x="212.599" y="106.299" fill="none"  height="2.4" stroke-width="0"/>
   <text x="0" y="0" font-family="DroidSans"  id="label12" stroke-width="0" transform="matrix(1, 0, 0, 1, 150.335, 141.9)" font-size="9.93599">RTS_5V</text>
   <line fill="none"  stroke="#000000" stroke-linejoin="round" stroke-linecap="round" y1="33.861" stroke-width="2.4" x1="192.65" y2="33.861" x2="213.908"/>
   <text x="0" y="0" font-family="DroidSans"  id="label14_1_" stroke-width="0" transform="matrix(1, 0, 0, 1, 150.442, 37.261)" font-size="9.93599">CTS_5V</text>
   <line fill="none"  stroke="#000000" stroke-linejoin="round" stroke-linecap="round" y1="55.12" stroke-width="2.4" x1="192.65" y2="55.12" x2="213.908"/>
   <text x="0" y="0" font-family="DroidSans"  id="label13_1_" stroke-width="0" transform="matrix(1, 0, 0, 1, 166.909, 58.5208)" font-size="9.93599">VCC</text>
   <line fill="none"  stroke="#000000" stroke-linejoin="round" stroke-linecap="round" y1="76.3799" stroke-width="2.4" x1="192.65" y2="76.3799" x2="213.908"/>
   <text x="0" y="0" font-family="DroidSans"  id="label12_1_" stroke-width="0" transform="matrix(1, 0, 0, 1, 165.917, 80.7804)" font-size="9.93599">GND</text>
   <line fill="none"  stroke="#000000" stroke-linejoin="round" stroke-linecap="round" y1="1.2" stroke-width="2.4" x1="107.499" y2="21.26" x2="107.499"/>
   <rect width="2.4" x="106.299" y="0" fill="none"  height="21.26" stroke-width="0"/>
   <polygon fill="none" points="106.299,0,108.699,0,108.699,0"  stroke-width="0"/>
   <text x="0" y="0" font-family="DroidSans"  id="label15" stroke-width="0" transform="matrix(1, 0, 0, 1, 96.0104, 33.8606)" font-size="9.93599">PIO4</text>
   <rect width="2.4" x="106.299" y="151.219" fill="none"  height="21.26" stroke-width="0"/>
   <polygon fill="none" points="106.299,172.479,108.699,172.479,108.699,172.479"  stroke-width="0"/>
   <rect width="21.26" x="95.9999" y="91.7799" fill="none"  height="2.4" stroke-width="0"/>
   <rect width="20.791" x="194.19" y="74.5214" fill="none"  height="3.16061" id="connector3" stroke-width="0"/>
   <rect width="22.5971" x="193.287" y="93.485" fill="none"  height="3.16061" id="connector4" stroke-width="0"/>
   <rect width="19.888" x="194.19" y="114.255" fill="none"  height="3.61212" id="connector5" stroke-width="0"/>
   <rect width="22.1456" x="193.738" y="136.358" fill="none"  height="2.73041" id="connector6" stroke-width="0"/>
   <rect width="2.70909" x="106.617" y="0.92435" fill="none"  height="20.3182" id="connector0" stroke-width="0"/>
   <rect width="22.5971" x="193.738" y="32.5304" fill="none"  height="2.62413" id="connector1" stroke-width="0"/>
   <rect width="20.791" x="194.19" y="53.3001" fill="none"  height="2.62413" id="connector2" stroke-width="0"/>
  </g>
 </g>
 <g transform="translate(341.694,16.1272)">
  <g  id="schematic" stroke-width="0">
   <rect width="0.1664" x="9.356" y="67.8368"  height="0.1664" id="connector0terminal" stroke-width="0"/>
   <rect width="1.1" x="8.8608" y="52.3992"  height="15.8" id="connector0pin" stroke-width="0"/>
   <rect width="0.1664" x="43.5688" y="0.716"  height="0.1664" id="connector1terminal" stroke-width="0"/>
   <rect width="1.1" x="43.0848" y="0.6328"  height="15.8" id="connector1pin" stroke-width="0"/>
   <rect width="0.1664" x="43.5824" y="67.8368"  height="0.1664" id="connector2terminal" stroke-width="0"/>
   <rect width="1.1" x="43.0856" y="52.3992"  height="15.8" id="connector2pin" stroke-width="0"/>
   <rect width="0.1672" x="77.8064" y="67.8368"  height="0.1664" id="connector3terminal" stroke-width="0"/>
   <rect width="1.1" x="77.3128" y="52.3992"  height="15.8" id="connector3pin" stroke-width="0"/>
   <g  id="g_x5F_b" stroke-width="0">
    <g  stroke-width="0">
     <path  stroke-width="0" d="M86.3,26.632c0.2872,0,0.5512,0.1544,0.6952,0.4072l0,0c0.1424,0.2496,0.1392,0.556,-0.0096,0.804l0,0L78.5656,41.9544c-0.144,0.2416,-0.4048,0.3904,-0.6856,0.3904l0,0c-0.28,0,-0.544,-0.1488,-0.6856,-0.3888l0,0L68.7512,27.8448c-0.1488,-0.2496,-0.1504,-0.5552,-0.0112,-0.8056l0,0c0.144,-0.252,0.408,-0.4072,0.6968,-0.4072l0,0L86.3,26.632M77.8768,39.984l7.0128,-11.7512L70.8472,28.2328L77.8768,39.984L77.8768,39.984z"/>
     <path  stroke-width="0" d="M69.2512,42.344c-0.4424,0,-0.8,-0.356,-0.8,-0.7984l0,0c0,-0.4432,0.3576,-0.8,0.8,-0.8l0,0l16.8424,0c0.4408,0,0.8,0.3568,0.8,0.8l0,0c0,0.4424,-0.3592,0.7984,-0.8,0.7984l0,0L69.2512,42.344L69.2512,42.344z"/>
     <path  stroke-width="0" d="M77.0784,27.2408L77.0784,17.6264c0,-0.4424,0.356,-0.7992,0.8,-0.7992l0,0c0.444,0,0.8,0.3568,0.8,0.7992l0,0l0,9.6144c0,0.4424,-0.356,0.8008,-0.8,0.8008l0,0C77.4344,28.0416,77.0784,27.6824,77.0784,27.2408L77.0784,27.2408z"/>
     <path  stroke-width="0" d="M77.0784,67.908L77.0784,41.4664c0,-0.4432,0.3576,-0.8008,0.8,-0.8008l0,0c0.4424,0,0.8,0.3576,0.8,0.8008l0,0l0,26.4416c0,0.4408,-0.3576,0.7984,-0.8,0.7984l0,0C77.436,68.7064,77.0784,68.3488,77.0784,67.908L77.0784,67.908z"/>
     <polygon points="93.6168,43.676,95.2016,48.0696,91.2704,45.5472,92.444,44.6112"  stroke-width="0"/>
     <path  stroke-width="0" d="M89.9,45.616l2.0472,-1.6296l1.172,-0.936l0.872,-0.6968l2.7688,7.664L89.9,45.616L89.9,45.616z"/>
     <path  stroke-width="0" d="M94.12,47.996l-7.5232,-9.4288c-0.2768,-0.3472,-0.2168,-0.8496,0.1264,-1.1248l0,0c0.3472,-0.2752,0.8488,-0.2168,1.1232,0.1272l0,0l7.5216,9.4288c0.2784,0.3472,0.22,0.8496,-0.1248,1.1248l0,0c-0.1488,0.1168,-0.3232,0.1744,-0.4968,0.1744l0,0C94.5112,48.2976,94.2784,48.1944,94.12,47.996L94.12,47.996z"/>
     <polygon points="88.3768,47.668,89.964,52.06,86.0328,49.5384,87.2032,48.6032"  stroke-width="0"/>
     <path  stroke-width="0" d="M84.6608,49.608l2.0456,-1.6312l1.172,-0.9344l0.8704,-0.6952l2.7752,7.664L84.6608,49.608L84.6608,49.608z"/>
     <path  stroke-width="0" d="M88.8816,51.9872l-5.8608,-7.3472c-0.2768,-0.3464,-0.2168,-0.8496,0.1264,-1.1248l0,0c0.344,-0.276,0.8488,-0.2168,1.1232,0.128l0,0l5.8592,7.3456c0.2768,0.3456,0.22,0.8488,-0.1264,1.1232l0,0c-0.1472,0.1168,-0.3216,0.1752,-0.4984,0.1752l0,0C89.2704,52.2888,89.0376,52.1856,88.8816,51.9872L88.8816,51.9872z"/>
    </g>
   </g>
   <g  id="g_x5F_g" stroke-width="0">
    <g  stroke-width="0">
     <path  stroke-width="0" d="M52.072,26.632c0.2872,0,0.5528,0.1544,0.6952,0.4072l0,0c0.144,0.2496,0.1392,0.556,-0.0096,0.804l0,0L44.3376,41.9544c-0.1432,0.2416,-0.4056,0.3904,-0.6864,0.3904l0,0c-0.28,0,-0.544,-0.1488,-0.6864,-0.3888l0,0L34.5248,27.8448c-0.148,-0.2496,-0.1512,-0.5552,-0.0104,-0.8056l0,0c0.1424,-0.252,0.4072,-0.4072,0.6968,-0.4072l0,0L52.072,26.632M43.6504,39.984l7.0136,-11.7512L36.6208,28.2328L43.6504,39.984L43.6504,39.984z"/>
     <path  stroke-width="0" d="M35.0264,42.344c-0.4432,0,-0.8,-0.356,-0.8,-0.7984l0,0c0,-0.4432,0.3568,-0.8,0.8,-0.8l0,0l16.8392,0c0.444,0,0.8016,0.3568,0.8016,0.8l0,0c0,0.4424,-0.3576,0.7984,-0.8016,0.7984l0,0L35.0264,42.344L35.0264,42.344z"/>
     <path  stroke-width="0" d="M42.852,26.8264L42.852,0.7992c0,-0.4424,0.3576,-0.7992,0.8,-0.7992l0,0c0.4432,0,0.8,0.3568,0.8,0.7992l0,0l0,26.0272c0,0.4424,-0.3568,0.8008,-0.8,0.8008l0,0C43.2104,27.6272,42.852,27.2688,42.852,26.8264L42.852,26.8264z"/>
     <path  stroke-width="0" d="M42.852,67.908L42.852,41.4664c0,-0.4432,0.3584,-0.8008,0.8,-0.8008l0,0c0.4424,0,0.8,0.3576,0.8,0.8008l0,0l0,26.4416c0,0.4408,-0.3576,0.7984,-0.8,0.7984l0,0C43.2112,68.7064,42.852,68.3488,42.852,67.908L42.852,67.908z"/>
     <polygon points="59.3904,43.676,60.9768,48.0696,57.0456,45.5472,58.2184,44.6112"  stroke-width="0"/>
     <path  stroke-width="0" d="M55.672,45.616l2.0472,-1.6296l1.172,-0.936l0.8736,-0.6968l2.7688,7.664L55.672,45.616L55.672,45.616z"/>
     <path  stroke-width="0" d="M59.8952,47.996l-7.5248,-9.4288c-0.2752,-0.3472,-0.2168,-0.8496,0.128,-1.1248l0,0c0.3472,-0.2752,0.8496,-0.2168,1.1232,0.1272l0,0l7.5232,9.4288c0.2752,0.3472,0.2168,0.8496,-0.1264,1.1248l0,0c-0.1504,0.1168,-0.3232,0.1744,-0.4984,0.1744l0,0C60.2856,48.2976,60.0528,48.1944,59.8952,47.996L59.8952,47.996z"/>
     <polygon points="54.1504,47.668,55.736,52.06,51.8048,49.5384,52.9784,48.6032"  stroke-width="0"/>
     <path  stroke-width="0" d="M50.4328,49.608l2.0472,-1.6312l1.1704,-0.9344l0.872,-0.6952l2.7752,7.664L50.4328,49.608L50.4328,49.608z"/>
     <path  stroke-width="0" d="M54.656,51.9872l-5.8608,-7.3472c-0.2776,-0.3464,-0.2176,-0.8496,0.1248,-1.1248l0,0c0.3456,-0.276,0.8496,-0.2168,1.1248,0.128l0,0l5.8592,7.3456c0.2768,0.3456,0.2184,0.8488,-0.1248,1.1232l0,0c-0.1504,0.1168,-0.3232,0.1752,-0.4984,0.1752l0,0C55.0472,52.2888,54.8144,52.1856,54.656,51.9872L54.656,51.9872z"/>
    </g>
   </g>
   <g  id="g_x5F_r" stroke-width="0">
    <g  stroke-width="0">
     <path  stroke-width="0" d="M17.8472,26.632c0.288,0,0.5528,0.1544,0.6952,0.4072l0,0c0.1432,0.2496,0.14,0.556,-0.0088,0.804l0,0L10.1136,41.9544c-0.1432,0.2416,-0.4048,0.3904,-0.6864,0.3904l0,0c-0.28,0,-0.544,-0.1488,-0.6864,-0.3888l0,0L0.3,27.844c-0.148,-0.2496,-0.1512,-0.5552,-0.0096,-0.8056l0,0c0.1416,-0.252,0.4064,-0.4072,0.6968,-0.4072l0,0L17.8472,26.632M9.4256,39.984l7.0128,-11.7512L2.396,28.2328L9.4256,39.984L9.4256,39.984z"/>
     <path  stroke-width="0" d="M0.8,42.344c-0.4432,0,-0.8,-0.356,-0.8,-0.7984l0,0c0,-0.4432,0.3576,-0.8,0.8,-0.8l0,0L17.64,40.7456c0.4416,0,0.8008,0.3568,0.8008,0.8l0,0c0,0.4424,-0.3592,0.7984,-0.8008,0.7984l0,0L0.8,42.344L0.8,42.344z"/>
     <path  stroke-width="0" d="M8.6264,27.2408L8.6264,17.6264c0,-0.4424,0.3584,-0.7992,0.8008,-0.7992l0,0c0.4424,0,0.7992,0.3568,0.7992,0.7992l0,0l0,9.6144c0,0.4424,-0.3568,0.8008,-0.7992,0.8008l0,0C8.984,28.0416,8.6264,27.6824,8.6264,27.2408L8.6264,27.2408z"/>
     <path  stroke-width="0" d="M8.6272,67.908L8.6272,41.4664c0,-0.4432,0.3584,-0.8008,0.7992,-0.8008l0,0c0.4424,0,0.8008,0.3576,0.8008,0.8008l0,0l0,26.4416c0,0.4408,-0.3584,0.7984,-0.8008,0.7984l0,0C8.9848,68.7064,8.6272,68.3488,8.6272,67.908L8.6272,67.908z"/>
     <polygon points="25.1656,43.676,26.7504,48.0696,22.8192,45.5472,23.9928,44.6112"  stroke-width="0"/>
     <path  stroke-width="0" d="M21.448,45.616l2.0456,-1.6296l1.172,-0.936l0.8728,-0.6968l2.7688,7.664L21.448,45.616L21.448,45.616z"/>
     <path  stroke-width="0" d="M25.668,47.996L18.144,38.5672c-0.2752,-0.3472,-0.2168,-0.8496,0.1272,-1.1248l0,0c0.3464,-0.2752,0.8496,-0.2168,1.124,0.1272l0,0l7.5232,9.4288c0.276,0.3472,0.2192,0.8496,-0.1264,1.1248l0,0c-0.148,0.1168,-0.3232,0.1744,-0.4976,0.1744l0,0C26.06,48.2976,25.8272,48.1944,25.668,47.996L25.668,47.996z"/>
     <polygon points="19.924,47.668,21.512,52.06,17.5808,49.5384,18.752,48.6032"  stroke-width="0"/>
     <path  stroke-width="0" d="M16.2088,49.608l2.0448,-1.6312l1.1712,-0.9344l0.8712,-0.6952l2.7752,7.664L16.2088,49.608L16.2088,49.608z"/>
     <path  stroke-width="0" d="M20.4304,51.9872l-5.8616,-7.3472c-0.276,-0.3464,-0.2176,-0.8496,0.1264,-1.1248l0,0c0.3448,-0.276,0.8496,-0.2168,1.1248,0.128l0,0l5.86,7.3456c0.276,0.3456,0.2192,0.8488,-0.1264,1.1232l0,0c-0.148,0.1168,-0.3232,0.1752,-0.4984,0.1752l0,0C20.82,52.2888,20.5872,52.1856,20.4304,51.9872L20.4304,51.9872z"/>
    </g>
   </g>
   <line fill="none"  stroke="#000000" stroke-linejoin="round" stroke-linecap="round" y1="17.6408" stroke-width="1.6" x1="9.428" y2="17.6408" x2="77.6528"/>
   <text x="0" y="0" font-family="'DroidSans'"  stroke-width="0" transform="matrix(1, 0, 0, 1, 0.12032, 52.7602)" font-size="11.2">R</text>
   <text x="0" y="0" font-family="'DroidSans'"  stroke-width="0" transform="matrix(1, 0, 0, 1, 34.3461, 52.7602)" font-size="11.2">G</text>
   <text x="0" y="0" font-family="'DroidSans'"  stroke-width="0" transform="matrix(1, 0, 0, 1, 68.5726, 52.7602)" font-size="11.2">B</text>
  </g>
 </g>
 <g transform="translate(41.7205,20.481)">
  <g  id="schematic" stroke-width="0">
   <rect width="1.893" x="5.474" y="1.089"  height="9.783" id="connector0pin" stroke-width="0"/>
   <rect width="0.866" x="5.952" y="0.406"  height="0.686" id="connector0terminal" stroke-width="0"/>
   <rect width="1.894" x="5.477" y="54.369"  height="9.783" id="connector1pin" stroke-width="0"/>
   <rect width="0.866" x="5.956" y="64.082"  height="0.688" id="connector1terminal" stroke-width="0"/>
   <g  stroke-width="0">
    <polyline fill="#FFFFFF" points="6.405,1.132,6.405,20.392,9.905,22.255,2.655,26.291,9.905,30.324,2.655,34.359,9.905,38.392,2.655,42.427,6.405,44.599,6.405,63.861"  stroke="#000000" stroke-linecap="round" stroke-width="2.2284"/>
   </g>
  </g>
 </g>
 <g transform="translate(41.7205,20.481)">
  <g  id="schematic" stroke-width="0">
   <rect width="1.893" x="5.474" y="1.089"  height="9.783" id="connector0pin" stroke-width="0"/>
   <rect width="0.866" x="5.952" y="0.406"  height="0.686" id="connector0terminal" stroke-width="0"/>
   <rect width="1.894" x="5.477" y="54.369"  height="9.783" id="connector1pin" stroke-width="0"/>
   <rect width="0.866" x="5.956" y="64.082"  height="0.688" id="connector1terminal" stroke-width="0"/>
   <g  stroke-width="0">
    <polyline fill="#FFFFFF" points="6.405,1.132,6.405,20.392,9.905,22.255,2.655,26.291,9.905,30.324,2.655,34.359,9.905,38.392,2.655,42.427,6.405,44.599,6.405,63.861"  stroke="#000000" stroke-linecap="round" stroke-width="2.2284"/>
   </g>
  </g>
 </g>
 <g transform="translate(546.134,97.175)">
  <g  id="schematic" stroke-width="0">
   <rect width="1.893" x="5.474" y="1.089"  height="9.783" id="connector0pin" stroke-width="0"/>
   <rect width="0.866" x="5.952" y="0.406"  height="0.686" id="connector0terminal" stroke-width="0"/>
   <rect width="1.894" x="5.477" y="54.369"  height="9.783" id="connector1pin" stroke-width="0"/>
   <rect width="0.866" x="5.956" y="64.082"  height="0.688" id="connector1terminal" stroke-width="0"/>
   <g  stroke-width="0">
    <polyline fill="#FFFFFF" points="6.405,1.132,6.405,20.392,9.905,22.255,2.655,26.291,9.905,30.324,2.655,34.359,9.905,38.392,2.655,42.427,6.405,44.599,6.405,63.861"  stroke="#000000" stroke-linecap="round" stroke-width="2.2284"/>
   </g>
  </g>
 </g>
 <line stroke="#ff7033" stroke-linecap="round" y1="97.924" x1="552.519" y2="281.666" stroke-width="0.56" x2="212.664"/>
 <line stroke="#ab58a2" stroke-linecap="round" y1="21.23" x1="48.1055" y2="302.904" stroke-width="0.56" x2="212.664"/>
 <line stroke="#8c3b00" stroke-linecap="round" y1="21.23" x1="48.1055" y2="324.14" stroke-width="0.56" x2="212.664"/>
 <line stroke="#000000" stroke-linecap="round" y1="381.17" x1="417.385" y2="16.9264" stroke-width="0.56" x2="385.346"/>
 <line stroke="#000000" stroke-linecap="round" y1="598.857" x1="107.459" y2="381.17" stroke-width="0.56" x2="417.385"/>
 <line stroke="#157de6" stroke-linecap="round" y1="421.129" x1="416.934" y2="494.028" stroke-width="0.56" x2="212.664"/>
 <line stroke="#ffe24d" stroke-linecap="round" y1="400.134" x1="417.385" y2="515.265" stroke-width="0.56" x2="212.664"/>
 <line stroke="#47cc79" stroke-linecap="round" y1="366.613" x1="212.664" y2="359.681" stroke-width="0.56" x2="417.385"/>
 <line stroke="#ff7033" stroke-linecap="round" y1="84.0472" x1="351.134" y2="161.601" stroke-width="0.56" x2="552.523"/>
 <line stroke="#ab58a2" stroke-linecap="round" y1="84.0472" x1="385.36" y2="84.9069" stroke-width="0.56" x2="48.1095"/>
 <line stroke="#8c3b00" stroke-linecap="round" y1="84.0472" x1="419.584" y2="84.9069" stroke-width="0.56" x2="48.1095"/>
 <g transform="translate(427.798,285.068)">
  <g fill="#000000" font-family="'DroidSans'" stroke="none" font-style="normal" fill-opacity="1" font-weight="normal" id="schematicLabel" font-size="9">
   <text x="0" y="6.75">Bluetooth Modem - BlueSMiRF Gold1</text>
   <text x="0" y="15.75">WRL-10268</text>
  </g>
 </g>
 <g transform="translate(214.92,184.268)">
  <g fill="#000000" font-family="'DroidSans'" stroke="none" font-style="normal" fill-opacity="1" font-weight="normal" id="schematicLabel" font-size="9">
   <text x="0" y="6.75">Arduino1</text>
  </g>
 </g>
 <g transform="translate(558.692,77.175)">
  <g fill="#000000" font-family="'DroidSans'" stroke="none" font-style="normal" fill-opacity="1" font-weight="normal" id="schematicLabel" font-size="9">
   <text x="0" y="6.75">R1</text>
   <text x="0" y="15.75">180k&#x3a9;</text>
  </g>
 </g>
 <g transform="translate(54.8125,0.58752)">
  <g fill="#000000" font-family="'DroidSans'" stroke="none" font-style="normal" fill-opacity="1" font-weight="normal" id="schematicLabel" font-size="9">
   <text x="0" y="6.75">R2</text>
   <text x="0" y="15.75">100k&#x3a9;</text>
  </g>
 </g>
 <g transform="translate(54.933,0)">
  <g fill="#000000" font-family="'DroidSans'" stroke="none" font-style="normal" fill-opacity="1" font-weight="normal" id="schematicLabel" font-size="9">
   <text x="0" y="6.75">R3</text>
   <text x="0" y="15.75">100k&#x3a9;</text>
  </g>
 </g>
 <g transform="translate(438.454,4.9272)">
  <g fill="#000000" font-family="'DroidSans'" stroke="none" font-style="normal" fill-opacity="1" font-weight="normal" id="schematicLabel" font-size="9">
   <text x="0" y="6.75">LED4</text>
  </g>
 </g>
</svg>
